<ttFont>
    <TTGlyph name=".notdef" xMin="93" yMin="-220" xMax="569" yMax="1030">
      <contour>
        <pt x="93" y="1030" on="1"/>
        <pt x="569" y="1030" on="1"/>
        <pt x="569" y="-220" on="1"/>
        <pt x="93" y="-220" on="1"/>
      </contour>
      <contour>
        <pt x="511" y="-164" on="1"/>
        <pt x="511" y="975" on="1"/>
        <pt x="151" y="975" on="1"/>
        <pt x="151" y="-164" on="1"/>
      </contour>
    </TTGlyph>
    <TTGlyph name="A" xMin="8" yMin="0" xMax="572" yMax="740">
      <contour>
        <pt x="8" y="6" on="1"/>
        <pt x="246" y="740" on="1"/>
        <pt x="334" y="740" on="1"/>
        <pt x="572" y="6" on="1"/>
        <pt x="572" y="0" on="1"/>
        <pt x="513" y="0" on="1"/>
        <pt x="436" y="234" on="1"/>
        <pt x="144" y="234" on="1"/>
        <pt x="68" y="0" on="1"/>
        <pt x="8" y="0" on="1"/>
      </contour>
      <contour>
        <pt x="420" y="289" on="1"/>
        <pt x="328" y="569" on="1"/>
        <pt x="293" y="684" on="1"/>
        <pt x="287" y="684" on="1"/>
        <pt x="252" y="569" on="1"/>
        <pt x="160" y="289" on="1"/>
      </contour>
    </TTGlyph>
    <TTGlyph name="A.sc" xMin="13" yMin="0" xMax="510" yMax="577">
      <contour>
        <pt x="13" y="5" on="1"/>
        <pt x="219" y="577" on="1"/>
        <pt x="305" y="577" on="1"/>
        <pt x="510" y="5" on="1"/>
        <pt x="510" y="0" on="1"/>
        <pt x="452" y="0" on="1"/>
        <pt x="388" y="175" on="1"/>
        <pt x="136" y="175" on="1"/>
        <pt x="71" y="0" on="1"/>
        <pt x="13" y="0" on="1"/>
      </contour>
      <contour>
        <pt x="373" y="223" on="1"/>
        <pt x="295" y="438" on="1"/>
        <pt x="264" y="527" on="1"/>
        <pt x="259" y="527" on="1"/>
        <pt x="229" y="438" on="1"/>
        <pt x="149" y="223" on="1"/>
      </contour>
    </TTGlyph>
    <TTGlyph name="AE" xMin="7" yMin="0" xMax="739" yMax="740">
      <contour>
        <pt x="7" y="6" on="1"/>
        <pt x="269" y="740" on="1"/>
        <pt x="730" y="740" on="1"/>
        <pt x="730" y="685" on="1"/>
        <pt x="423" y="685" on="1"/>
        <pt x="436" y="403" on="1"/>
        <pt x="701" y="403" on="1"/>
        <pt x="701" y="347" on="1"/>
        <pt x="439" y="347" on="1"/>
        <pt x="453" y="55" on="1"/>
        <pt x="739" y="55" on="1"/>
        <pt x="739" y="0" on="1"/>
        <pt x="392" y="0" on="1"/>
        <pt x="382" y="233" on="1"/>
        <pt x="151" y="233" on="1"/>
        <pt x="68" y="0" on="1"/>
        <pt x="7" y="0" on="1"/>
      </contour>
      <contour>
        <pt x="171" y="289" on="1"/>
        <pt x="380" y="289" on="1"/>
        <pt x="364" y="686" on="1"/>
        <pt x="314" y="686" on="1"/>
      </contour>
    </TTGlyph>
    <TTGlyph name="AE.sc" xMin="16" yMin="0" xMax="658" yMax="577">
      <contour>
        <pt x="16" y="5" on="1"/>
        <pt x="243" y="577" on="1"/>
        <pt x="650" y="577" on="1"/>
        <pt x="650" y="526" on="1"/>
        <pt x="385" y="526" on="1"/>
        <pt x="396" y="317" on="1"/>
        <pt x="625" y="317" on="1"/>
        <pt x="625" y="268" on="1"/>
        <pt x="399" y="268" on="1"/>
        <pt x="411" y="52" on="1"/>
        <pt x="658" y="52" on="1"/>
        <pt x="658" y="0" on="1"/>
        <pt x="352" y="0" on="1"/>
        <pt x="345" y="175" on="1"/>
        <pt x="146" y="175" on="1"/>
        <pt x="76" y="0" on="1"/>
        <pt x="16" y="0" on="1"/>
      </contour>
      <contour>
        <pt x="165" y="224" on="1"/>
        <pt x="342" y="224" on="1"/>
        <pt x="329" y="528" on="1"/>
        <pt x="287" y="528" on="1"/>
      </contour>
    </TTGlyph>
    <TTGlyph name="AEacute" xMin="7" yMin="0" xMax="739" yMax="927">
      <contour>
        <pt x="440" y="795" on="1"/>
        <pt x="516" y="927" on="1"/>
        <pt x="581" y="927" on="1"/>
        <pt x="490" y="790" on="1"/>
      </contour>
      <contour>
        <pt x="7" y="6" on="1"/>
        <pt x="269" y="740" on="1"/>
        <pt x="730" y="740" on="1"/>
        <pt x="730" y="685" on="1"/>
        <pt x="423" y="685" on="1"/>
        <pt x="436" y="403" on="1"/>
        <pt x="701" y="403" on="1"/>
        <pt x="701" y="347" on="1"/>
        <pt x="439" y="347" on="1"/>
        <pt x="453" y="55" on="1"/>
        <pt x="739" y="55" on="1"/>
        <pt x="739" y="0" on="1"/>
        <pt x="392" y="0" on="1"/>
        <pt x="382" y="233" on="1"/>
        <pt x="151" y="233" on="1"/>
        <pt x="68" y="0" on="1"/>
        <pt x="7" y="0" on="1"/>
      </contour>
      <contour>
        <pt x="171" y="289" on="1"/>
        <pt x="380" y="289" on="1"/>
        <pt x="364" y="686" on="1"/>
        <pt x="314" y="686" on="1"/>
      </contour>
    </TTGlyph>
    <TTGlyph name="AEacute.sc" xMin="16" yMin="0" xMax="658" yMax="730">
      <contour>
        <pt x="16" y="5" on="1"/>
        <pt x="243" y="577" on="1"/>
        <pt x="650" y="577" on="1"/>
        <pt x="650" y="526" on="1"/>
        <pt x="385" y="526" on="1"/>
        <pt x="396" y="317" on="1"/>
        <pt x="625" y="317" on="1"/>
        <pt x="625" y="268" on="1"/>
        <pt x="399" y="268" on="1"/>
        <pt x="411" y="52" on="1"/>
        <pt x="658" y="52" on="1"/>
        <pt x="658" y="0" on="1"/>
        <pt x="352" y="0" on="1"/>
        <pt x="345" y="175" on="1"/>
        <pt x="146" y="175" on="1"/>
        <pt x="76" y="0" on="1"/>
        <pt x="16" y="0" on="1"/>
      </contour>
      <contour>
        <pt x="342" y="224" on="1"/>
        <pt x="329" y="528" on="1"/>
        <pt x="287" y="528" on="1"/>
        <pt x="165" y="224" on="1"/>
      </contour>
      <contour>
        <pt x="391" y="621" on="1"/>
        <pt x="456" y="730" on="1"/>
        <pt x="519" y="730" on="1"/>
        <pt x="438" y="618" on="1"/>
      </contour>
    </TTGlyph>
    <TTGlyph name="Aacute" xMin="8" yMin="0" xMax="572" yMax="927">
      <contour>
        <pt x="8" y="6" on="1"/>
        <pt x="246" y="740" on="1"/>
        <pt x="334" y="740" on="1"/>
        <pt x="572" y="6" on="1"/>
        <pt x="572" y="0" on="1"/>
        <pt x="513" y="0" on="1"/>
        <pt x="436" y="234" on="1"/>
        <pt x="144" y="234" on="1"/>
        <pt x="68" y="0" on="1"/>
        <pt x="8" y="0" on="1"/>
      </contour>
      <contour>
        <pt x="420" y="289" on="1"/>
        <pt x="328" y="569" on="1"/>
        <pt x="293" y="684" on="1"/>
        <pt x="287" y="684" on="1"/>
        <pt x="252" y="569" on="1"/>
        <pt x="160" y="289" on="1"/>
      </contour>
      <contour>
        <pt x="261" y="795" on="1"/>
        <pt x="337" y="927" on="1"/>
        <pt x="402" y="927" on="1"/>
        <pt x="311" y="790" on="1"/>
      </contour>
    </TTGlyph>
    <TTGlyph name="Aacute.sc" xMin="13" yMin="0" xMax="510" yMax="730">
      <contour>
        <pt x="13" y="5" on="1"/>
        <pt x="219" y="577" on="1"/>
        <pt x="305" y="577" on="1"/>
        <pt x="510" y="5" on="1"/>
        <pt x="510" y="0" on="1"/>
        <pt x="452" y="0" on="1"/>
        <pt x="388" y="175" on="1"/>
        <pt x="136" y="175" on="1"/>
        <pt x="71" y="0" on="1"/>
        <pt x="13" y="0" on="1"/>
      </contour>
      <contour>
        <pt x="373" y="223" on="1"/>
        <pt x="295" y="438" on="1"/>
        <pt x="264" y="527" on="1"/>
        <pt x="259" y="527" on="1"/>
        <pt x="229" y="438" on="1"/>
        <pt x="150" y="223" on="1"/>
      </contour>
      <contour>
        <pt x="234" y="621" on="1"/>
        <pt x="299" y="730" on="1"/>
        <pt x="362" y="730" on="1"/>
        <pt x="282" y="618" on="1"/>
      </contour>
    </TTGlyph>
    <TTGlyph name="Abreve" xMin="8" yMin="0" xMax="572" yMax="954">
      <contour>
        <pt x="8" y="6" on="1"/>
        <pt x="246" y="740" on="1"/>
        <pt x="334" y="740" on="1"/>
        <pt x="572" y="6" on="1"/>
        <pt x="572" y="0" on="1"/>
        <pt x="513" y="0" on="1"/>
        <pt x="436" y="234" on="1"/>
        <pt x="144" y="234" on="1"/>
        <pt x="68" y="0" on="1"/>
        <pt x="8" y="0" on="1"/>
      </contour>
      <contour>
        <pt x="420" y="289" on="1"/>
        <pt x="328" y="569" on="1"/>
        <pt x="293" y="684" on="1"/>
        <pt x="287" y="684" on="1"/>
        <pt x="252" y="569" on="1"/>
        <pt x="160" y="289" on="1"/>
      </contour>
      <contour>
        <pt x="292" y="813" on="1"/>
        <pt x="218" y="813" on="0"/>
        <pt x="139" y="888" on="0"/>
        <pt x="139" y="954" on="1"/>
        <pt x="189" y="954" on="1"/>
        <pt x="189" y="906" on="0"/>
        <pt x="241" y="856" on="0"/>
        <pt x="292" y="856" on="1"/>
        <pt x="341" y="856" on="0"/>
        <pt x="394" y="906" on="0"/>
        <pt x="394" y="954" on="1"/>
        <pt x="444" y="954" on="1"/>
        <pt x="444" y="888" on="0"/>
        <pt x="364" y="813" on="0"/>
      </contour>
    </TTGlyph>
    <TTGlyph name="Abreve.sc" xMin="13" yMin="0" xMax="510" yMax="747">
      <contour>
        <pt x="263" y="632" on="1"/>
        <pt x="197" y="632" on="0"/>
        <pt x="127" y="693" on="0"/>
        <pt x="127" y="747" on="1"/>
        <pt x="175" y="747" on="1"/>
        <pt x="175" y="670" on="0"/>
        <pt x="263" y="670" on="1"/>
        <pt x="351" y="670" on="0"/>
        <pt x="351" y="747" on="1"/>
        <pt x="398" y="747" on="1"/>
        <pt x="398" y="693" on="0"/>
        <pt x="328" y="632" on="0"/>
      </contour>
      <contour>
        <pt x="13" y="5" on="1"/>
        <pt x="219" y="577" on="1"/>
        <pt x="305" y="577" on="1"/>
        <pt x="510" y="5" on="1"/>
        <pt x="510" y="0" on="1"/>
        <pt x="452" y="0" on="1"/>
        <pt x="388" y="175" on="1"/>
        <pt x="136" y="175" on="1"/>
        <pt x="71" y="0" on="1"/>
        <pt x="13" y="0" on="1"/>
      </contour>
      <contour>
        <pt x="373" y="223" on="1"/>
        <pt x="295" y="438" on="1"/>
        <pt x="264" y="527" on="1"/>
        <pt x="259" y="527" on="1"/>
        <pt x="229" y="438" on="1"/>
        <pt x="150" y="223" on="1"/>
      </contour>
    </TTGlyph>
    <TTGlyph name="Acircumflex" xMin="8" yMin="0" xMax="572" yMax="942">
      <contour>
        <pt x="8" y="6" on="1"/>
        <pt x="246" y="740" on="1"/>
        <pt x="334" y="740" on="1"/>
        <pt x="572" y="6" on="1"/>
        <pt x="572" y="0" on="1"/>
        <pt x="513" y="0" on="1"/>
        <pt x="436" y="234" on="1"/>
        <pt x="144" y="234" on="1"/>
        <pt x="68" y="0" on="1"/>
        <pt x="8" y="0" on="1"/>
      </contour>
      <contour>
        <pt x="420" y="289" on="1"/>
        <pt x="328" y="569" on="1"/>
        <pt x="293" y="684" on="1"/>
        <pt x="287" y="684" on="1"/>
        <pt x="252" y="569" on="1"/>
        <pt x="160" y="289" on="1"/>
      </contour>
      <contour>
        <pt x="153" y="870" on="1"/>
        <pt x="291" y="942" on="1"/>
        <pt x="429" y="870" on="1"/>
        <pt x="429" y="814" on="1"/>
        <pt x="291" y="886" on="1"/>
        <pt x="153" y="814" on="1"/>
      </contour>
    </TTGlyph>
    <TTGlyph name="Acircumflex.sc" xMin="13" yMin="0" xMax="510" yMax="739">
      <contour>
        <pt x="13" y="5" on="1"/>
        <pt x="219" y="577" on="1"/>
        <pt x="305" y="577" on="1"/>
        <pt x="510" y="5" on="1"/>
        <pt x="510" y="0" on="1"/>
        <pt x="452" y="0" on="1"/>
        <pt x="388" y="175" on="1"/>
        <pt x="136" y="175" on="1"/>
        <pt x="71" y="0" on="1"/>
        <pt x="13" y="0" on="1"/>
      </contour>
      <contour>
        <pt x="373" y="223" on="1"/>
        <pt x="295" y="438" on="1"/>
        <pt x="264" y="527" on="1"/>
        <pt x="259" y="527" on="1"/>
        <pt x="229" y="438" on="1"/>
        <pt x="150" y="223" on="1"/>
      </contour>
      <contour>
        <pt x="140" y="682" on="1"/>
        <pt x="263" y="739" on="1"/>
        <pt x="385" y="682" on="1"/>
        <pt x="385" y="633" on="1"/>
        <pt x="262" y="689" on="1"/>
        <pt x="140" y="633" on="1"/>
      </contour>
    </TTGlyph>
    <TTGlyph name="Adblgrave" xMin="8" yMin="0" xMax="572" yMax="925">
      <contour>
        <pt x="8" y="6" on="1"/>
        <pt x="246" y="740" on="1"/>
        <pt x="334" y="740" on="1"/>
        <pt x="572" y="6" on="1"/>
        <pt x="572" y="0" on="1"/>
        <pt x="513" y="0" on="1"/>
        <pt x="436" y="234" on="1"/>
        <pt x="144" y="234" on="1"/>
        <pt x="68" y="0" on="1"/>
        <pt x="8" y="0" on="1"/>
      </contour>
      <contour>
        <pt x="420" y="289" on="1"/>
        <pt x="328" y="569" on="1"/>
        <pt x="293" y="684" on="1"/>
        <pt x="287" y="684" on="1"/>
        <pt x="252" y="569" on="1"/>
        <pt x="160" y="289" on="1"/>
      </contour>
      <contour>
        <pt x="199" y="788" on="1"/>
        <pt x="108" y="925" on="1"/>
        <pt x="168" y="925" on="1"/>
        <pt x="244" y="801" on="1"/>
      </contour>
      <contour>
        <pt x="340" y="788" on="1"/>
        <pt x="248" y="925" on="1"/>
        <pt x="309" y="925" on="1"/>
        <pt x="385" y="801" on="1"/>
      </contour>
    </TTGlyph>
    <TTGlyph name="Adblgrave.sc" xMin="13" yMin="0" xMax="510" yMax="728">
      <contour>
        <pt x="13" y="5" on="1"/>
        <pt x="219" y="577" on="1"/>
        <pt x="305" y="577" on="1"/>
        <pt x="510" y="5" on="1"/>
        <pt x="510" y="0" on="1"/>
        <pt x="452" y="0" on="1"/>
        <pt x="388" y="175" on="1"/>
        <pt x="136" y="175" on="1"/>
        <pt x="71" y="0" on="1"/>
        <pt x="13" y="0" on="1"/>
      </contour>
      <contour>
        <pt x="373" y="223" on="1"/>
        <pt x="295" y="438" on="1"/>
        <pt x="264" y="527" on="1"/>
        <pt x="259" y="527" on="1"/>
        <pt x="229" y="438" on="1"/>
        <pt x="150" y="223" on="1"/>
      </contour>
      <contour>
        <pt x="100" y="728" on="1"/>
        <pt x="158" y="728" on="1"/>
        <pt x="223" y="626" on="1"/>
        <pt x="180" y="615" on="1"/>
      </contour>
      <contour>
        <pt x="224" y="728" on="1"/>
        <pt x="282" y="728" on="1"/>
        <pt x="347" y="626" on="1"/>
        <pt x="305" y="615" on="1"/>
      </contour>
    </TTGlyph>
    <TTGlyph name="Adieresis" xMin="8" yMin="0" xMax="572" yMax="900">
      <contour>
        <pt x="8" y="6" on="1"/>
        <pt x="246" y="740" on="1"/>
        <pt x="334" y="740" on="1"/>
        <pt x="572" y="6" on="1"/>
        <pt x="572" y="0" on="1"/>
        <pt x="513" y="0" on="1"/>
        <pt x="436" y="234" on="1"/>
        <pt x="144" y="234" on="1"/>
        <pt x="68" y="0" on="1"/>
        <pt x="8" y="0" on="1"/>
      </contour>
      <contour>
        <pt x="420" y="289" on="1"/>
        <pt x="328" y="569" on="1"/>
        <pt x="293" y="684" on="1"/>
        <pt x="287" y="684" on="1"/>
        <pt x="252" y="569" on="1"/>
        <pt x="160" y="289" on="1"/>
      </contour>
      <contour>
        <pt x="187" y="815" on="1"/>
        <pt x="167" y="815" on="0"/>
        <pt x="145" y="836" on="0"/>
        <pt x="145" y="858" on="1"/>
        <pt x="145" y="880" on="0"/>
        <pt x="167" y="900" on="0"/>
        <pt x="187" y="900" on="1"/>
        <pt x="207" y="900" on="0"/>
        <pt x="231" y="880" on="0"/>
        <pt x="231" y="858" on="1"/>
        <pt x="231" y="835" on="0"/>
        <pt x="207" y="815" on="0"/>
      </contour>
      <contour>
        <pt x="393" y="815" on="1"/>
        <pt x="373" y="815" on="0"/>
        <pt x="350" y="836" on="0"/>
        <pt x="350" y="858" on="1"/>
        <pt x="350" y="880" on="0"/>
        <pt x="373" y="900" on="0"/>
        <pt x="393" y="900" on="1"/>
        <pt x="412" y="900" on="0"/>
        <pt x="436" y="880" on="0"/>
        <pt x="436" y="858" on="1"/>
        <pt x="436" y="835" on="0"/>
        <pt x="412" y="815" on="0"/>
      </contour>
    </TTGlyph>
    <TTGlyph name="Adieresis.sc" xMin="13" yMin="0" xMax="510" yMax="712">
      <contour>
        <pt x="170" y="635" on="1"/>
        <pt x="131" y="635" on="0"/>
        <pt x="131" y="673" on="1"/>
        <pt x="131" y="712" on="0"/>
        <pt x="170" y="712" on="1"/>
        <pt x="211" y="712" on="0"/>
        <pt x="211" y="673" on="1"/>
        <pt x="211" y="635" on="0"/>
      </contour>
      <contour>
        <pt x="354" y="635" on="1"/>
        <pt x="314" y="635" on="0"/>
        <pt x="314" y="673" on="1"/>
        <pt x="314" y="712" on="0"/>
        <pt x="354" y="712" on="1"/>
        <pt x="372" y="712" on="0"/>
        <pt x="394" y="693" on="0"/>
        <pt x="394" y="673" on="1"/>
        <pt x="394" y="653" on="0"/>
        <pt x="372" y="635" on="0"/>
      </contour>
      <contour>
        <pt x="13" y="5" on="1"/>
        <pt x="219" y="577" on="1"/>
        <pt x="305" y="577" on="1"/>
        <pt x="510" y="5" on="1"/>
        <pt x="510" y="0" on="1"/>
        <pt x="452" y="0" on="1"/>
        <pt x="388" y="175" on="1"/>
        <pt x="136" y="175" on="1"/>
        <pt x="71" y="0" on="1"/>
        <pt x="13" y="0" on="1"/>
      </contour>
      <contour>
        <pt x="373" y="223" on="1"/>
        <pt x="295" y="438" on="1"/>
        <pt x="264" y="527" on="1"/>
        <pt x="259" y="527" on="1"/>
        <pt x="229" y="438" on="1"/>
        <pt x="150" y="223" on="1"/>
      </contour>
    </TTGlyph>
    <TTGlyph name="Agrave" xMin="8" yMin="0" xMax="572" yMax="927">
      <contour>
        <pt x="8" y="6" on="1"/>
        <pt x="246" y="740" on="1"/>
        <pt x="334" y="740" on="1"/>
        <pt x="572" y="6" on="1"/>
        <pt x="572" y="0" on="1"/>
        <pt x="513" y="0" on="1"/>
        <pt x="436" y="234" on="1"/>
        <pt x="144" y="234" on="1"/>
        <pt x="68" y="0" on="1"/>
        <pt x="8" y="0" on="1"/>
      </contour>
      <contour>
        <pt x="420" y="289" on="1"/>
        <pt x="328" y="569" on="1"/>
        <pt x="293" y="684" on="1"/>
        <pt x="287" y="684" on="1"/>
        <pt x="252" y="569" on="1"/>
        <pt x="160" y="289" on="1"/>
      </contour>
      <contour>
        <pt x="263" y="790" on="1"/>
        <pt x="172" y="927" on="1"/>
        <pt x="237" y="927" on="1"/>
        <pt x="313" y="803" on="1"/>
      </contour>
    </TTGlyph>
    <TTGlyph name="Agrave.sc" xMin="13" yMin="0" xMax="510" yMax="730">
      <contour>
        <pt x="13" y="5" on="1"/>
        <pt x="219" y="577" on="1"/>
        <pt x="305" y="577" on="1"/>
        <pt x="510" y="5" on="1"/>
        <pt x="510" y="0" on="1"/>
        <pt x="452" y="0" on="1"/>
        <pt x="388" y="175" on="1"/>
        <pt x="136" y="175" on="1"/>
        <pt x="71" y="0" on="1"/>
        <pt x="13" y="0" on="1"/>
      </contour>
      <contour>
        <pt x="373" y="223" on="1"/>
        <pt x="295" y="438" on="1"/>
        <pt x="264" y="527" on="1"/>
        <pt x="259" y="527" on="1"/>
        <pt x="229" y="438" on="1"/>
        <pt x="150" y="223" on="1"/>
      </contour>
      <contour>
        <pt x="236" y="618" on="1"/>
        <pt x="156" y="730" on="1"/>
        <pt x="218" y="730" on="1"/>
        <pt x="283" y="627" on="1"/>
      </contour>
    </TTGlyph>
    <TTGlyph name="Ainvertedbreve" xMin="8" yMin="0" xMax="572" yMax="961">
      <contour>
        <pt x="8" y="6" on="1"/>
        <pt x="246" y="740" on="1"/>
        <pt x="334" y="740" on="1"/>
        <pt x="572" y="6" on="1"/>
        <pt x="572" y="0" on="1"/>
        <pt x="513" y="0" on="1"/>
        <pt x="436" y="234" on="1"/>
        <pt x="144" y="234" on="1"/>
        <pt x="68" y="0" on="1"/>
        <pt x="8" y="0" on="1"/>
      </contour>
      <contour>
        <pt x="420" y="289" on="1"/>
        <pt x="328" y="569" on="1"/>
        <pt x="293" y="684" on="1"/>
        <pt x="287" y="684" on="1"/>
        <pt x="252" y="569" on="1"/>
        <pt x="160" y="289" on="1"/>
      </contour>
      <contour>
        <pt x="393" y="821" on="1"/>
        <pt x="393" y="868" on="0"/>
        <pt x="340" y="919" on="0"/>
        <pt x="290" y="919" on="1"/>
        <pt x="240" y="919" on="0"/>
        <pt x="187" y="868" on="0"/>
        <pt x="187" y="821" on="1"/>
        <pt x="137" y="821" on="1"/>
        <pt x="137" y="887" on="0"/>
        <pt x="217" y="961" on="0"/>
        <pt x="290" y="961" on="1"/>
        <pt x="363" y="961" on="0"/>
        <pt x="443" y="887" on="0"/>
        <pt x="443" y="821" on="1"/>
      </contour>
    </TTGlyph>
    <TTGlyph name="Ainvertedbreve.sc" xMin="13" yMin="0" xMax="510" yMax="752">
      <contour>
        <pt x="127" y="639" on="1"/>
        <pt x="127" y="692" on="0"/>
        <pt x="196" y="752" on="0"/>
        <pt x="262" y="752" on="1"/>
        <pt x="328" y="752" on="0"/>
        <pt x="397" y="692" on="0"/>
        <pt x="397" y="639" on="1"/>
        <pt x="350" y="639" on="1"/>
        <pt x="350" y="715" on="0"/>
        <pt x="262" y="715" on="1"/>
        <pt x="174" y="715" on="0"/>
        <pt x="174" y="639" on="1"/>
      </contour>
      <contour>
        <pt x="13" y="5" on="1"/>
        <pt x="219" y="577" on="1"/>
        <pt x="305" y="577" on="1"/>
        <pt x="510" y="5" on="1"/>
        <pt x="510" y="0" on="1"/>
        <pt x="452" y="0" on="1"/>
        <pt x="388" y="175" on="1"/>
        <pt x="136" y="175" on="1"/>
        <pt x="71" y="0" on="1"/>
        <pt x="13" y="0" on="1"/>
      </contour>
      <contour>
        <pt x="373" y="223" on="1"/>
        <pt x="295" y="438" on="1"/>
        <pt x="264" y="527" on="1"/>
        <pt x="259" y="527" on="1"/>
        <pt x="229" y="438" on="1"/>
        <pt x="150" y="223" on="1"/>
      </contour>
    </TTGlyph>
    <TTGlyph name="Amacron" xMin="8" yMin="0" xMax="572" yMax="891">
      <contour>
        <pt x="8" y="6" on="1"/>
        <pt x="246" y="740" on="1"/>
        <pt x="334" y="740" on="1"/>
        <pt x="572" y="6" on="1"/>
        <pt x="572" y="0" on="1"/>
        <pt x="513" y="0" on="1"/>
        <pt x="436" y="234" on="1"/>
        <pt x="144" y="234" on="1"/>
        <pt x="68" y="0" on="1"/>
        <pt x="8" y="0" on="1"/>
      </contour>
      <contour>
        <pt x="420" y="289" on="1"/>
        <pt x="328" y="569" on="1"/>
        <pt x="293" y="684" on="1"/>
        <pt x="287" y="684" on="1"/>
        <pt x="252" y="569" on="1"/>
        <pt x="160" y="289" on="1"/>
      </contour>
      <contour>
        <pt x="157" y="891" on="1"/>
        <pt x="411" y="891" on="1"/>
        <pt x="411" y="841" on="1"/>
        <pt x="157" y="841" on="1"/>
      </contour>
    </TTGlyph>
    <TTGlyph name="Amacron.sc" xMin="13" yMin="0" xMax="510" yMax="701">
      <contour>
        <pt x="13" y="5" on="1"/>
        <pt x="219" y="577" on="1"/>
        <pt x="305" y="577" on="1"/>
        <pt x="510" y="5" on="1"/>
        <pt x="510" y="0" on="1"/>
        <pt x="452" y="0" on="1"/>
        <pt x="388" y="175" on="1"/>
        <pt x="136" y="175" on="1"/>
        <pt x="71" y="0" on="1"/>
        <pt x="13" y="0" on="1"/>
      </contour>
      <contour>
        <pt x="373" y="223" on="1"/>
        <pt x="295" y="438" on="1"/>
        <pt x="264" y="527" on="1"/>
        <pt x="259" y="527" on="1"/>
        <pt x="229" y="438" on="1"/>
        <pt x="150" y="223" on="1"/>
      </contour>
      <contour>
        <pt x="144" y="701" on="1"/>
        <pt x="372" y="701" on="1"/>
        <pt x="372" y="656" on="1"/>
        <pt x="144" y="656" on="1"/>
      </contour>
    </TTGlyph>
    <TTGlyph name="Aogonek" xMin="8" yMin="-220" xMax="572" yMax="740">
      <contour>
        <pt x="513" y="-220" on="1"/>
        <pt x="469" y="-220" on="0"/>
        <pt x="423" y="-178" on="0"/>
        <pt x="423" y="-136" on="1"/>
        <pt x="423" y="-97" on="0"/>
        <pt x="470" y="-32" on="0"/>
        <pt x="521" y="0" on="1"/>
        <pt x="513" y="0" on="1"/>
        <pt x="436" y="234" on="1"/>
        <pt x="144" y="234" on="1"/>
        <pt x="68" y="0" on="1"/>
        <pt x="8" y="0" on="1"/>
        <pt x="8" y="6" on="1"/>
        <pt x="246" y="740" on="1"/>
        <pt x="334" y="740" on="1"/>
        <pt x="572" y="6" on="1"/>
        <pt x="572" y="-18" on="1"/>
        <pt x="520" y="-42" on="0"/>
        <pt x="472" y="-100" on="0"/>
        <pt x="472" y="-132" on="1"/>
        <pt x="472" y="-175" on="0"/>
        <pt x="519" y="-175" on="1"/>
        <pt x="545" y="-175" on="0"/>
        <pt x="572" y="-164" on="1"/>
        <pt x="572" y="-208" on="1"/>
        <pt x="545" y="-220" on="0"/>
      </contour>
      <contour>
        <pt x="420" y="289" on="1"/>
        <pt x="328" y="569" on="1"/>
        <pt x="293" y="684" on="1"/>
        <pt x="287" y="684" on="1"/>
        <pt x="252" y="569" on="1"/>
        <pt x="160" y="289" on="1"/>
      </contour>
    </TTGlyph>
    <TTGlyph name="Aogonek.sc" xMin="12" yMin="-170" xMax="510" yMax="577">
      <contour>
        <pt x="457" y="-170" on="1"/>
        <pt x="376" y="-170" on="0"/>
        <pt x="376" y="-103" on="1"/>
        <pt x="376" y="-74" on="0"/>
        <pt x="414" y="-25" on="0"/>
        <pt x="456" y="0" on="1"/>
        <pt x="451" y="0" on="1"/>
        <pt x="387" y="175" on="1"/>
        <pt x="135" y="175" on="1"/>
        <pt x="70" y="0" on="1"/>
        <pt x="12" y="0" on="1"/>
        <pt x="12" y="5" on="1"/>
        <pt x="218" y="577" on="1"/>
        <pt x="305" y="577" on="1"/>
        <pt x="510" y="5" on="1"/>
        <pt x="510" y="-12" on="1"/>
        <pt x="466" y="-28" on="0"/>
        <pt x="422" y="-73" on="0"/>
        <pt x="422" y="-98" on="1"/>
        <pt x="422" y="-115" on="0"/>
        <pt x="442" y="-129" on="0"/>
        <pt x="462" y="-129" on="1"/>
        <pt x="487" y="-129" on="0"/>
        <pt x="509" y="-121" on="1"/>
        <pt x="509" y="-160" on="1"/>
        <pt x="497" y="-165" on="0"/>
        <pt x="471" y="-170" on="0"/>
      </contour>
      <contour>
        <pt x="372" y="223" on="1"/>
        <pt x="294" y="443" on="1"/>
        <pt x="263" y="527" on="1"/>
        <pt x="258" y="527" on="1"/>
        <pt x="228" y="443" on="1"/>
        <pt x="148" y="223" on="1"/>
      </contour>
    </TTGlyph>
    <TTGlyph name="Aring" xMin="8" yMin="0" xMax="572" yMax="945">
      <contour>
        <pt x="8" y="6" on="1"/>
        <pt x="246" y="740" on="1"/>
        <pt x="264" y="740" on="1"/>
        <pt x="229" y="748" on="0"/>
        <pt x="189" y="803" on="0"/>
        <pt x="189" y="841" on="1"/>
        <pt x="189" y="885" on="0"/>
        <pt x="243" y="945" on="0"/>
        <pt x="291" y="945" on="1"/>
        <pt x="339" y="945" on="0"/>
        <pt x="392" y="885" on="0"/>
        <pt x="392" y="841" on="1"/>
        <pt x="392" y="803" on="0"/>
        <pt x="352" y="748" on="0"/>
        <pt x="317" y="740" on="1"/>
        <pt x="334" y="740" on="1"/>
        <pt x="572" y="6" on="1"/>
        <pt x="572" y="0" on="1"/>
        <pt x="513" y="0" on="1"/>
        <pt x="436" y="234" on="1"/>
        <pt x="144" y="234" on="1"/>
        <pt x="68" y="0" on="1"/>
        <pt x="8" y="0" on="1"/>
      </contour>
      <contour>
        <pt x="420" y="289" on="1"/>
        <pt x="328" y="569" on="1"/>
        <pt x="293" y="684" on="1"/>
        <pt x="287" y="684" on="1"/>
        <pt x="252" y="569" on="1"/>
        <pt x="160" y="289" on="1"/>
      </contour>
      <contour>
        <pt x="291" y="776" on="1"/>
        <pt x="320" y="776" on="0"/>
        <pt x="352" y="812" on="0"/>
        <pt x="352" y="841" on="1"/>
        <pt x="352" y="870" on="0"/>
        <pt x="321" y="906" on="0"/>
        <pt x="291" y="906" on="1"/>
        <pt x="260" y="906" on="0"/>
        <pt x="230" y="870" on="0"/>
        <pt x="230" y="841" on="1"/>
        <pt x="230" y="812" on="0"/>
        <pt x="261" y="776" on="0"/>
      </contour>
    </TTGlyph>
    <TTGlyph name="Aring.sc" xMin="13" yMin="0" xMax="510" yMax="780">
      <contour>
        <pt x="13" y="5" on="1"/>
        <pt x="219" y="577" on="1"/>
        <pt x="305" y="577" on="1"/>
        <pt x="510" y="5" on="1"/>
        <pt x="510" y="0" on="1"/>
        <pt x="452" y="0" on="1"/>
        <pt x="388" y="175" on="1"/>
        <pt x="136" y="175" on="1"/>
        <pt x="71" y="0" on="1"/>
        <pt x="13" y="0" on="1"/>
      </contour>
      <contour>
        <pt x="373" y="223" on="1"/>
        <pt x="295" y="438" on="1"/>
        <pt x="264" y="527" on="1"/>
        <pt x="259" y="527" on="1"/>
        <pt x="229" y="438" on="1"/>
        <pt x="150" y="223" on="1"/>
      </contour>
      <contour>
        <pt x="261" y="616" on="1"/>
        <pt x="220" y="616" on="0"/>
        <pt x="172" y="663" on="0"/>
        <pt x="172" y="697" on="1"/>
        <pt x="172" y="732" on="0"/>
        <pt x="220" y="780" on="0"/>
        <pt x="261" y="780" on="1"/>
        <pt x="303" y="780" on="0"/>
        <pt x="351" y="732" on="0"/>
        <pt x="351" y="697" on="1"/>
        <pt x="351" y="663" on="0"/>
        <pt x="303" y="616" on="0"/>
      </contour>
      <contour>
        <pt x="261" y="648" on="1"/>
        <pt x="287" y="648" on="0"/>
        <pt x="315" y="675" on="0"/>
        <pt x="315" y="697" on="1"/>
        <pt x="315" y="720" on="0"/>
        <pt x="288" y="748" on="0"/>
        <pt x="261" y="748" on="1"/>
        <pt x="235" y="748" on="0"/>
        <pt x="208" y="720" on="0"/>
        <pt x="208" y="697" on="1"/>
        <pt x="208" y="675" on="0"/>
        <pt x="235" y="648" on="0"/>
      </contour>
    </TTGlyph>
    <TTGlyph name="Aringacute" xMin="9" yMin="0" xMax="573" yMax="940">
      <contour>
        <pt x="9" y="6" on="1"/>
        <pt x="218" y="647" on="1"/>
        <pt x="179" y="677" on="0"/>
        <pt x="179" y="733" on="1"/>
        <pt x="179" y="775" on="0"/>
        <pt x="226" y="836" on="0"/>
        <pt x="269" y="841" on="1"/>
        <pt x="332" y="940" on="1"/>
        <pt x="397" y="940" on="1"/>
        <pt x="327" y="836" on="1"/>
        <pt x="362" y="826" on="0"/>
        <pt x="400" y="770" on="0"/>
        <pt x="400" y="733" on="1"/>
        <pt x="400" y="678" on="0"/>
        <pt x="363" y="649" on="1"/>
        <pt x="573" y="6" on="1"/>
        <pt x="573" y="0" on="1"/>
        <pt x="513" y="0" on="1"/>
        <pt x="437" y="233" on="1"/>
        <pt x="145" y="233" on="1"/>
        <pt x="68" y="0" on="1"/>
        <pt x="9" y="0" on="1"/>
      </contour>
      <contour>
        <pt x="289" y="666" on="1"/>
        <pt x="319" y="666" on="0"/>
        <pt x="354" y="704" on="0"/>
        <pt x="354" y="733" on="1"/>
        <pt x="354" y="762" on="0"/>
        <pt x="320" y="800" on="0"/>
        <pt x="289" y="800" on="1"/>
        <pt x="259" y="800" on="0"/>
        <pt x="226" y="762" on="0"/>
        <pt x="226" y="733" on="1"/>
        <pt x="226" y="704" on="0"/>
        <pt x="259" y="666" on="0"/>
      </contour>
      <contour>
        <pt x="420" y="289" on="1"/>
        <pt x="330" y="569" on="1"/>
        <pt x="313" y="623" on="1"/>
        <pt x="269" y="623" on="1"/>
        <pt x="252" y="569" on="1"/>
        <pt x="161" y="289" on="1"/>
      </contour>
    </TTGlyph>
    <TTGlyph name="Aringacute.sc" xMin="14" yMin="0" xMax="510" yMax="742">
      <contour>
        <pt x="14" y="5" on="1"/>
        <pt x="195" y="508" on="1"/>
        <pt x="178" y="519" on="0"/>
        <pt x="162" y="554" on="0"/>
        <pt x="162" y="574" on="1"/>
        <pt x="162" y="609" on="0"/>
        <pt x="203" y="658" on="0"/>
        <pt x="241" y="663" on="1"/>
        <pt x="295" y="742" on="1"/>
        <pt x="357" y="742" on="1"/>
        <pt x="296" y="658" on="1"/>
        <pt x="327" y="650" on="0"/>
        <pt x="361" y="604" on="0"/>
        <pt x="361" y="574" on="1"/>
        <pt x="361" y="534" on="0"/>
        <pt x="328" y="509" on="1"/>
        <pt x="510" y="5" on="1"/>
        <pt x="510" y="0" on="1"/>
        <pt x="452" y="0" on="1"/>
        <pt x="388" y="175" on="1"/>
        <pt x="136" y="175" on="1"/>
        <pt x="71" y="0" on="1"/>
        <pt x="14" y="0" on="1"/>
      </contour>
      <contour>
        <pt x="261" y="523" on="1"/>
        <pt x="287" y="523" on="0"/>
        <pt x="317" y="552" on="0"/>
        <pt x="317" y="574" on="1"/>
        <pt x="317" y="598" on="0"/>
        <pt x="288" y="627" on="0"/>
        <pt x="261" y="627" on="1"/>
        <pt x="234" y="627" on="0"/>
        <pt x="205" y="598" on="0"/>
        <pt x="205" y="574" on="1"/>
        <pt x="205" y="551" on="0"/>
        <pt x="235" y="523" on="0"/>
      </contour>
      <contour>
        <pt x="373" y="223" on="1"/>
        <pt x="295" y="438" on="1"/>
        <pt x="280" y="485" on="1"/>
        <pt x="243" y="484" on="1"/>
        <pt x="229" y="438" on="1"/>
        <pt x="150" y="223" on="1"/>
      </contour>
    </TTGlyph>
    <TTGlyph name="Atilde" xMin="8" yMin="0" xMax="572" yMax="915">
      <contour>
        <pt x="8" y="6" on="1"/>
        <pt x="246" y="740" on="1"/>
        <pt x="334" y="740" on="1"/>
        <pt x="572" y="6" on="1"/>
        <pt x="572" y="0" on="1"/>
        <pt x="513" y="0" on="1"/>
        <pt x="436" y="234" on="1"/>
        <pt x="144" y="234" on="1"/>
        <pt x="68" y="0" on="1"/>
        <pt x="8" y="0" on="1"/>
      </contour>
      <contour>
        <pt x="420" y="289" on="1"/>
        <pt x="328" y="569" on="1"/>
        <pt x="293" y="684" on="1"/>
        <pt x="287" y="684" on="1"/>
        <pt x="252" y="569" on="1"/>
        <pt x="160" y="289" on="1"/>
      </contour>
      <contour>
        <pt x="129" y="852" on="1"/>
        <pt x="149" y="879" on="0"/>
        <pt x="204" y="915" on="0"/>
        <pt x="231" y="915" on="1"/>
        <pt x="252" y="915" on="0"/>
        <pt x="286" y="902" on="0"/>
        <pt x="318" y="885" on="0"/>
        <pt x="351" y="872" on="0"/>
        <pt x="369" y="872" on="1"/>
        <pt x="387" y="872" on="0"/>
        <pt x="421" y="893" on="0"/>
        <pt x="435" y="912" on="1"/>
        <pt x="461" y="890" on="1"/>
        <pt x="444" y="860" on="0"/>
        <pt x="389" y="824" on="0"/>
        <pt x="360" y="824" on="1"/>
        <pt x="340" y="824" on="0"/>
        <pt x="306" y="837" on="0"/>
        <pt x="274" y="853" on="0"/>
        <pt x="242" y="866" on="0"/>
        <pt x="224" y="866" on="1"/>
        <pt x="205" y="866" on="0"/>
        <pt x="169" y="845" on="0"/>
        <pt x="153" y="828" on="1"/>
      </contour>
    </TTGlyph>
    <TTGlyph name="Atilde.sc" xMin="13" yMin="0" xMax="510" yMax="719">
      <contour>
        <pt x="13" y="5" on="1"/>
        <pt x="219" y="577" on="1"/>
        <pt x="305" y="577" on="1"/>
        <pt x="510" y="5" on="1"/>
        <pt x="510" y="0" on="1"/>
        <pt x="452" y="0" on="1"/>
        <pt x="388" y="175" on="1"/>
        <pt x="136" y="175" on="1"/>
        <pt x="71" y="0" on="1"/>
        <pt x="13" y="0" on="1"/>
      </contour>
      <contour>
        <pt x="373" y="223" on="1"/>
        <pt x="295" y="438" on="1"/>
        <pt x="264" y="527" on="1"/>
        <pt x="259" y="527" on="1"/>
        <pt x="229" y="438" on="1"/>
        <pt x="150" y="223" on="1"/>
      </contour>
      <contour>
        <pt x="120" y="665" on="1"/>
        <pt x="137" y="689" on="0"/>
        <pt x="187" y="719" on="0"/>
        <pt x="211" y="719" on="1"/>
        <pt x="229" y="719" on="0"/>
        <pt x="259" y="709" on="0"/>
        <pt x="287" y="697" on="0"/>
        <pt x="316" y="687" on="0"/>
        <pt x="332" y="687" on="1"/>
        <pt x="364" y="687" on="0"/>
        <pt x="392" y="718" on="1"/>
        <pt x="415" y="700" on="1"/>
        <pt x="398" y="673" on="0"/>
        <pt x="349" y="642" on="0"/>
        <pt x="323" y="642" on="1"/>
        <pt x="306" y="642" on="0"/>
        <pt x="276" y="653" on="0"/>
        <pt x="247" y="665" on="0"/>
        <pt x="218" y="676" on="0"/>
        <pt x="203" y="676" on="1"/>
        <pt x="186" y="676" on="0"/>
        <pt x="154" y="659" on="0"/>
        <pt x="140" y="645" on="1"/>
      </contour>
    </TTGlyph>
    <TTGlyph name="B" xMin="82" yMin="-10" xMax="539" yMax="750">
      <contour>
        <pt x="283" y="-10" on="1"/>
        <pt x="260" y="-10" on="0"/>
        <pt x="207" y="-8" on="0"/>
        <pt x="153" y="-4" on="0"/>
        <pt x="103" y="2" on="0"/>
        <pt x="82" y="5" on="1"/>
        <pt x="82" y="736" on="1"/>
        <pt x="116" y="740" on="0"/>
        <pt x="168" y="745" on="0"/>
        <pt x="212" y="748" on="0"/>
        <pt x="251" y="750" on="0"/>
        <pt x="271" y="750" on="1"/>
        <pt x="398" y="750" on="0"/>
        <pt x="515" y="654" on="0"/>
        <pt x="515" y="551" on="1"/>
        <pt x="515" y="481" on="0"/>
        <pt x="452" y="391" on="0"/>
        <pt x="395" y="380" on="1"/>
        <pt x="395" y="376" on="1"/>
        <pt x="463" y="365" on="0"/>
        <pt x="539" y="269" on="0"/>
        <pt x="539" y="193" on="1"/>
        <pt x="539" y="-10" on="0"/>
      </contour>
      <contour>
        <pt x="287" y="40" on="1"/>
        <pt x="475" y="41" on="0"/>
        <pt x="475" y="196" on="1"/>
        <pt x="475" y="277" on="0"/>
        <pt x="383" y="349" on="0"/>
        <pt x="278" y="349" on="1"/>
        <pt x="141" y="349" on="1"/>
        <pt x="141" y="50" on="1"/>
        <pt x="150" y="48" on="0"/>
        <pt x="183" y="45" on="0"/>
        <pt x="223" y="42" on="0"/>
        <pt x="267" y="40" on="0"/>
      </contour>
      <contour>
        <pt x="276" y="400" on="1"/>
        <pt x="324" y="400" on="0"/>
        <pt x="391" y="416" on="0"/>
        <pt x="433" y="451" on="0"/>
        <pt x="452" y="508" on="0"/>
        <pt x="452" y="549" on="1"/>
        <pt x="452" y="627" on="0"/>
        <pt x="367" y="698" on="0"/>
        <pt x="275" y="698" on="1"/>
        <pt x="237" y="698" on="0"/>
        <pt x="174" y="694" on="0"/>
        <pt x="141" y="689" on="1"/>
        <pt x="141" y="400" on="1"/>
      </contour>
    </TTGlyph>
    <TTGlyph name="B.sc" xMin="77" yMin="-8" xMax="478" yMax="585">
      <contour>
        <pt x="254" y="-8" on="1"/>
        <pt x="212" y="-8" on="0"/>
        <pt x="115" y="-1" on="0"/>
        <pt x="77" y="4" on="1"/>
        <pt x="77" y="574" on="1"/>
        <pt x="135" y="580" on="0"/>
        <pt x="209" y="585" on="0"/>
        <pt x="244" y="585" on="1"/>
        <pt x="356" y="585" on="0"/>
        <pt x="458" y="510" on="0"/>
        <pt x="458" y="429" on="1"/>
        <pt x="458" y="375" on="0"/>
        <pt x="404" y="306" on="0"/>
        <pt x="353" y="296" on="1"/>
        <pt x="353" y="293" on="1"/>
        <pt x="413" y="284" on="0"/>
        <pt x="478" y="211" on="0"/>
        <pt x="478" y="152" on="1"/>
        <pt x="478" y="-8" on="0"/>
      </contour>
      <contour>
        <pt x="257" y="39" on="1"/>
        <pt x="418" y="39" on="0"/>
        <pt x="418" y="155" on="1"/>
        <pt x="418" y="215" on="0"/>
        <pt x="340" y="269" on="0"/>
        <pt x="252" y="269" on="1"/>
        <pt x="135" y="269" on="1"/>
        <pt x="135" y="47" on="1"/>
        <pt x="142" y="45" on="0"/>
        <pt x="169" y="43" on="0"/>
        <pt x="202" y="40" on="0"/>
        <pt x="239" y="39" on="0"/>
      </contour>
      <contour>
        <pt x="251" y="315" on="1"/>
        <pt x="331" y="315" on="0"/>
        <pt x="398" y="365" on="0"/>
        <pt x="398" y="426" on="1"/>
        <pt x="398" y="484" on="0"/>
        <pt x="327" y="536" on="0"/>
        <pt x="248" y="536" on="1"/>
        <pt x="216" y="536" on="0"/>
        <pt x="162" y="534" on="0"/>
        <pt x="135" y="530" on="1"/>
        <pt x="135" y="315" on="1"/>
      </contour>
    </TTGlyph>
    <TTGlyph name="C" xMin="48" yMin="-10" xMax="484" yMax="749">
      <contour>
        <pt x="360" y="-10" on="1"/>
        <pt x="199" y="-8" on="0"/>
        <pt x="48" y="174" on="0"/>
        <pt x="48" y="369" on="1"/>
        <pt x="48" y="469" on="0"/>
        <pt x="84" y="612" on="0"/>
        <pt x="161" y="705" on="0"/>
        <pt x="278" y="749" on="0"/>
        <pt x="359" y="749" on="1"/>
        <pt x="386" y="749" on="0"/>
        <pt x="451" y="742" on="0"/>
        <pt x="484" y="737" on="1"/>
        <pt x="484" y="682" on="1"/>
        <pt x="457" y="687" on="0"/>
        <pt x="395" y="693" on="0"/>
        <pt x="367" y="693" on="1"/>
        <pt x="299" y="693" on="0"/>
        <pt x="203" y="657" on="0"/>
        <pt x="141" y="579" on="0"/>
        <pt x="112" y="456" on="0"/>
        <pt x="112" y="369" on="1"/>
        <pt x="112" y="200" on="0"/>
        <pt x="233" y="46" on="0"/>
        <pt x="361" y="46" on="1"/>
        <pt x="371" y="46" on="0"/>
        <pt x="402" y="48" on="0"/>
        <pt x="436" y="51" on="0"/>
        <pt x="470" y="55" on="0"/>
        <pt x="484" y="58" on="1"/>
        <pt x="484" y="5" on="1"/>
        <pt x="458" y="-2" on="0"/>
        <pt x="395" y="-10" on="0"/>
      </contour>
    </TTGlyph>
    <TTGlyph name="C.sc" xMin="48" yMin="-8" xMax="428" yMax="584">
      <contour>
        <pt x="317" y="-8" on="1"/>
        <pt x="179" y="-7" on="0"/>
        <pt x="48" y="136" on="0"/>
        <pt x="48" y="288" on="1"/>
        <pt x="48" y="442" on="0"/>
        <pt x="177" y="584" on="0"/>
        <pt x="316" y="584" on="1"/>
        <pt x="341" y="584" on="0"/>
        <pt x="399" y="579" on="0"/>
        <pt x="428" y="574" on="1"/>
        <pt x="428" y="523" on="1"/>
        <pt x="404" y="527" on="0"/>
        <pt x="349" y="532" on="0"/>
        <pt x="324" y="532" on="1"/>
        <pt x="267" y="532" on="0"/>
        <pt x="186" y="505" on="0"/>
        <pt x="134" y="447" on="0"/>
        <pt x="110" y="354" on="0"/>
        <pt x="110" y="288" on="1"/>
        <pt x="110" y="160" on="0"/>
        <pt x="210" y="45" on="0"/>
        <pt x="319" y="45" on="1"/>
        <pt x="329" y="45" on="0"/>
        <pt x="356" y="47" on="0"/>
        <pt x="386" y="50" on="0"/>
        <pt x="416" y="53" on="0"/>
        <pt x="428" y="55" on="1"/>
        <pt x="428" y="5" on="1"/>
        <pt x="405" y="0" on="0"/>
        <pt x="348" y="-8" on="0"/>
      </contour>
    </TTGlyph>
    <TTGlyph name="Cacute" xMin="48" yMin="-10" xMax="484" yMax="927">
      <contour>
        <pt x="360" y="-10" on="1"/>
        <pt x="199" y="-8" on="0"/>
        <pt x="48" y="174" on="0"/>
        <pt x="48" y="369" on="1"/>
        <pt x="48" y="469" on="0"/>
        <pt x="84" y="612" on="0"/>
        <pt x="161" y="705" on="0"/>
        <pt x="278" y="749" on="0"/>
        <pt x="359" y="749" on="1"/>
        <pt x="386" y="749" on="0"/>
        <pt x="451" y="742" on="0"/>
        <pt x="484" y="737" on="1"/>
        <pt x="484" y="682" on="1"/>
        <pt x="457" y="687" on="0"/>
        <pt x="395" y="693" on="0"/>
        <pt x="367" y="693" on="1"/>
        <pt x="299" y="693" on="0"/>
        <pt x="203" y="657" on="0"/>
        <pt x="141" y="579" on="0"/>
        <pt x="112" y="456" on="0"/>
        <pt x="112" y="369" on="1"/>
        <pt x="112" y="200" on="0"/>
        <pt x="233" y="46" on="0"/>
        <pt x="361" y="46" on="1"/>
        <pt x="371" y="46" on="0"/>
        <pt x="402" y="48" on="0"/>
        <pt x="436" y="51" on="0"/>
        <pt x="470" y="55" on="0"/>
        <pt x="484" y="58" on="1"/>
        <pt x="484" y="5" on="1"/>
        <pt x="458" y="-2" on="0"/>
        <pt x="395" y="-10" on="0"/>
      </contour>
      <contour>
        <pt x="286" y="795" on="1"/>
        <pt x="362" y="927" on="1"/>
        <pt x="427" y="927" on="1"/>
        <pt x="336" y="790" on="1"/>
      </contour>
    </TTGlyph>
    <TTGlyph name="Cacute.sc" xMin="48" yMin="-8" xMax="428" yMax="730">
      <contour>
        <pt x="317" y="-8" on="1"/>
        <pt x="179" y="-7" on="0"/>
        <pt x="48" y="136" on="0"/>
        <pt x="48" y="288" on="1"/>
        <pt x="48" y="442" on="0"/>
        <pt x="177" y="584" on="0"/>
        <pt x="316" y="584" on="1"/>
        <pt x="340" y="584" on="0"/>
        <pt x="398" y="579" on="0"/>
        <pt x="428" y="574" on="1"/>
        <pt x="428" y="523" on="1"/>
        <pt x="402" y="527" on="0"/>
        <pt x="348" y="532" on="0"/>
        <pt x="323" y="532" on="1"/>
        <pt x="267" y="532" on="0"/>
        <pt x="186" y="505" on="0"/>
        <pt x="134" y="447" on="0"/>
        <pt x="110" y="354" on="0"/>
        <pt x="110" y="288" on="1"/>
        <pt x="110" y="160" on="0"/>
        <pt x="211" y="45" on="0"/>
        <pt x="319" y="45" on="1"/>
        <pt x="329" y="45" on="0"/>
        <pt x="356" y="47" on="0"/>
        <pt x="386" y="50" on="0"/>
        <pt x="416" y="53" on="0"/>
        <pt x="428" y="55" on="1"/>
        <pt x="428" y="5" on="1"/>
        <pt x="405" y="0" on="0"/>
        <pt x="347" y="-8" on="0"/>
      </contour>
      <contour>
        <pt x="251" y="621" on="1"/>
        <pt x="316" y="730" on="1"/>
        <pt x="379" y="730" on="1"/>
        <pt x="298" y="618" on="1"/>
      </contour>
    </TTGlyph>
    <TTGlyph name="Ccaron" xMin="48" yMin="-10" xMax="484" yMax="929">
      <contour>
        <pt x="360" y="-10" on="1"/>
        <pt x="199" y="-8" on="0"/>
        <pt x="48" y="174" on="0"/>
        <pt x="48" y="369" on="1"/>
        <pt x="48" y="469" on="0"/>
        <pt x="84" y="612" on="0"/>
        <pt x="161" y="705" on="0"/>
        <pt x="278" y="749" on="0"/>
        <pt x="359" y="749" on="1"/>
        <pt x="386" y="749" on="0"/>
        <pt x="451" y="742" on="0"/>
        <pt x="484" y="737" on="1"/>
        <pt x="484" y="682" on="1"/>
        <pt x="457" y="687" on="0"/>
        <pt x="395" y="693" on="0"/>
        <pt x="367" y="693" on="1"/>
        <pt x="299" y="693" on="0"/>
        <pt x="203" y="657" on="0"/>
        <pt x="141" y="579" on="0"/>
        <pt x="112" y="456" on="0"/>
        <pt x="112" y="369" on="1"/>
        <pt x="112" y="200" on="0"/>
        <pt x="233" y="46" on="0"/>
        <pt x="361" y="46" on="1"/>
        <pt x="371" y="46" on="0"/>
        <pt x="402" y="48" on="0"/>
        <pt x="436" y="51" on="0"/>
        <pt x="470" y="55" on="0"/>
        <pt x="484" y="58" on="1"/>
        <pt x="484" y="5" on="1"/>
        <pt x="458" y="-2" on="0"/>
        <pt x="395" y="-10" on="0"/>
      </contour>
      <contour>
        <pt x="181" y="929" on="1"/>
        <pt x="319" y="857" on="1"/>
        <pt x="457" y="929" on="1"/>
        <pt x="457" y="874" on="1"/>
        <pt x="318" y="801" on="1"/>
        <pt x="181" y="874" on="1"/>
      </contour>
    </TTGlyph>
    <TTGlyph name="Ccaron.sc" xMin="48" yMin="-8" xMax="428" yMax="731">
      <contour>
        <pt x="317" y="-8" on="1"/>
        <pt x="179" y="-7" on="0"/>
        <pt x="48" y="136" on="0"/>
        <pt x="48" y="288" on="1"/>
        <pt x="48" y="442" on="0"/>
        <pt x="177" y="584" on="0"/>
        <pt x="316" y="584" on="1"/>
        <pt x="340" y="584" on="0"/>
        <pt x="398" y="579" on="0"/>
        <pt x="428" y="574" on="1"/>
        <pt x="428" y="523" on="1"/>
        <pt x="402" y="527" on="0"/>
        <pt x="348" y="532" on="0"/>
        <pt x="323" y="532" on="1"/>
        <pt x="267" y="532" on="0"/>
        <pt x="186" y="505" on="0"/>
        <pt x="134" y="447" on="0"/>
        <pt x="110" y="354" on="0"/>
        <pt x="110" y="288" on="1"/>
        <pt x="110" y="160" on="0"/>
        <pt x="211" y="45" on="0"/>
        <pt x="319" y="45" on="1"/>
        <pt x="329" y="45" on="0"/>
        <pt x="356" y="47" on="0"/>
        <pt x="386" y="50" on="0"/>
        <pt x="416" y="53" on="0"/>
        <pt x="428" y="55" on="1"/>
        <pt x="428" y="5" on="1"/>
        <pt x="405" y="0" on="0"/>
        <pt x="347" y="-8" on="0"/>
      </contour>
      <contour>
        <pt x="160" y="731" on="1"/>
        <pt x="282" y="674" on="1"/>
        <pt x="404" y="731" on="1"/>
        <pt x="404" y="682" on="1"/>
        <pt x="282" y="625" on="1"/>
        <pt x="160" y="682" on="1"/>
      </contour>
    </TTGlyph>
    <TTGlyph name="Ccedilla" xMin="48" yMin="-220" xMax="484" yMax="749">
      <contour>
        <pt x="277" y="-220" on="1"/>
        <pt x="242" y="-220" on="0"/>
        <pt x="207" y="-209" on="1"/>
        <pt x="207" y="-161" on="1"/>
        <pt x="238" y="-172" on="0"/>
        <pt x="268" y="-172" on="1"/>
        <pt x="337" y="-172" on="0"/>
        <pt x="337" y="-106" on="1"/>
        <pt x="337" y="-61" on="0"/>
        <pt x="306" y="-6" on="1"/>
        <pt x="173" y="9" on="0"/>
        <pt x="48" y="191" on="0"/>
        <pt x="48" y="369" on="1"/>
        <pt x="48" y="469" on="0"/>
        <pt x="84" y="612" on="0"/>
        <pt x="161" y="705" on="0"/>
        <pt x="278" y="749" on="0"/>
        <pt x="359" y="749" on="1"/>
        <pt x="386" y="749" on="0"/>
        <pt x="451" y="742" on="0"/>
        <pt x="484" y="737" on="1"/>
        <pt x="484" y="682" on="1"/>
        <pt x="457" y="687" on="0"/>
        <pt x="395" y="693" on="0"/>
        <pt x="367" y="693" on="1"/>
        <pt x="299" y="693" on="0"/>
        <pt x="203" y="657" on="0"/>
        <pt x="141" y="579" on="0"/>
        <pt x="112" y="456" on="0"/>
        <pt x="112" y="369" on="1"/>
        <pt x="112" y="200" on="0"/>
        <pt x="233" y="46" on="0"/>
        <pt x="361" y="46" on="1"/>
        <pt x="371" y="46" on="0"/>
        <pt x="402" y="48" on="0"/>
        <pt x="436" y="51" on="0"/>
        <pt x="470" y="55" on="0"/>
        <pt x="484" y="58" on="1"/>
        <pt x="484" y="5" on="1"/>
        <pt x="458" y="-2" on="0"/>
        <pt x="395" y="-10" on="0"/>
        <pt x="360" y="-10" on="1"/>
        <pt x="358" y="-10" on="1"/>
        <pt x="387" y="-67" on="0"/>
        <pt x="387" y="-110" on="1"/>
        <pt x="387" y="-164" on="0"/>
        <pt x="331" y="-220" on="0"/>
      </contour>
    </TTGlyph>
    <TTGlyph name="Ccedilla.sc" xMin="48" yMin="-172" xMax="428" yMax="584">
      <contour>
        <pt x="248" y="-172" on="1"/>
        <pt x="218" y="-172" on="0"/>
        <pt x="185" y="-163" on="1"/>
        <pt x="185" y="-120" on="1"/>
        <pt x="199" y="-125" on="0"/>
        <pt x="227" y="-128" on="0"/>
        <pt x="240" y="-128" on="1"/>
        <pt x="270" y="-128" on="0"/>
        <pt x="297" y="-104" on="0"/>
        <pt x="297" y="-78" on="1"/>
        <pt x="297" y="-46" on="0"/>
        <pt x="272" y="-5" on="1"/>
        <pt x="157" y="6" on="0"/>
        <pt x="48" y="148" on="0"/>
        <pt x="48" y="288" on="1"/>
        <pt x="48" y="442" on="0"/>
        <pt x="177" y="584" on="0"/>
        <pt x="316" y="584" on="1"/>
        <pt x="340" y="584" on="0"/>
        <pt x="398" y="579" on="0"/>
        <pt x="428" y="574" on="1"/>
        <pt x="428" y="523" on="1"/>
        <pt x="402" y="527" on="0"/>
        <pt x="348" y="532" on="0"/>
        <pt x="324" y="532" on="1"/>
        <pt x="267" y="532" on="0"/>
        <pt x="186" y="505" on="0"/>
        <pt x="134" y="447" on="0"/>
        <pt x="110" y="354" on="0"/>
        <pt x="110" y="288" on="1"/>
        <pt x="110" y="160" on="0"/>
        <pt x="211" y="45" on="0"/>
        <pt x="319" y="45" on="1"/>
        <pt x="329" y="45" on="0"/>
        <pt x="356" y="47" on="0"/>
        <pt x="386" y="50" on="0"/>
        <pt x="416" y="53" on="0"/>
        <pt x="428" y="55" on="1"/>
        <pt x="428" y="5" on="1"/>
        <pt x="405" y="0" on="0"/>
        <pt x="347" y="-8" on="0"/>
        <pt x="320" y="-7" on="1"/>
        <pt x="344" y="-52" on="0"/>
        <pt x="344" y="-85" on="1"/>
        <pt x="344" y="-127" on="0"/>
        <pt x="295" y="-172" on="0"/>
      </contour>
    </TTGlyph>
    <TTGlyph name="Ccircumflex" xMin="48" yMin="-10" xMax="484" yMax="942">
      <contour>
        <pt x="360" y="-10" on="1"/>
        <pt x="199" y="-8" on="0"/>
        <pt x="48" y="174" on="0"/>
        <pt x="48" y="369" on="1"/>
        <pt x="48" y="469" on="0"/>
        <pt x="84" y="612" on="0"/>
        <pt x="161" y="705" on="0"/>
        <pt x="278" y="749" on="0"/>
        <pt x="359" y="749" on="1"/>
        <pt x="386" y="749" on="0"/>
        <pt x="451" y="742" on="0"/>
        <pt x="484" y="737" on="1"/>
        <pt x="484" y="682" on="1"/>
        <pt x="457" y="687" on="0"/>
        <pt x="395" y="693" on="0"/>
        <pt x="367" y="693" on="1"/>
        <pt x="299" y="693" on="0"/>
        <pt x="203" y="657" on="0"/>
        <pt x="141" y="579" on="0"/>
        <pt x="112" y="456" on="0"/>
        <pt x="112" y="369" on="1"/>
        <pt x="112" y="200" on="0"/>
        <pt x="233" y="46" on="0"/>
        <pt x="361" y="46" on="1"/>
        <pt x="371" y="46" on="0"/>
        <pt x="402" y="48" on="0"/>
        <pt x="436" y="51" on="0"/>
        <pt x="470" y="55" on="0"/>
        <pt x="484" y="58" on="1"/>
        <pt x="484" y="5" on="1"/>
        <pt x="458" y="-2" on="0"/>
        <pt x="395" y="-10" on="0"/>
      </contour>
      <contour>
        <pt x="177" y="870" on="1"/>
        <pt x="315" y="942" on="1"/>
        <pt x="453" y="870" on="1"/>
        <pt x="453" y="814" on="1"/>
        <pt x="315" y="886" on="1"/>
        <pt x="177" y="814" on="1"/>
      </contour>
    </TTGlyph>
    <TTGlyph name="Ccircumflex.sc" xMin="48" yMin="-8" xMax="428" yMax="739">
      <contour>
        <pt x="317" y="-8" on="1"/>
        <pt x="179" y="-7" on="0"/>
        <pt x="48" y="136" on="0"/>
        <pt x="48" y="288" on="1"/>
        <pt x="48" y="442" on="0"/>
        <pt x="177" y="584" on="0"/>
        <pt x="316" y="584" on="1"/>
        <pt x="340" y="584" on="0"/>
        <pt x="398" y="579" on="0"/>
        <pt x="428" y="574" on="1"/>
        <pt x="428" y="523" on="1"/>
        <pt x="402" y="527" on="0"/>
        <pt x="348" y="532" on="0"/>
        <pt x="323" y="532" on="1"/>
        <pt x="267" y="532" on="0"/>
        <pt x="186" y="505" on="0"/>
        <pt x="134" y="447" on="0"/>
        <pt x="110" y="354" on="0"/>
        <pt x="110" y="288" on="1"/>
        <pt x="110" y="160" on="0"/>
        <pt x="211" y="45" on="0"/>
        <pt x="319" y="45" on="1"/>
        <pt x="329" y="45" on="0"/>
        <pt x="356" y="47" on="0"/>
        <pt x="386" y="50" on="0"/>
        <pt x="416" y="53" on="0"/>
        <pt x="428" y="55" on="1"/>
        <pt x="428" y="5" on="1"/>
        <pt x="405" y="0" on="0"/>
        <pt x="347" y="-8" on="0"/>
      </contour>
      <contour>
        <pt x="156" y="682" on="1"/>
        <pt x="279" y="739" on="1"/>
        <pt x="402" y="682" on="1"/>
        <pt x="402" y="633" on="1"/>
        <pt x="279" y="689" on="1"/>
        <pt x="156" y="633" on="1"/>
      </contour>
    </TTGlyph>
    <TTGlyph name="Cdotaccent" xMin="48" yMin="-10" xMax="484" yMax="890">
      <contour>
        <pt x="316" y="805" on="1"/>
        <pt x="273" y="805" on="0"/>
        <pt x="273" y="847" on="1"/>
        <pt x="273" y="890" on="0"/>
        <pt x="316" y="890" on="1"/>
        <pt x="336" y="890" on="0"/>
        <pt x="359" y="869" on="0"/>
        <pt x="359" y="847" on="1"/>
        <pt x="359" y="825" on="0"/>
        <pt x="336" y="805" on="0"/>
      </contour>
      <contour>
        <pt x="360" y="-10" on="1"/>
        <pt x="199" y="-8" on="0"/>
        <pt x="48" y="174" on="0"/>
        <pt x="48" y="369" on="1"/>
        <pt x="48" y="469" on="0"/>
        <pt x="84" y="612" on="0"/>
        <pt x="161" y="705" on="0"/>
        <pt x="278" y="749" on="0"/>
        <pt x="359" y="749" on="1"/>
        <pt x="386" y="749" on="0"/>
        <pt x="451" y="742" on="0"/>
        <pt x="484" y="737" on="1"/>
        <pt x="484" y="682" on="1"/>
        <pt x="457" y="687" on="0"/>
        <pt x="395" y="693" on="0"/>
        <pt x="367" y="693" on="1"/>
        <pt x="299" y="693" on="0"/>
        <pt x="203" y="657" on="0"/>
        <pt x="141" y="579" on="0"/>
        <pt x="112" y="456" on="0"/>
        <pt x="112" y="369" on="1"/>
        <pt x="112" y="200" on="0"/>
        <pt x="233" y="46" on="0"/>
        <pt x="361" y="46" on="1"/>
        <pt x="371" y="46" on="0"/>
        <pt x="402" y="48" on="0"/>
        <pt x="436" y="51" on="0"/>
        <pt x="470" y="55" on="0"/>
        <pt x="484" y="58" on="1"/>
        <pt x="484" y="5" on="1"/>
        <pt x="458" y="-2" on="0"/>
        <pt x="395" y="-10" on="0"/>
      </contour>
    </TTGlyph>
    <TTGlyph name="Cdotaccent.sc" xMin="48" yMin="-8" xMax="428" yMax="704">
      <contour>
        <pt x="317" y="-8" on="1"/>
        <pt x="179" y="-7" on="0"/>
        <pt x="48" y="136" on="0"/>
        <pt x="48" y="288" on="1"/>
        <pt x="48" y="442" on="0"/>
        <pt x="177" y="584" on="0"/>
        <pt x="316" y="584" on="1"/>
        <pt x="340" y="584" on="0"/>
        <pt x="398" y="579" on="0"/>
        <pt x="428" y="574" on="1"/>
        <pt x="428" y="523" on="1"/>
        <pt x="402" y="527" on="0"/>
        <pt x="348" y="532" on="0"/>
        <pt x="323" y="532" on="1"/>
        <pt x="267" y="532" on="0"/>
        <pt x="186" y="505" on="0"/>
        <pt x="134" y="447" on="0"/>
        <pt x="110" y="354" on="0"/>
        <pt x="110" y="288" on="1"/>
        <pt x="110" y="160" on="0"/>
        <pt x="211" y="45" on="0"/>
        <pt x="319" y="45" on="1"/>
        <pt x="329" y="45" on="0"/>
        <pt x="356" y="47" on="0"/>
        <pt x="386" y="50" on="0"/>
        <pt x="416" y="53" on="0"/>
        <pt x="428" y="55" on="1"/>
        <pt x="428" y="5" on="1"/>
        <pt x="405" y="0" on="0"/>
        <pt x="347" y="-8" on="0"/>
      </contour>
      <contour>
        <pt x="280" y="628" on="1"/>
        <pt x="261" y="628" on="0"/>
        <pt x="241" y="646" on="0"/>
        <pt x="241" y="667" on="1"/>
        <pt x="241" y="704" on="0"/>
        <pt x="280" y="704" on="1"/>
        <pt x="299" y="704" on="0"/>
        <pt x="321" y="687" on="0"/>
        <pt x="321" y="667" on="1"/>
        <pt x="321" y="646" on="0"/>
        <pt x="299" y="628" on="0"/>
      </contour>
    </TTGlyph>
    <TTGlyph name="D" xMin="82" yMin="-15" xMax="575" yMax="750">
      <contour>
        <pt x="219" y="-15" on="1"/>
        <pt x="181" y="-15" on="0"/>
        <pt x="111" y="-10" on="0"/>
        <pt x="82" y="-5" on="1"/>
        <pt x="82" y="735" on="1"/>
        <pt x="129" y="742" on="0"/>
        <pt x="216" y="750" on="0"/>
        <pt x="249" y="750" on="1"/>
        <pt x="417" y="750" on="0"/>
        <pt x="575" y="565" on="0"/>
        <pt x="575" y="369" on="1"/>
        <pt x="575" y="269" on="0"/>
        <pt x="533" y="124" on="0"/>
        <pt x="446" y="30" on="0"/>
        <pt x="312" y="-15" on="0"/>
      </contour>
      <contour>
        <pt x="233" y="40" on="1"/>
        <pt x="375" y="40" on="0"/>
        <pt x="511" y="200" on="0"/>
        <pt x="511" y="369" on="1"/>
        <pt x="511" y="540" on="0"/>
        <pt x="387" y="695" on="0"/>
        <pt x="252" y="695" on="1"/>
        <pt x="226" y="695" on="0"/>
        <pt x="169" y="691" on="0"/>
        <pt x="143" y="686" on="1"/>
        <pt x="143" y="47" on="1"/>
        <pt x="170" y="43" on="0"/>
        <pt x="212" y="40" on="0"/>
      </contour>
    </TTGlyph>
    <TTGlyph name="D.sc" xMin="77" yMin="-11" xMax="513" yMax="585">
      <contour>
        <pt x="204" y="-11" on="1"/>
        <pt x="169" y="-11" on="0"/>
        <pt x="103" y="-7" on="0"/>
        <pt x="77" y="-2" on="1"/>
        <pt x="77" y="574" on="1"/>
        <pt x="118" y="579" on="0"/>
        <pt x="196" y="585" on="0"/>
        <pt x="225" y="585" on="1"/>
        <pt x="374" y="585" on="0"/>
        <pt x="513" y="442" on="0"/>
        <pt x="513" y="288" on="1"/>
        <pt x="513" y="132" on="0"/>
        <pt x="364" y="-11" on="0"/>
      </contour>
      <contour>
        <pt x="217" y="41" on="1"/>
        <pt x="338" y="41" on="0"/>
        <pt x="451" y="159" on="0"/>
        <pt x="451" y="288" on="1"/>
        <pt x="451" y="418" on="0"/>
        <pt x="345" y="533" on="0"/>
        <pt x="229" y="533" on="1"/>
        <pt x="208" y="533" on="0"/>
        <pt x="159" y="529" on="0"/>
        <pt x="136" y="526" on="1"/>
        <pt x="136" y="46" on="1"/>
        <pt x="161" y="43" on="0"/>
        <pt x="197" y="41" on="0"/>
      </contour>
    </TTGlyph>
    <TTGlyph name="Dcaron" xMin="82" yMin="-15" xMax="575" yMax="929">
      <contour>
        <pt x="148" y="929" on="1"/>
        <pt x="286" y="857" on="1"/>
        <pt x="424" y="929" on="1"/>
        <pt x="424" y="874" on="1"/>
        <pt x="285" y="801" on="1"/>
        <pt x="148" y="874" on="1"/>
      </contour>
      <contour>
        <pt x="219" y="-15" on="1"/>
        <pt x="181" y="-15" on="0"/>
        <pt x="111" y="-10" on="0"/>
        <pt x="82" y="-5" on="1"/>
        <pt x="82" y="735" on="1"/>
        <pt x="129" y="742" on="0"/>
        <pt x="216" y="750" on="0"/>
        <pt x="249" y="750" on="1"/>
        <pt x="417" y="750" on="0"/>
        <pt x="575" y="565" on="0"/>
        <pt x="575" y="369" on="1"/>
        <pt x="575" y="269" on="0"/>
        <pt x="533" y="124" on="0"/>
        <pt x="446" y="30" on="0"/>
        <pt x="312" y="-15" on="0"/>
      </contour>
      <contour>
        <pt x="233" y="40" on="1"/>
        <pt x="375" y="40" on="0"/>
        <pt x="511" y="200" on="0"/>
        <pt x="511" y="369" on="1"/>
        <pt x="511" y="540" on="0"/>
        <pt x="387" y="695" on="0"/>
        <pt x="252" y="695" on="1"/>
        <pt x="226" y="695" on="0"/>
        <pt x="169" y="691" on="0"/>
        <pt x="143" y="686" on="1"/>
        <pt x="143" y="47" on="1"/>
        <pt x="170" y="43" on="0"/>
        <pt x="212" y="40" on="0"/>
      </contour>
    </TTGlyph>
    <TTGlyph name="Dcaron.sc" xMin="77" yMin="-11" xMax="513" yMax="731">
      <contour>
        <pt x="204" y="-11" on="1"/>
        <pt x="169" y="-11" on="0"/>
        <pt x="103" y="-7" on="0"/>
        <pt x="77" y="-2" on="1"/>
        <pt x="77" y="574" on="1"/>
        <pt x="118" y="579" on="0"/>
        <pt x="196" y="585" on="0"/>
        <pt x="225" y="585" on="1"/>
        <pt x="374" y="585" on="0"/>
        <pt x="513" y="442" on="0"/>
        <pt x="513" y="288" on="1"/>
        <pt x="513" y="132" on="0"/>
        <pt x="364" y="-11" on="0"/>
      </contour>
      <contour>
        <pt x="217" y="41" on="1"/>
        <pt x="338" y="41" on="0"/>
        <pt x="451" y="159" on="0"/>
        <pt x="451" y="288" on="1"/>
        <pt x="451" y="418" on="0"/>
        <pt x="345" y="533" on="0"/>
        <pt x="229" y="533" on="1"/>
        <pt x="208" y="533" on="0"/>
        <pt x="159" y="529" on="0"/>
        <pt x="136" y="526" on="1"/>
        <pt x="136" y="46" on="1"/>
        <pt x="161" y="43" on="0"/>
        <pt x="197" y="41" on="0"/>
      </contour>
      <contour>
        <pt x="136" y="682" on="1"/>
        <pt x="136" y="731" on="1"/>
        <pt x="259" y="674" on="1"/>
        <pt x="381" y="731" on="1"/>
        <pt x="381" y="682" on="1"/>
        <pt x="259" y="625" on="1"/>
      </contour>
    </TTGlyph>
    <TTGlyph name="Dcroat" xMin="1" yMin="-15" xMax="586" yMax="750">
      <contour>
        <pt x="1" y="395" on="1"/>
        <pt x="93" y="395" on="1"/>
        <pt x="93" y="735" on="1"/>
        <pt x="140" y="742" on="0"/>
        <pt x="227" y="750" on="0"/>
        <pt x="260" y="750" on="1"/>
        <pt x="428" y="750" on="0"/>
        <pt x="586" y="565" on="0"/>
        <pt x="586" y="369" on="1"/>
        <pt x="586" y="269" on="0"/>
        <pt x="544" y="124" on="0"/>
        <pt x="457" y="30" on="0"/>
        <pt x="323" y="-15" on="0"/>
        <pt x="230" y="-15" on="1"/>
        <pt x="192" y="-15" on="0"/>
        <pt x="122" y="-10" on="0"/>
        <pt x="93" y="-5" on="1"/>
        <pt x="93" y="342" on="1"/>
        <pt x="1" y="342" on="1"/>
      </contour>
      <contour>
        <pt x="244" y="40" on="1"/>
        <pt x="386" y="40" on="0"/>
        <pt x="522" y="200" on="0"/>
        <pt x="522" y="369" on="1"/>
        <pt x="522" y="540" on="0"/>
        <pt x="398" y="695" on="0"/>
        <pt x="263" y="695" on="1"/>
        <pt x="237" y="695" on="0"/>
        <pt x="180" y="691" on="0"/>
        <pt x="154" y="686" on="1"/>
        <pt x="154" y="395" on="1"/>
        <pt x="318" y="395" on="1"/>
        <pt x="318" y="342" on="1"/>
        <pt x="154" y="342" on="1"/>
        <pt x="154" y="47" on="1"/>
        <pt x="181" y="43" on="0"/>
        <pt x="223" y="40" on="0"/>
      </contour>
    </TTGlyph>
    <TTGlyph name="Dcroat.sc" xMin="8" yMin="-11" xMax="522" yMax="585">
      <contour>
        <pt x="8" y="313" on="1"/>
        <pt x="87" y="313" on="1"/>
        <pt x="87" y="574" on="1"/>
        <pt x="128" y="579" on="0"/>
        <pt x="206" y="585" on="0"/>
        <pt x="235" y="585" on="1"/>
        <pt x="383" y="585" on="0"/>
        <pt x="522" y="442" on="0"/>
        <pt x="522" y="288" on="1"/>
        <pt x="522" y="131" on="0"/>
        <pt x="374" y="-11" on="0"/>
        <pt x="211" y="-11" on="1"/>
        <pt x="177" y="-11" on="0"/>
        <pt x="113" y="-7" on="0"/>
        <pt x="87" y="-2" on="1"/>
        <pt x="87" y="263" on="1"/>
        <pt x="8" y="263" on="1"/>
      </contour>
      <contour>
        <pt x="226" y="41" on="1"/>
        <pt x="347" y="41" on="0"/>
        <pt x="460" y="159" on="0"/>
        <pt x="460" y="288" on="1"/>
        <pt x="460" y="418" on="0"/>
        <pt x="355" y="533" on="0"/>
        <pt x="239" y="533" on="1"/>
        <pt x="217" y="533" on="0"/>
        <pt x="169" y="529" on="0"/>
        <pt x="146" y="526" on="1"/>
        <pt x="146" y="313" on="1"/>
        <pt x="285" y="313" on="1"/>
        <pt x="285" y="263" on="1"/>
        <pt x="146" y="263" on="1"/>
        <pt x="146" y="46" on="1"/>
        <pt x="170" y="43" on="0"/>
        <pt x="206" y="41" on="0"/>
      </contour>
    </TTGlyph>
    <TTGlyph name="Ddotbelow" xMin="82" yMin="-172" xMax="575" yMax="750">
      <contour>
        <pt x="289" y="-172" on="1"/>
        <pt x="268" y="-172" on="0"/>
        <pt x="246" y="-152" on="0"/>
        <pt x="246" y="-129" on="1"/>
        <pt x="246" y="-106" on="0"/>
        <pt x="268" y="-86" on="0"/>
        <pt x="289" y="-86" on="1"/>
        <pt x="309" y="-86" on="0"/>
        <pt x="332" y="-106" on="0"/>
        <pt x="332" y="-129" on="1"/>
        <pt x="332" y="-152" on="0"/>
        <pt x="309" y="-172" on="0"/>
      </contour>
      <contour>
        <pt x="219" y="-15" on="1"/>
        <pt x="181" y="-15" on="0"/>
        <pt x="111" y="-10" on="0"/>
        <pt x="82" y="-5" on="1"/>
        <pt x="82" y="735" on="1"/>
        <pt x="129" y="742" on="0"/>
        <pt x="216" y="750" on="0"/>
        <pt x="249" y="750" on="1"/>
        <pt x="417" y="750" on="0"/>
        <pt x="575" y="565" on="0"/>
        <pt x="575" y="369" on="1"/>
        <pt x="575" y="269" on="0"/>
        <pt x="533" y="124" on="0"/>
        <pt x="446" y="30" on="0"/>
        <pt x="312" y="-15" on="0"/>
      </contour>
      <contour>
        <pt x="233" y="40" on="1"/>
        <pt x="375" y="40" on="0"/>
        <pt x="511" y="200" on="0"/>
        <pt x="511" y="369" on="1"/>
        <pt x="511" y="540" on="0"/>
        <pt x="387" y="695" on="0"/>
        <pt x="252" y="695" on="1"/>
        <pt x="226" y="695" on="0"/>
        <pt x="169" y="691" on="0"/>
        <pt x="143" y="686" on="1"/>
        <pt x="143" y="47" on="1"/>
        <pt x="170" y="43" on="0"/>
        <pt x="212" y="40" on="0"/>
      </contour>
    </TTGlyph>
    <TTGlyph name="Ddotbelow.sc" xMin="77" yMin="-138" xMax="513" yMax="585">
      <contour>
        <pt x="204" y="-11" on="1"/>
        <pt x="169" y="-11" on="0"/>
        <pt x="103" y="-7" on="0"/>
        <pt x="77" y="-2" on="1"/>
        <pt x="77" y="574" on="1"/>
        <pt x="118" y="579" on="0"/>
        <pt x="196" y="585" on="0"/>
        <pt x="225" y="585" on="1"/>
        <pt x="374" y="585" on="0"/>
        <pt x="513" y="442" on="0"/>
        <pt x="513" y="288" on="1"/>
        <pt x="513" y="132" on="0"/>
        <pt x="364" y="-11" on="0"/>
      </contour>
      <contour>
        <pt x="217" y="41" on="1"/>
        <pt x="338" y="41" on="0"/>
        <pt x="451" y="159" on="0"/>
        <pt x="451" y="288" on="1"/>
        <pt x="451" y="418" on="0"/>
        <pt x="345" y="533" on="0"/>
        <pt x="229" y="533" on="1"/>
        <pt x="208" y="533" on="0"/>
        <pt x="159" y="529" on="0"/>
        <pt x="136" y="526" on="1"/>
        <pt x="136" y="46" on="1"/>
        <pt x="161" y="43" on="0"/>
        <pt x="197" y="41" on="0"/>
      </contour>
      <contour>
        <pt x="262" y="-138" on="1"/>
        <pt x="243" y="-138" on="0"/>
        <pt x="223" y="-122" on="0"/>
        <pt x="223" y="-102" on="1"/>
        <pt x="223" y="-65" on="0"/>
        <pt x="262" y="-65" on="1"/>
        <pt x="280" y="-65" on="0"/>
        <pt x="301" y="-82" on="0"/>
        <pt x="301" y="-102" on="1"/>
        <pt x="301" y="-122" on="0"/>
        <pt x="280" y="-138" on="0"/>
      </contour>
    </TTGlyph>
    <TTGlyph name="Delta" xMin="22" yMin="0" xMax="603" yMax="740">
      <contour>
        <pt x="273" y="740" on="1"/>
        <pt x="352" y="740" on="1"/>
        <pt x="603" y="0" on="1"/>
        <pt x="22" y="0" on="1"/>
      </contour>
      <contour>
        <pt x="524" y="55" on="1"/>
        <pt x="312" y="678" on="1"/>
        <pt x="100" y="55" on="1"/>
      </contour>
    </TTGlyph>
    <TTGlyph name="E" xMin="82" yMin="0" xMax="492" yMax="740">
      <contour>
        <pt x="82" y="740" on="1"/>
        <pt x="483" y="740" on="1"/>
        <pt x="483" y="685" on="1"/>
        <pt x="144" y="685" on="1"/>
        <pt x="144" y="403" on="1"/>
        <pt x="453" y="403" on="1"/>
        <pt x="453" y="348" on="1"/>
        <pt x="144" y="348" on="1"/>
        <pt x="144" y="55" on="1"/>
        <pt x="492" y="55" on="1"/>
        <pt x="492" y="0" on="1"/>
        <pt x="82" y="0" on="1"/>
      </contour>
    </TTGlyph>
    <TTGlyph name="E.sc" xMin="78" yMin="0" xMax="439" yMax="577">
      <contour>
        <pt x="78" y="577" on="1"/>
        <pt x="432" y="577" on="1"/>
        <pt x="432" y="526" on="1"/>
        <pt x="138" y="526" on="1"/>
        <pt x="138" y="317" on="1"/>
        <pt x="406" y="317" on="1"/>
        <pt x="406" y="268" on="1"/>
        <pt x="138" y="268" on="1"/>
        <pt x="138" y="52" on="1"/>
        <pt x="439" y="52" on="1"/>
        <pt x="439" y="0" on="1"/>
        <pt x="78" y="0" on="1"/>
      </contour>
    </TTGlyph>
    <TTGlyph name="Eacute" xMin="82" yMin="0" xMax="492" yMax="927">
      <contour>
        <pt x="253" y="795" on="1"/>
        <pt x="329" y="927" on="1"/>
        <pt x="394" y="927" on="1"/>
        <pt x="303" y="790" on="1"/>
      </contour>
      <contour>
        <pt x="82" y="740" on="1"/>
        <pt x="483" y="740" on="1"/>
        <pt x="483" y="685" on="1"/>
        <pt x="144" y="685" on="1"/>
        <pt x="144" y="403" on="1"/>
        <pt x="453" y="403" on="1"/>
        <pt x="453" y="348" on="1"/>
        <pt x="144" y="348" on="1"/>
        <pt x="144" y="55" on="1"/>
        <pt x="492" y="55" on="1"/>
        <pt x="492" y="0" on="1"/>
        <pt x="82" y="0" on="1"/>
      </contour>
    </TTGlyph>
    <TTGlyph name="Eacute.sc" xMin="78" yMin="0" xMax="439" yMax="730">
      <contour>
        <pt x="78" y="577" on="1"/>
        <pt x="432" y="577" on="1"/>
        <pt x="432" y="526" on="1"/>
        <pt x="138" y="526" on="1"/>
        <pt x="138" y="317" on="1"/>
        <pt x="406" y="317" on="1"/>
        <pt x="406" y="268" on="1"/>
        <pt x="138" y="268" on="1"/>
        <pt x="138" y="52" on="1"/>
        <pt x="439" y="52" on="1"/>
        <pt x="439" y="0" on="1"/>
        <pt x="78" y="0" on="1"/>
      </contour>
      <contour>
        <pt x="226" y="621" on="1"/>
        <pt x="291" y="730" on="1"/>
        <pt x="354" y="730" on="1"/>
        <pt x="274" y="618" on="1"/>
      </contour>
    </TTGlyph>
    <TTGlyph name="Ebreve" xMin="82" yMin="0" xMax="492" yMax="954">
      <contour>
        <pt x="283" y="813" on="1"/>
        <pt x="209" y="813" on="0"/>
        <pt x="130" y="888" on="0"/>
        <pt x="130" y="954" on="1"/>
        <pt x="180" y="954" on="1"/>
        <pt x="180" y="906" on="0"/>
        <pt x="232" y="856" on="0"/>
        <pt x="283" y="856" on="1"/>
        <pt x="332" y="856" on="0"/>
        <pt x="385" y="906" on="0"/>
        <pt x="385" y="954" on="1"/>
        <pt x="435" y="954" on="1"/>
        <pt x="435" y="888" on="0"/>
        <pt x="355" y="813" on="0"/>
      </contour>
      <contour>
        <pt x="82" y="740" on="1"/>
        <pt x="483" y="740" on="1"/>
        <pt x="483" y="685" on="1"/>
        <pt x="144" y="685" on="1"/>
        <pt x="144" y="403" on="1"/>
        <pt x="453" y="403" on="1"/>
        <pt x="453" y="348" on="1"/>
        <pt x="144" y="348" on="1"/>
        <pt x="144" y="55" on="1"/>
        <pt x="492" y="55" on="1"/>
        <pt x="492" y="0" on="1"/>
        <pt x="82" y="0" on="1"/>
      </contour>
    </TTGlyph>
    <TTGlyph name="Ebreve.sc" xMin="78" yMin="0" xMax="439" yMax="747">
      <contour>
        <pt x="255" y="632" on="1"/>
        <pt x="189" y="632" on="0"/>
        <pt x="120" y="693" on="0"/>
        <pt x="120" y="747" on="1"/>
        <pt x="167" y="747" on="1"/>
        <pt x="167" y="670" on="0"/>
        <pt x="255" y="670" on="1"/>
        <pt x="343" y="670" on="0"/>
        <pt x="343" y="747" on="1"/>
        <pt x="390" y="747" on="1"/>
        <pt x="390" y="693" on="0"/>
        <pt x="321" y="632" on="0"/>
      </contour>
      <contour>
        <pt x="78" y="577" on="1"/>
        <pt x="432" y="577" on="1"/>
        <pt x="432" y="526" on="1"/>
        <pt x="138" y="526" on="1"/>
        <pt x="138" y="317" on="1"/>
        <pt x="406" y="317" on="1"/>
        <pt x="406" y="268" on="1"/>
        <pt x="138" y="268" on="1"/>
        <pt x="138" y="52" on="1"/>
        <pt x="439" y="52" on="1"/>
        <pt x="439" y="0" on="1"/>
        <pt x="78" y="0" on="1"/>
      </contour>
    </TTGlyph>
    <TTGlyph name="Ecaron" xMin="82" yMin="0" xMax="492" yMax="929">
      <contour>
        <pt x="148" y="929" on="1"/>
        <pt x="286" y="857" on="1"/>
        <pt x="424" y="929" on="1"/>
        <pt x="424" y="874" on="1"/>
        <pt x="285" y="801" on="1"/>
        <pt x="148" y="874" on="1"/>
      </contour>
      <contour>
        <pt x="82" y="740" on="1"/>
        <pt x="483" y="740" on="1"/>
        <pt x="483" y="685" on="1"/>
        <pt x="144" y="685" on="1"/>
        <pt x="144" y="403" on="1"/>
        <pt x="453" y="403" on="1"/>
        <pt x="453" y="348" on="1"/>
        <pt x="144" y="348" on="1"/>
        <pt x="144" y="55" on="1"/>
        <pt x="492" y="55" on="1"/>
        <pt x="492" y="0" on="1"/>
        <pt x="82" y="0" on="1"/>
      </contour>
    </TTGlyph>
    <TTGlyph name="Ecaron.sc" xMin="78" yMin="0" xMax="439" yMax="731">
      <contour>
        <pt x="78" y="577" on="1"/>
        <pt x="432" y="577" on="1"/>
        <pt x="432" y="526" on="1"/>
        <pt x="138" y="526" on="1"/>
        <pt x="138" y="317" on="1"/>
        <pt x="406" y="317" on="1"/>
        <pt x="406" y="268" on="1"/>
        <pt x="138" y="268" on="1"/>
        <pt x="138" y="52" on="1"/>
        <pt x="439" y="52" on="1"/>
        <pt x="439" y="0" on="1"/>
        <pt x="78" y="0" on="1"/>
      </contour>
      <contour>
        <pt x="136" y="682" on="1"/>
        <pt x="136" y="731" on="1"/>
        <pt x="258" y="674" on="1"/>
        <pt x="380" y="731" on="1"/>
        <pt x="380" y="682" on="1"/>
        <pt x="257" y="625" on="1"/>
      </contour>
    </TTGlyph>
    <TTGlyph name="Ecircumflex" xMin="82" yMin="0" xMax="492" yMax="942">
      <contour>
        <pt x="82" y="740" on="1"/>
        <pt x="483" y="740" on="1"/>
        <pt x="483" y="685" on="1"/>
        <pt x="144" y="685" on="1"/>
        <pt x="144" y="403" on="1"/>
        <pt x="453" y="403" on="1"/>
        <pt x="453" y="348" on="1"/>
        <pt x="144" y="348" on="1"/>
        <pt x="144" y="55" on="1"/>
        <pt x="492" y="55" on="1"/>
        <pt x="492" y="0" on="1"/>
        <pt x="82" y="0" on="1"/>
      </contour>
      <contour>
        <pt x="145" y="870" on="1"/>
        <pt x="283" y="942" on="1"/>
        <pt x="421" y="870" on="1"/>
        <pt x="421" y="814" on="1"/>
        <pt x="283" y="886" on="1"/>
        <pt x="145" y="814" on="1"/>
      </contour>
    </TTGlyph>
    <TTGlyph name="Ecircumflex.sc" xMin="78" yMin="0" xMax="439" yMax="739">
      <contour>
        <pt x="78" y="577" on="1"/>
        <pt x="432" y="577" on="1"/>
        <pt x="432" y="526" on="1"/>
        <pt x="138" y="526" on="1"/>
        <pt x="138" y="317" on="1"/>
        <pt x="406" y="317" on="1"/>
        <pt x="406" y="268" on="1"/>
        <pt x="138" y="268" on="1"/>
        <pt x="138" y="52" on="1"/>
        <pt x="439" y="52" on="1"/>
        <pt x="439" y="0" on="1"/>
        <pt x="78" y="0" on="1"/>
      </contour>
      <contour>
        <pt x="133" y="682" on="1"/>
        <pt x="256" y="739" on="1"/>
        <pt x="378" y="682" on="1"/>
        <pt x="378" y="633" on="1"/>
        <pt x="256" y="689" on="1"/>
        <pt x="133" y="633" on="1"/>
      </contour>
    </TTGlyph>
    <TTGlyph name="Edblgrave" xMin="82" yMin="0" xMax="492" yMax="925">
      <contour>
        <pt x="82" y="740" on="1"/>
        <pt x="483" y="740" on="1"/>
        <pt x="483" y="685" on="1"/>
        <pt x="144" y="685" on="1"/>
        <pt x="144" y="403" on="1"/>
        <pt x="453" y="403" on="1"/>
        <pt x="453" y="348" on="1"/>
        <pt x="144" y="348" on="1"/>
        <pt x="144" y="55" on="1"/>
        <pt x="492" y="55" on="1"/>
        <pt x="492" y="0" on="1"/>
        <pt x="82" y="0" on="1"/>
      </contour>
      <contour>
        <pt x="191" y="788" on="1"/>
        <pt x="100" y="925" on="1"/>
        <pt x="160" y="925" on="1"/>
        <pt x="236" y="801" on="1"/>
      </contour>
      <contour>
        <pt x="332" y="788" on="1"/>
        <pt x="240" y="925" on="1"/>
        <pt x="301" y="925" on="1"/>
        <pt x="377" y="801" on="1"/>
      </contour>
    </TTGlyph>
    <TTGlyph name="Edblgrave.sc" xMin="78" yMin="0" xMax="439" yMax="728">
      <contour>
        <pt x="78" y="577" on="1"/>
        <pt x="432" y="577" on="1"/>
        <pt x="432" y="526" on="1"/>
        <pt x="138" y="526" on="1"/>
        <pt x="138" y="317" on="1"/>
        <pt x="406" y="317" on="1"/>
        <pt x="406" y="268" on="1"/>
        <pt x="138" y="268" on="1"/>
        <pt x="138" y="52" on="1"/>
        <pt x="439" y="52" on="1"/>
        <pt x="439" y="0" on="1"/>
        <pt x="78" y="0" on="1"/>
      </contour>
      <contour>
        <pt x="93" y="728" on="1"/>
        <pt x="151" y="728" on="1"/>
        <pt x="216" y="626" on="1"/>
        <pt x="173" y="615" on="1"/>
      </contour>
      <contour>
        <pt x="217" y="728" on="1"/>
        <pt x="275" y="728" on="1"/>
        <pt x="340" y="626" on="1"/>
        <pt x="298" y="615" on="1"/>
      </contour>
    </TTGlyph>
    <TTGlyph name="Edieresis" xMin="82" yMin="0" xMax="492" yMax="900">
      <contour>
        <pt x="179" y="815" on="1"/>
        <pt x="159" y="815" on="0"/>
        <pt x="137" y="836" on="0"/>
        <pt x="137" y="858" on="1"/>
        <pt x="137" y="880" on="0"/>
        <pt x="159" y="900" on="0"/>
        <pt x="179" y="900" on="1"/>
        <pt x="199" y="900" on="0"/>
        <pt x="223" y="880" on="0"/>
        <pt x="223" y="858" on="1"/>
        <pt x="223" y="835" on="0"/>
        <pt x="199" y="815" on="0"/>
      </contour>
      <contour>
        <pt x="385" y="815" on="1"/>
        <pt x="365" y="815" on="0"/>
        <pt x="342" y="836" on="0"/>
        <pt x="342" y="858" on="1"/>
        <pt x="342" y="880" on="0"/>
        <pt x="365" y="900" on="0"/>
        <pt x="385" y="900" on="1"/>
        <pt x="404" y="900" on="0"/>
        <pt x="428" y="880" on="0"/>
        <pt x="428" y="858" on="1"/>
        <pt x="428" y="835" on="0"/>
        <pt x="404" y="815" on="0"/>
      </contour>
      <contour>
        <pt x="82" y="740" on="1"/>
        <pt x="483" y="740" on="1"/>
        <pt x="483" y="685" on="1"/>
        <pt x="144" y="685" on="1"/>
        <pt x="144" y="403" on="1"/>
        <pt x="453" y="403" on="1"/>
        <pt x="453" y="348" on="1"/>
        <pt x="144" y="348" on="1"/>
        <pt x="144" y="55" on="1"/>
        <pt x="492" y="55" on="1"/>
        <pt x="492" y="0" on="1"/>
        <pt x="82" y="0" on="1"/>
      </contour>
    </TTGlyph>
    <TTGlyph name="Edieresis.sc" xMin="78" yMin="0" xMax="439" yMax="712">
      <contour>
        <pt x="164" y="635" on="1"/>
        <pt x="123" y="635" on="0"/>
        <pt x="123" y="673" on="1"/>
        <pt x="123" y="712" on="0"/>
        <pt x="164" y="712" on="1"/>
        <pt x="182" y="712" on="0"/>
        <pt x="204" y="693" on="0"/>
        <pt x="204" y="673" on="1"/>
        <pt x="204" y="653" on="0"/>
        <pt x="182" y="635" on="0"/>
      </contour>
      <contour>
        <pt x="347" y="635" on="1"/>
        <pt x="307" y="635" on="0"/>
        <pt x="307" y="673" on="1"/>
        <pt x="307" y="712" on="0"/>
        <pt x="347" y="712" on="1"/>
        <pt x="365" y="712" on="0"/>
        <pt x="388" y="693" on="0"/>
        <pt x="388" y="673" on="1"/>
        <pt x="388" y="653" on="0"/>
        <pt x="365" y="635" on="0"/>
      </contour>
      <contour>
        <pt x="78" y="577" on="1"/>
        <pt x="432" y="577" on="1"/>
        <pt x="432" y="526" on="1"/>
        <pt x="138" y="526" on="1"/>
        <pt x="138" y="317" on="1"/>
        <pt x="406" y="317" on="1"/>
        <pt x="406" y="268" on="1"/>
        <pt x="138" y="268" on="1"/>
        <pt x="138" y="52" on="1"/>
        <pt x="439" y="52" on="1"/>
        <pt x="439" y="0" on="1"/>
        <pt x="78" y="0" on="1"/>
      </contour>
    </TTGlyph>
    <TTGlyph name="Edotaccent" xMin="82" yMin="0" xMax="492" yMax="890">
      <contour>
        <pt x="282" y="805" on="1"/>
        <pt x="239" y="805" on="0"/>
        <pt x="239" y="847" on="1"/>
        <pt x="239" y="890" on="0"/>
        <pt x="282" y="890" on="1"/>
        <pt x="302" y="890" on="0"/>
        <pt x="325" y="869" on="0"/>
        <pt x="325" y="847" on="1"/>
        <pt x="325" y="825" on="0"/>
        <pt x="302" y="805" on="0"/>
      </contour>
      <contour>
        <pt x="82" y="740" on="1"/>
        <pt x="483" y="740" on="1"/>
        <pt x="483" y="685" on="1"/>
        <pt x="144" y="685" on="1"/>
        <pt x="144" y="403" on="1"/>
        <pt x="453" y="403" on="1"/>
        <pt x="453" y="348" on="1"/>
        <pt x="144" y="348" on="1"/>
        <pt x="144" y="55" on="1"/>
        <pt x="492" y="55" on="1"/>
        <pt x="492" y="0" on="1"/>
        <pt x="82" y="0" on="1"/>
      </contour>
    </TTGlyph>
    <TTGlyph name="Edotaccent.sc" xMin="78" yMin="0" xMax="439" yMax="704">
      <contour>
        <pt x="254" y="628" on="1"/>
        <pt x="235" y="628" on="0"/>
        <pt x="215" y="646" on="0"/>
        <pt x="215" y="667" on="1"/>
        <pt x="215" y="704" on="0"/>
        <pt x="254" y="704" on="1"/>
        <pt x="294" y="704" on="0"/>
        <pt x="294" y="667" on="1"/>
        <pt x="294" y="646" on="0"/>
        <pt x="273" y="628" on="0"/>
      </contour>
      <contour>
        <pt x="78" y="577" on="1"/>
        <pt x="432" y="577" on="1"/>
        <pt x="432" y="526" on="1"/>
        <pt x="138" y="526" on="1"/>
        <pt x="138" y="317" on="1"/>
        <pt x="406" y="317" on="1"/>
        <pt x="406" y="268" on="1"/>
        <pt x="138" y="268" on="1"/>
        <pt x="138" y="52" on="1"/>
        <pt x="439" y="52" on="1"/>
        <pt x="439" y="0" on="1"/>
        <pt x="78" y="0" on="1"/>
      </contour>
    </TTGlyph>
    <TTGlyph name="Edotbelow" xMin="82" yMin="-172" xMax="492" yMax="740">
      <contour>
        <pt x="82" y="740" on="1"/>
        <pt x="483" y="740" on="1"/>
        <pt x="483" y="685" on="1"/>
        <pt x="144" y="685" on="1"/>
        <pt x="144" y="403" on="1"/>
        <pt x="453" y="403" on="1"/>
        <pt x="453" y="348" on="1"/>
        <pt x="144" y="348" on="1"/>
        <pt x="144" y="55" on="1"/>
        <pt x="492" y="55" on="1"/>
        <pt x="492" y="0" on="1"/>
        <pt x="82" y="0" on="1"/>
      </contour>
      <contour>
        <pt x="300" y="-172" on="1"/>
        <pt x="279" y="-172" on="0"/>
        <pt x="257" y="-152" on="0"/>
        <pt x="257" y="-129" on="1"/>
        <pt x="257" y="-106" on="0"/>
        <pt x="279" y="-86" on="0"/>
        <pt x="300" y="-86" on="1"/>
        <pt x="320" y="-86" on="0"/>
        <pt x="343" y="-106" on="0"/>
        <pt x="343" y="-129" on="1"/>
        <pt x="343" y="-152" on="0"/>
        <pt x="320" y="-172" on="0"/>
      </contour>
    </TTGlyph>
    <TTGlyph name="Edotbelow.sc" xMin="78" yMin="-138" xMax="439" yMax="577">
      <contour>
        <pt x="269" y="-138" on="1"/>
        <pt x="250" y="-138" on="0"/>
        <pt x="230" y="-122" on="0"/>
        <pt x="230" y="-102" on="1"/>
        <pt x="230" y="-65" on="0"/>
        <pt x="269" y="-65" on="1"/>
        <pt x="287" y="-65" on="0"/>
        <pt x="309" y="-82" on="0"/>
        <pt x="309" y="-102" on="1"/>
        <pt x="309" y="-122" on="0"/>
        <pt x="287" y="-138" on="0"/>
      </contour>
      <contour>
        <pt x="78" y="577" on="1"/>
        <pt x="432" y="577" on="1"/>
        <pt x="432" y="526" on="1"/>
        <pt x="138" y="526" on="1"/>
        <pt x="138" y="317" on="1"/>
        <pt x="406" y="317" on="1"/>
        <pt x="406" y="268" on="1"/>
        <pt x="138" y="268" on="1"/>
        <pt x="138" y="52" on="1"/>
        <pt x="439" y="52" on="1"/>
        <pt x="439" y="0" on="1"/>
        <pt x="78" y="0" on="1"/>
      </contour>
    </TTGlyph>
    <TTGlyph name="Egrave" xMin="82" yMin="0" xMax="492" yMax="927">
      <contour>
        <pt x="256" y="790" on="1"/>
        <pt x="165" y="927" on="1"/>
        <pt x="230" y="927" on="1"/>
        <pt x="306" y="803" on="1"/>
      </contour>
      <contour>
        <pt x="82" y="740" on="1"/>
        <pt x="483" y="740" on="1"/>
        <pt x="483" y="685" on="1"/>
        <pt x="144" y="685" on="1"/>
        <pt x="144" y="403" on="1"/>
        <pt x="453" y="403" on="1"/>
        <pt x="453" y="348" on="1"/>
        <pt x="144" y="348" on="1"/>
        <pt x="144" y="55" on="1"/>
        <pt x="492" y="55" on="1"/>
        <pt x="492" y="0" on="1"/>
        <pt x="82" y="0" on="1"/>
      </contour>
    </TTGlyph>
    <TTGlyph name="Egrave.sc" xMin="78" yMin="0" xMax="439" yMax="730">
      <contour>
        <pt x="78" y="577" on="1"/>
        <pt x="432" y="577" on="1"/>
        <pt x="432" y="526" on="1"/>
        <pt x="138" y="526" on="1"/>
        <pt x="138" y="317" on="1"/>
        <pt x="406" y="317" on="1"/>
        <pt x="406" y="268" on="1"/>
        <pt x="138" y="268" on="1"/>
        <pt x="138" y="52" on="1"/>
        <pt x="439" y="52" on="1"/>
        <pt x="439" y="0" on="1"/>
        <pt x="78" y="0" on="1"/>
      </contour>
      <contour>
        <pt x="151" y="730" on="1"/>
        <pt x="213" y="730" on="1"/>
        <pt x="278" y="627" on="1"/>
        <pt x="231" y="618" on="1"/>
      </contour>
    </TTGlyph>
    <TTGlyph name="Einvertedbreve" xMin="82" yMin="0" xMax="492" yMax="961">
      <contour>
        <pt x="82" y="740" on="1"/>
        <pt x="483" y="740" on="1"/>
        <pt x="483" y="685" on="1"/>
        <pt x="144" y="685" on="1"/>
        <pt x="144" y="403" on="1"/>
        <pt x="453" y="403" on="1"/>
        <pt x="453" y="348" on="1"/>
        <pt x="144" y="348" on="1"/>
        <pt x="144" y="55" on="1"/>
        <pt x="492" y="55" on="1"/>
        <pt x="492" y="0" on="1"/>
        <pt x="82" y="0" on="1"/>
      </contour>
      <contour>
        <pt x="385" y="821" on="1"/>
        <pt x="385" y="868" on="0"/>
        <pt x="332" y="919" on="0"/>
        <pt x="282" y="919" on="1"/>
        <pt x="232" y="919" on="0"/>
        <pt x="179" y="868" on="0"/>
        <pt x="179" y="821" on="1"/>
        <pt x="129" y="821" on="1"/>
        <pt x="129" y="887" on="0"/>
        <pt x="209" y="961" on="0"/>
        <pt x="282" y="961" on="1"/>
        <pt x="355" y="961" on="0"/>
        <pt x="435" y="887" on="0"/>
        <pt x="435" y="821" on="1"/>
      </contour>
    </TTGlyph>
    <TTGlyph name="Einvertedbreve.sc" xMin="78" yMin="0" xMax="439" yMax="752">
      <contour>
        <pt x="119" y="639" on="1"/>
        <pt x="119" y="692" on="0"/>
        <pt x="189" y="752" on="0"/>
        <pt x="255" y="752" on="1"/>
        <pt x="320" y="752" on="0"/>
        <pt x="390" y="692" on="0"/>
        <pt x="390" y="639" on="1"/>
        <pt x="343" y="639" on="1"/>
        <pt x="343" y="715" on="0"/>
        <pt x="255" y="715" on="1"/>
        <pt x="166" y="715" on="0"/>
        <pt x="166" y="639" on="1"/>
      </contour>
      <contour>
        <pt x="78" y="577" on="1"/>
        <pt x="432" y="577" on="1"/>
        <pt x="432" y="526" on="1"/>
        <pt x="138" y="526" on="1"/>
        <pt x="138" y="317" on="1"/>
        <pt x="406" y="317" on="1"/>
        <pt x="406" y="268" on="1"/>
        <pt x="138" y="268" on="1"/>
        <pt x="138" y="52" on="1"/>
        <pt x="439" y="52" on="1"/>
        <pt x="439" y="0" on="1"/>
        <pt x="78" y="0" on="1"/>
      </contour>
    </TTGlyph>
    <TTGlyph name="Emacron" xMin="82" yMin="0" xMax="492" yMax="891">
      <contour>
        <pt x="149" y="891" on="1"/>
        <pt x="403" y="891" on="1"/>
        <pt x="403" y="841" on="1"/>
        <pt x="149" y="841" on="1"/>
      </contour>
      <contour>
        <pt x="82" y="740" on="1"/>
        <pt x="483" y="740" on="1"/>
        <pt x="483" y="685" on="1"/>
        <pt x="144" y="685" on="1"/>
        <pt x="144" y="403" on="1"/>
        <pt x="453" y="403" on="1"/>
        <pt x="453" y="348" on="1"/>
        <pt x="144" y="348" on="1"/>
        <pt x="144" y="55" on="1"/>
        <pt x="492" y="55" on="1"/>
        <pt x="492" y="0" on="1"/>
        <pt x="82" y="0" on="1"/>
      </contour>
    </TTGlyph>
    <TTGlyph name="Emacron.sc" xMin="78" yMin="0" xMax="439" yMax="701">
      <contour>
        <pt x="78" y="577" on="1"/>
        <pt x="432" y="577" on="1"/>
        <pt x="432" y="526" on="1"/>
        <pt x="138" y="526" on="1"/>
        <pt x="138" y="317" on="1"/>
        <pt x="406" y="317" on="1"/>
        <pt x="406" y="268" on="1"/>
        <pt x="138" y="268" on="1"/>
        <pt x="138" y="52" on="1"/>
        <pt x="439" y="52" on="1"/>
        <pt x="439" y="0" on="1"/>
        <pt x="78" y="0" on="1"/>
      </contour>
      <contour>
        <pt x="136" y="701" on="1"/>
        <pt x="364" y="701" on="1"/>
        <pt x="364" y="656" on="1"/>
        <pt x="136" y="656" on="1"/>
      </contour>
    </TTGlyph>
    <TTGlyph name="Eng" xMin="82" yMin="-183" xMax="607" yMax="740">
      <contour>
        <pt x="471" y="-170" on="1"/>
        <pt x="494" y="-123" on="0"/>
        <pt x="530" y="-27" on="0"/>
        <pt x="538" y="14" on="1"/>
        <pt x="195" y="549" on="1"/>
        <pt x="145" y="636" on="1"/>
        <pt x="140" y="636" on="1"/>
        <pt x="140" y="0" on="1"/>
        <pt x="82" y="0" on="1"/>
        <pt x="82" y="740" on="1"/>
        <pt x="140" y="740" on="1"/>
        <pt x="494" y="189" on="1"/>
        <pt x="544" y="103" on="1"/>
        <pt x="549" y="104" on="1"/>
        <pt x="549" y="740" on="1"/>
        <pt x="607" y="740" on="1"/>
        <pt x="607" y="66" on="1"/>
        <pt x="607" y="42" on="0"/>
        <pt x="593" y="-20" on="0"/>
        <pt x="569" y="-88" on="0"/>
        <pt x="536" y="-155" on="0"/>
        <pt x="517" y="-183" on="1"/>
      </contour>
    </TTGlyph>
    <TTGlyph name="Eng.sc" xMin="78" yMin="-146" xMax="537" yMax="577">
      <contour>
        <pt x="415" y="-133" on="1"/>
        <pt x="435" y="-95" on="0"/>
        <pt x="465" y="-18" on="0"/>
        <pt x="472" y="14" on="1"/>
        <pt x="182" y="411" on="1"/>
        <pt x="138" y="478" on="1"/>
        <pt x="133" y="478" on="1"/>
        <pt x="133" y="0" on="1"/>
        <pt x="78" y="0" on="1"/>
        <pt x="78" y="577" on="1"/>
        <pt x="133" y="577" on="1"/>
        <pt x="433" y="166" on="1"/>
        <pt x="477" y="98" on="1"/>
        <pt x="482" y="99" on="1"/>
        <pt x="482" y="577" on="1"/>
        <pt x="537" y="577" on="1"/>
        <pt x="537" y="57" on="1"/>
        <pt x="537" y="38" on="0"/>
        <pt x="525" y="-13" on="0"/>
        <pt x="503" y="-67" on="0"/>
        <pt x="474" y="-122" on="0"/>
        <pt x="458" y="-146" on="1"/>
      </contour>
    </TTGlyph>
    <TTGlyph name="Eogonek" xMin="82" yMin="-220" xMax="492" yMax="740">
      <contour>
        <pt x="82" y="740" on="1"/>
        <pt x="483" y="740" on="1"/>
        <pt x="483" y="685" on="1"/>
        <pt x="144" y="685" on="1"/>
        <pt x="144" y="403" on="1"/>
        <pt x="453" y="403" on="1"/>
        <pt x="453" y="348" on="1"/>
        <pt x="144" y="348" on="1"/>
        <pt x="144" y="55" on="1"/>
        <pt x="492" y="55" on="1"/>
        <pt x="492" y="-18" on="1"/>
        <pt x="440" y="-42" on="0"/>
        <pt x="392" y="-100" on="0"/>
        <pt x="392" y="-132" on="1"/>
        <pt x="392" y="-175" on="0"/>
        <pt x="439" y="-175" on="1"/>
        <pt x="465" y="-175" on="0"/>
        <pt x="492" y="-164" on="1"/>
        <pt x="492" y="-208" on="1"/>
        <pt x="465" y="-220" on="0"/>
        <pt x="433" y="-220" on="1"/>
        <pt x="389" y="-220" on="0"/>
        <pt x="343" y="-178" on="0"/>
        <pt x="343" y="-136" on="1"/>
        <pt x="343" y="-97" on="0"/>
        <pt x="390" y="-32" on="0"/>
        <pt x="441" y="0" on="1"/>
        <pt x="82" y="0" on="1"/>
      </contour>
    </TTGlyph>
    <TTGlyph name="Eogonek.sc" xMin="78" yMin="-172" xMax="439" yMax="577">
      <contour>
        <pt x="386" y="-172" on="1"/>
        <pt x="306" y="-172" on="0"/>
        <pt x="306" y="-105" on="1"/>
        <pt x="306" y="-75" on="0"/>
        <pt x="344" y="-26" on="0"/>
        <pt x="388" y="0" on="1"/>
        <pt x="78" y="0" on="1"/>
        <pt x="78" y="577" on="1"/>
        <pt x="432" y="577" on="1"/>
        <pt x="432" y="526" on="1"/>
        <pt x="138" y="526" on="1"/>
        <pt x="138" y="317" on="1"/>
        <pt x="406" y="317" on="1"/>
        <pt x="406" y="268" on="1"/>
        <pt x="138" y="268" on="1"/>
        <pt x="138" y="52" on="1"/>
        <pt x="439" y="52" on="1"/>
        <pt x="439" y="-13" on="1"/>
        <pt x="396" y="-29" on="0"/>
        <pt x="352" y="-75" on="0"/>
        <pt x="352" y="-100" on="1"/>
        <pt x="352" y="-132" on="0"/>
        <pt x="391" y="-132" on="1"/>
        <pt x="403" y="-132" on="0"/>
        <pt x="428" y="-127" on="0"/>
        <pt x="438" y="-123" on="1"/>
        <pt x="438" y="-162" on="1"/>
        <pt x="426" y="-167" on="0"/>
        <pt x="400" y="-172" on="0"/>
      </contour>
    </TTGlyph>
    <TTGlyph name="Eth" xMin="1" yMin="-15" xMax="586" yMax="750">
      <contour>
        <pt x="1" y="395" on="1"/>
        <pt x="93" y="395" on="1"/>
        <pt x="93" y="735" on="1"/>
        <pt x="140" y="742" on="0"/>
        <pt x="227" y="750" on="0"/>
        <pt x="260" y="750" on="1"/>
        <pt x="428" y="750" on="0"/>
        <pt x="586" y="565" on="0"/>
        <pt x="586" y="369" on="1"/>
        <pt x="586" y="269" on="0"/>
        <pt x="544" y="124" on="0"/>
        <pt x="457" y="30" on="0"/>
        <pt x="323" y="-15" on="0"/>
        <pt x="230" y="-15" on="1"/>
        <pt x="192" y="-15" on="0"/>
        <pt x="122" y="-10" on="0"/>
        <pt x="93" y="-5" on="1"/>
        <pt x="93" y="342" on="1"/>
        <pt x="1" y="342" on="1"/>
      </contour>
      <contour>
        <pt x="244" y="40" on="1"/>
        <pt x="386" y="40" on="0"/>
        <pt x="522" y="200" on="0"/>
        <pt x="522" y="369" on="1"/>
        <pt x="522" y="540" on="0"/>
        <pt x="398" y="695" on="0"/>
        <pt x="263" y="695" on="1"/>
        <pt x="237" y="695" on="0"/>
        <pt x="180" y="691" on="0"/>
        <pt x="154" y="686" on="1"/>
        <pt x="154" y="395" on="1"/>
        <pt x="318" y="395" on="1"/>
        <pt x="318" y="342" on="1"/>
        <pt x="154" y="342" on="1"/>
        <pt x="154" y="47" on="1"/>
        <pt x="181" y="43" on="0"/>
        <pt x="223" y="40" on="0"/>
      </contour>
    </TTGlyph>
    <TTGlyph name="Eth.sc" xMin="8" yMin="-11" xMax="522" yMax="585">
      <contour>
        <pt x="8" y="312" on="1"/>
        <pt x="86" y="312" on="1"/>
        <pt x="86" y="574" on="1"/>
        <pt x="128" y="579" on="0"/>
        <pt x="206" y="585" on="0"/>
        <pt x="235" y="585" on="1"/>
        <pt x="383" y="585" on="0"/>
        <pt x="522" y="442" on="0"/>
        <pt x="522" y="288" on="1"/>
        <pt x="522" y="131" on="0"/>
        <pt x="374" y="-11" on="0"/>
        <pt x="211" y="-11" on="1"/>
        <pt x="177" y="-11" on="0"/>
        <pt x="112" y="-7" on="0"/>
        <pt x="86" y="-2" on="1"/>
        <pt x="86" y="263" on="1"/>
        <pt x="8" y="263" on="1"/>
      </contour>
      <contour>
        <pt x="226" y="41" on="1"/>
        <pt x="347" y="41" on="0"/>
        <pt x="460" y="159" on="0"/>
        <pt x="460" y="288" on="1"/>
        <pt x="460" y="418" on="0"/>
        <pt x="354" y="533" on="0"/>
        <pt x="239" y="533" on="1"/>
        <pt x="217" y="533" on="0"/>
        <pt x="169" y="529" on="0"/>
        <pt x="146" y="526" on="1"/>
        <pt x="146" y="312" on="1"/>
        <pt x="285" y="312" on="1"/>
        <pt x="285" y="263" on="1"/>
        <pt x="146" y="263" on="1"/>
        <pt x="146" y="46" on="1"/>
        <pt x="169" y="43" on="0"/>
        <pt x="206" y="41" on="0"/>
      </contour>
    </TTGlyph>
    <TTGlyph name="Etilde" xMin="82" yMin="0" xMax="492" yMax="915">
      <contour>
        <pt x="120" y="852" on="1"/>
        <pt x="140" y="879" on="0"/>
        <pt x="195" y="915" on="0"/>
        <pt x="222" y="915" on="1"/>
        <pt x="243" y="915" on="0"/>
        <pt x="277" y="902" on="0"/>
        <pt x="309" y="885" on="0"/>
        <pt x="342" y="872" on="0"/>
        <pt x="360" y="872" on="1"/>
        <pt x="378" y="872" on="0"/>
        <pt x="412" y="893" on="0"/>
        <pt x="426" y="912" on="1"/>
        <pt x="452" y="890" on="1"/>
        <pt x="435" y="860" on="0"/>
        <pt x="380" y="824" on="0"/>
        <pt x="351" y="824" on="1"/>
        <pt x="331" y="824" on="0"/>
        <pt x="297" y="837" on="0"/>
        <pt x="265" y="853" on="0"/>
        <pt x="233" y="866" on="0"/>
        <pt x="215" y="866" on="1"/>
        <pt x="196" y="866" on="0"/>
        <pt x="160" y="845" on="0"/>
        <pt x="144" y="828" on="1"/>
      </contour>
      <contour>
        <pt x="82" y="740" on="1"/>
        <pt x="483" y="740" on="1"/>
        <pt x="483" y="685" on="1"/>
        <pt x="144" y="685" on="1"/>
        <pt x="144" y="403" on="1"/>
        <pt x="453" y="403" on="1"/>
        <pt x="453" y="348" on="1"/>
        <pt x="144" y="348" on="1"/>
        <pt x="144" y="55" on="1"/>
        <pt x="492" y="55" on="1"/>
        <pt x="492" y="0" on="1"/>
        <pt x="82" y="0" on="1"/>
      </contour>
    </TTGlyph>
    <TTGlyph name="Etilde.sc" xMin="78" yMin="0" xMax="439" yMax="719">
      <contour>
        <pt x="112" y="665" on="1"/>
        <pt x="130" y="689" on="0"/>
        <pt x="179" y="719" on="0"/>
        <pt x="203" y="719" on="1"/>
        <pt x="221" y="719" on="0"/>
        <pt x="251" y="709" on="0"/>
        <pt x="280" y="697" on="0"/>
        <pt x="308" y="687" on="0"/>
        <pt x="324" y="687" on="1"/>
        <pt x="357" y="687" on="0"/>
        <pt x="385" y="718" on="1"/>
        <pt x="407" y="700" on="1"/>
        <pt x="391" y="673" on="0"/>
        <pt x="341" y="642" on="0"/>
        <pt x="316" y="642" on="1"/>
        <pt x="299" y="642" on="0"/>
        <pt x="268" y="653" on="0"/>
        <pt x="240" y="665" on="0"/>
        <pt x="211" y="676" on="0"/>
        <pt x="195" y="676" on="1"/>
        <pt x="178" y="676" on="0"/>
        <pt x="146" y="659" on="0"/>
        <pt x="132" y="645" on="1"/>
      </contour>
      <contour>
        <pt x="78" y="577" on="1"/>
        <pt x="432" y="577" on="1"/>
        <pt x="432" y="526" on="1"/>
        <pt x="138" y="526" on="1"/>
        <pt x="138" y="317" on="1"/>
        <pt x="406" y="317" on="1"/>
        <pt x="406" y="268" on="1"/>
        <pt x="138" y="268" on="1"/>
        <pt x="138" y="52" on="1"/>
        <pt x="439" y="52" on="1"/>
        <pt x="439" y="0" on="1"/>
        <pt x="78" y="0" on="1"/>
      </contour>
    </TTGlyph>
    <TTGlyph name="Euro" xMin="41" yMin="-10" xMax="500" yMax="749">
      <contour>
        <pt x="41" y="476" on="1"/>
        <pt x="122" y="476" on="1"/>
        <pt x="139" y="620" on="0"/>
        <pt x="286" y="749" on="0"/>
        <pt x="427" y="749" on="1"/>
        <pt x="451" y="749" on="0"/>
        <pt x="483" y="745" on="0"/>
        <pt x="500" y="743" on="1"/>
        <pt x="480" y="690" on="1"/>
        <pt x="471" y="691" on="0"/>
        <pt x="450" y="692" on="0"/>
        <pt x="435" y="692" on="1"/>
        <pt x="376" y="692" on="0"/>
        <pt x="290" y="669" on="0"/>
        <pt x="229" y="617" on="0"/>
        <pt x="193" y="535" on="0"/>
        <pt x="186" y="476" on="1"/>
        <pt x="424" y="476" on="1"/>
        <pt x="405" y="430" on="1"/>
        <pt x="181" y="430" on="1"/>
        <pt x="180" y="416" on="0"/>
        <pt x="180" y="385" on="0"/>
        <pt x="180" y="369" on="1"/>
        <pt x="180" y="353" on="0"/>
        <pt x="180" y="323" on="0"/>
        <pt x="181" y="309" on="1"/>
        <pt x="390" y="309" on="1"/>
        <pt x="371" y="263" on="1"/>
        <pt x="186" y="263" on="1"/>
        <pt x="202" y="149" on="0"/>
        <pt x="318" y="46" on="0"/>
        <pt x="431" y="46" on="1"/>
        <pt x="441" y="46" on="0"/>
        <pt x="470" y="49" on="0"/>
        <pt x="486" y="51" on="1"/>
        <pt x="486" y="-6" on="1"/>
        <pt x="467" y="-10" on="0"/>
        <pt x="429" y="-10" on="1"/>
        <pt x="290" y="-9" on="0"/>
        <pt x="141" y="123" on="0"/>
        <pt x="122" y="263" on="1"/>
        <pt x="41" y="263" on="1"/>
        <pt x="41" y="309" on="1"/>
        <pt x="118" y="309" on="1"/>
        <pt x="117" y="323" on="0"/>
        <pt x="116" y="353" on="0"/>
        <pt x="116" y="369" on="1"/>
        <pt x="116" y="385" on="0"/>
        <pt x="116" y="415" on="0"/>
        <pt x="117" y="430" on="1"/>
        <pt x="41" y="430" on="1"/>
      </contour>
    </TTGlyph>
    <TTGlyph name="Euro.tab" xMin="31" yMin="-10" xMax="487" yMax="749">
      <contour>
        <pt x="31" y="476" on="1"/>
        <pt x="112" y="476" on="1"/>
        <pt x="121" y="548" on="0"/>
        <pt x="165" y="652" on="0"/>
        <pt x="239" y="718" on="0"/>
        <pt x="344" y="749" on="0"/>
        <pt x="414" y="749" on="1"/>
        <pt x="439" y="749" on="0"/>
        <pt x="470" y="745" on="0"/>
        <pt x="487" y="743" on="1"/>
        <pt x="468" y="690" on="1"/>
        <pt x="459" y="691" on="0"/>
        <pt x="437" y="692" on="0"/>
        <pt x="423" y="692" on="1"/>
        <pt x="366" y="692" on="0"/>
        <pt x="280" y="668" on="0"/>
        <pt x="220" y="617" on="0"/>
        <pt x="183" y="534" on="0"/>
        <pt x="176" y="476" on="1"/>
        <pt x="412" y="476" on="1"/>
        <pt x="393" y="430" on="1"/>
        <pt x="170" y="430" on="1"/>
        <pt x="168" y="417" on="0"/>
        <pt x="168" y="384" on="0"/>
        <pt x="168" y="369" on="1"/>
        <pt x="168" y="354" on="0"/>
        <pt x="168" y="323" on="0"/>
        <pt x="170" y="309" on="1"/>
        <pt x="378" y="309" on="1"/>
        <pt x="359" y="263" on="1"/>
        <pt x="176" y="263" on="1"/>
        <pt x="192" y="149" on="0"/>
        <pt x="308" y="46" on="0"/>
        <pt x="419" y="46" on="1"/>
        <pt x="429" y="46" on="0"/>
        <pt x="458" y="49" on="0"/>
        <pt x="474" y="51" on="1"/>
        <pt x="474" y="-6" on="1"/>
        <pt x="455" y="-10" on="0"/>
        <pt x="416" y="-10" on="1"/>
        <pt x="278" y="-9" on="0"/>
        <pt x="131" y="122" on="0"/>
        <pt x="112" y="263" on="1"/>
        <pt x="31" y="263" on="1"/>
        <pt x="31" y="309" on="1"/>
        <pt x="107" y="309" on="1"/>
        <pt x="106" y="323" on="0"/>
        <pt x="105" y="354" on="0"/>
        <pt x="105" y="369" on="1"/>
        <pt x="105" y="385" on="0"/>
        <pt x="106" y="416" on="0"/>
        <pt x="107" y="430" on="1"/>
        <pt x="31" y="430" on="1"/>
      </contour>
    </TTGlyph>
    <TTGlyph name="F" xMin="82" yMin="0" xMax="469" yMax="740">
      <contour>
        <pt x="82" y="740" on="1"/>
        <pt x="469" y="740" on="1"/>
        <pt x="469" y="685" on="1"/>
        <pt x="144" y="685" on="1"/>
        <pt x="144" y="399" on="1"/>
        <pt x="446" y="399" on="1"/>
        <pt x="446" y="344" on="1"/>
        <pt x="144" y="344" on="1"/>
        <pt x="144" y="0" on="1"/>
        <pt x="82" y="0" on="1"/>
      </contour>
    </TTGlyph>
    <TTGlyph name="F.sc" xMin="78" yMin="0" xMax="421" yMax="577">
      <contour>
        <pt x="78" y="577" on="1"/>
        <pt x="421" y="577" on="1"/>
        <pt x="421" y="525" on="1"/>
        <pt x="138" y="525" on="1"/>
        <pt x="138" y="314" on="1"/>
        <pt x="399" y="314" on="1"/>
        <pt x="399" y="263" on="1"/>
        <pt x="138" y="263" on="1"/>
        <pt x="138" y="0" on="1"/>
        <pt x="78" y="0" on="1"/>
      </contour>
    </TTGlyph>
    <TTGlyph name="F_B.sc" xMin="78" yMin="-8" xMax="918" yMax="585">
      <contour>
        <pt x="78" y="577" on="1"/>
        <pt x="421" y="577" on="1"/>
        <pt x="421" y="525" on="1"/>
        <pt x="138" y="525" on="1"/>
        <pt x="138" y="314" on="1"/>
        <pt x="399" y="314" on="1"/>
        <pt x="399" y="263" on="1"/>
        <pt x="138" y="263" on="1"/>
        <pt x="138" y="0" on="1"/>
        <pt x="78" y="0" on="1"/>
      </contour>
      <contour>
        <pt x="694" y="-8" on="1"/>
        <pt x="652" y="-8" on="0"/>
        <pt x="555" y="-1" on="0"/>
        <pt x="517" y="4" on="1"/>
        <pt x="517" y="574" on="1"/>
        <pt x="575" y="580" on="0"/>
        <pt x="649" y="585" on="0"/>
        <pt x="684" y="585" on="1"/>
        <pt x="796" y="585" on="0"/>
        <pt x="898" y="510" on="0"/>
        <pt x="898" y="429" on="1"/>
        <pt x="898" y="375" on="0"/>
        <pt x="844" y="306" on="0"/>
        <pt x="793" y="296" on="1"/>
        <pt x="793" y="293" on="1"/>
        <pt x="853" y="284" on="0"/>
        <pt x="918" y="211" on="0"/>
        <pt x="918" y="152" on="1"/>
        <pt x="918" y="-8" on="0"/>
      </contour>
      <contour>
        <pt x="697" y="39" on="1"/>
        <pt x="858" y="39" on="0"/>
        <pt x="858" y="155" on="1"/>
        <pt x="858" y="215" on="0"/>
        <pt x="780" y="269" on="0"/>
        <pt x="692" y="269" on="1"/>
        <pt x="575" y="269" on="1"/>
        <pt x="575" y="47" on="1"/>
        <pt x="582" y="45" on="0"/>
        <pt x="609" y="43" on="0"/>
        <pt x="642" y="40" on="0"/>
        <pt x="679" y="39" on="0"/>
      </contour>
      <contour>
        <pt x="691" y="315" on="1"/>
        <pt x="771" y="315" on="0"/>
        <pt x="838" y="365" on="0"/>
        <pt x="838" y="426" on="1"/>
        <pt x="838" y="484" on="0"/>
        <pt x="767" y="536" on="0"/>
        <pt x="688" y="536" on="1"/>
        <pt x="656" y="536" on="0"/>
        <pt x="602" y="534" on="0"/>
        <pt x="575" y="530" on="1"/>
        <pt x="575" y="315" on="1"/>
      </contour>
    </TTGlyph>
    <TTGlyph name="F_F.sc" xMin="78" yMin="0" xMax="860" yMax="577">
      <contour>
        <pt x="78" y="577" on="1"/>
        <pt x="421" y="577" on="1"/>
        <pt x="421" y="525" on="1"/>
        <pt x="138" y="525" on="1"/>
        <pt x="138" y="314" on="1"/>
        <pt x="399" y="314" on="1"/>
        <pt x="399" y="263" on="1"/>
        <pt x="138" y="263" on="1"/>
        <pt x="138" y="0" on="1"/>
        <pt x="78" y="0" on="1"/>
      </contour>
      <contour>
        <pt x="517" y="577" on="1"/>
        <pt x="860" y="577" on="1"/>
        <pt x="860" y="525" on="1"/>
        <pt x="577" y="525" on="1"/>
        <pt x="577" y="314" on="1"/>
        <pt x="838" y="314" on="1"/>
        <pt x="838" y="263" on="1"/>
        <pt x="577" y="263" on="1"/>
        <pt x="577" y="0" on="1"/>
        <pt x="517" y="0" on="1"/>
      </contour>
    </TTGlyph>
    <TTGlyph name="F_F_B.sc" xMin="78" yMin="-8" xMax="1357" yMax="585">
      <contour>
        <pt x="78" y="577" on="1"/>
        <pt x="421" y="577" on="1"/>
        <pt x="421" y="525" on="1"/>
        <pt x="138" y="525" on="1"/>
        <pt x="138" y="314" on="1"/>
        <pt x="399" y="314" on="1"/>
        <pt x="399" y="263" on="1"/>
        <pt x="138" y="263" on="1"/>
        <pt x="138" y="0" on="1"/>
        <pt x="78" y="0" on="1"/>
      </contour>
      <contour>
        <pt x="517" y="577" on="1"/>
        <pt x="860" y="577" on="1"/>
        <pt x="860" y="525" on="1"/>
        <pt x="577" y="525" on="1"/>
        <pt x="577" y="314" on="1"/>
        <pt x="838" y="314" on="1"/>
        <pt x="838" y="263" on="1"/>
        <pt x="577" y="263" on="1"/>
        <pt x="577" y="0" on="1"/>
        <pt x="517" y="0" on="1"/>
      </contour>
      <contour>
        <pt x="1133" y="-8" on="1"/>
        <pt x="1091" y="-8" on="0"/>
        <pt x="994" y="-1" on="0"/>
        <pt x="956" y="4" on="1"/>
        <pt x="956" y="574" on="1"/>
        <pt x="1014" y="580" on="0"/>
        <pt x="1088" y="585" on="0"/>
        <pt x="1123" y="585" on="1"/>
        <pt x="1235" y="585" on="0"/>
        <pt x="1337" y="510" on="0"/>
        <pt x="1337" y="429" on="1"/>
        <pt x="1337" y="375" on="0"/>
        <pt x="1283" y="306" on="0"/>
        <pt x="1232" y="296" on="1"/>
        <pt x="1232" y="293" on="1"/>
        <pt x="1292" y="284" on="0"/>
        <pt x="1357" y="211" on="0"/>
        <pt x="1357" y="152" on="1"/>
        <pt x="1357" y="-8" on="0"/>
      </contour>
      <contour>
        <pt x="1136" y="39" on="1"/>
        <pt x="1297" y="39" on="0"/>
        <pt x="1297" y="155" on="1"/>
        <pt x="1297" y="215" on="0"/>
        <pt x="1219" y="269" on="0"/>
        <pt x="1131" y="269" on="1"/>
        <pt x="1014" y="269" on="1"/>
        <pt x="1014" y="47" on="1"/>
        <pt x="1021" y="45" on="0"/>
        <pt x="1048" y="43" on="0"/>
        <pt x="1081" y="40" on="0"/>
        <pt x="1118" y="39" on="0"/>
      </contour>
      <contour>
        <pt x="1130" y="315" on="1"/>
        <pt x="1210" y="315" on="0"/>
        <pt x="1277" y="365" on="0"/>
        <pt x="1277" y="426" on="1"/>
        <pt x="1277" y="484" on="0"/>
        <pt x="1206" y="536" on="0"/>
        <pt x="1127" y="536" on="1"/>
        <pt x="1095" y="536" on="0"/>
        <pt x="1041" y="534" on="0"/>
        <pt x="1014" y="530" on="1"/>
        <pt x="1014" y="315" on="1"/>
      </contour>
    </TTGlyph>
    <TTGlyph name="F_F_H.sc" xMin="78" yMin="0" xMax="1395" yMax="577">
      <contour>
        <pt x="78" y="577" on="1"/>
        <pt x="421" y="577" on="1"/>
        <pt x="421" y="525" on="1"/>
        <pt x="138" y="525" on="1"/>
        <pt x="138" y="314" on="1"/>
        <pt x="399" y="314" on="1"/>
        <pt x="399" y="263" on="1"/>
        <pt x="138" y="263" on="1"/>
        <pt x="138" y="0" on="1"/>
        <pt x="78" y="0" on="1"/>
      </contour>
      <contour>
        <pt x="517" y="577" on="1"/>
        <pt x="860" y="577" on="1"/>
        <pt x="860" y="525" on="1"/>
        <pt x="577" y="525" on="1"/>
        <pt x="577" y="314" on="1"/>
        <pt x="838" y="314" on="1"/>
        <pt x="838" y="263" on="1"/>
        <pt x="577" y="263" on="1"/>
        <pt x="577" y="0" on="1"/>
        <pt x="517" y="0" on="1"/>
      </contour>
      <contour>
        <pt x="956" y="577" on="1"/>
        <pt x="1016" y="577" on="1"/>
        <pt x="1016" y="321" on="1"/>
        <pt x="1335" y="321" on="1"/>
        <pt x="1335" y="577" on="1"/>
        <pt x="1395" y="577" on="1"/>
        <pt x="1395" y="0" on="1"/>
        <pt x="1335" y="0" on="1"/>
        <pt x="1335" y="269" on="1"/>
        <pt x="1016" y="269" on="1"/>
        <pt x="1016" y="0" on="1"/>
        <pt x="956" y="0" on="1"/>
      </contour>
    </TTGlyph>
    <TTGlyph name="F_F_I.sc" xMin="78" yMin="0" xMax="1016" yMax="577">
      <contour>
        <pt x="78" y="577" on="1"/>
        <pt x="421" y="577" on="1"/>
        <pt x="421" y="525" on="1"/>
        <pt x="138" y="525" on="1"/>
        <pt x="138" y="314" on="1"/>
        <pt x="399" y="314" on="1"/>
        <pt x="399" y="263" on="1"/>
        <pt x="138" y="263" on="1"/>
        <pt x="138" y="0" on="1"/>
        <pt x="78" y="0" on="1"/>
      </contour>
      <contour>
        <pt x="517" y="577" on="1"/>
        <pt x="860" y="577" on="1"/>
        <pt x="860" y="525" on="1"/>
        <pt x="577" y="525" on="1"/>
        <pt x="577" y="314" on="1"/>
        <pt x="838" y="314" on="1"/>
        <pt x="838" y="263" on="1"/>
        <pt x="577" y="263" on="1"/>
        <pt x="577" y="0" on="1"/>
        <pt x="517" y="0" on="1"/>
      </contour>
      <contour>
        <pt x="956" y="577" on="1"/>
        <pt x="1016" y="577" on="1"/>
        <pt x="1016" y="0" on="1"/>
        <pt x="956" y="0" on="1"/>
      </contour>
    </TTGlyph>
    <TTGlyph name="F_F_J.sc" xMin="78" yMin="-145" xMax="1028" yMax="577">
      <contour>
        <pt x="78" y="577" on="1"/>
        <pt x="421" y="577" on="1"/>
        <pt x="421" y="525" on="1"/>
        <pt x="138" y="525" on="1"/>
        <pt x="138" y="314" on="1"/>
        <pt x="399" y="314" on="1"/>
        <pt x="399" y="263" on="1"/>
        <pt x="138" y="263" on="1"/>
        <pt x="138" y="0" on="1"/>
        <pt x="78" y="0" on="1"/>
      </contour>
      <contour>
        <pt x="517" y="577" on="1"/>
        <pt x="860" y="577" on="1"/>
        <pt x="860" y="525" on="1"/>
        <pt x="577" y="525" on="1"/>
        <pt x="577" y="314" on="1"/>
        <pt x="838" y="314" on="1"/>
        <pt x="838" y="263" on="1"/>
        <pt x="577" y="263" on="1"/>
        <pt x="577" y="0" on="1"/>
        <pt x="517" y="0" on="1"/>
      </contour>
      <contour>
        <pt x="898" y="-124" on="1"/>
        <pt x="919" y="-84" on="0"/>
        <pt x="946" y="-19" on="0"/>
        <pt x="962" y="42" on="0"/>
        <pt x="968" y="105" on="0"/>
        <pt x="968" y="144" on="1"/>
        <pt x="968" y="577" on="1"/>
        <pt x="1028" y="577" on="1"/>
        <pt x="1028" y="140" on="1"/>
        <pt x="1028" y="102" on="0"/>
        <pt x="1018" y="34" on="0"/>
        <pt x="997" y="-34" on="0"/>
        <pt x="962" y="-105" on="0"/>
        <pt x="938" y="-145" on="1"/>
      </contour>
    </TTGlyph>
    <TTGlyph name="F_F_K.sc" xMin="78" yMin="0" xMax="1394" yMax="577">
      <contour>
        <pt x="78" y="577" on="1"/>
        <pt x="421" y="577" on="1"/>
        <pt x="421" y="525" on="1"/>
        <pt x="138" y="525" on="1"/>
        <pt x="138" y="314" on="1"/>
        <pt x="399" y="314" on="1"/>
        <pt x="399" y="263" on="1"/>
        <pt x="138" y="263" on="1"/>
        <pt x="138" y="0" on="1"/>
        <pt x="78" y="0" on="1"/>
      </contour>
      <contour>
        <pt x="517" y="577" on="1"/>
        <pt x="860" y="577" on="1"/>
        <pt x="860" y="525" on="1"/>
        <pt x="577" y="525" on="1"/>
        <pt x="577" y="314" on="1"/>
        <pt x="838" y="314" on="1"/>
        <pt x="838" y="263" on="1"/>
        <pt x="577" y="263" on="1"/>
        <pt x="577" y="0" on="1"/>
        <pt x="517" y="0" on="1"/>
      </contour>
      <contour>
        <pt x="956" y="577" on="1"/>
        <pt x="1016" y="577" on="1"/>
        <pt x="1016" y="320" on="1"/>
        <pt x="1110" y="320" on="1"/>
        <pt x="1308" y="577" on="1"/>
        <pt x="1378" y="577" on="1"/>
        <pt x="1179" y="317" on="1"/>
        <pt x="1151" y="297" on="1"/>
        <pt x="1151" y="293" on="1"/>
        <pt x="1181" y="274" on="1"/>
        <pt x="1394" y="0" on="1"/>
        <pt x="1325" y="0" on="1"/>
        <pt x="1114" y="268" on="1"/>
        <pt x="1016" y="268" on="1"/>
        <pt x="1016" y="0" on="1"/>
        <pt x="956" y="0" on="1"/>
      </contour>
    </TTGlyph>
    <TTGlyph name="F_F_L.sc" xMin="78" yMin="0" xMax="1262" yMax="577">
      <contour>
        <pt x="956" y="577" on="1"/>
        <pt x="1016" y="577" on="1"/>
        <pt x="1016" y="52" on="1"/>
        <pt x="1262" y="52" on="1"/>
        <pt x="1262" y="0" on="1"/>
        <pt x="956" y="0" on="1"/>
      </contour>
      <contour>
        <pt x="78" y="577" on="1"/>
        <pt x="421" y="577" on="1"/>
        <pt x="421" y="525" on="1"/>
        <pt x="138" y="525" on="1"/>
        <pt x="138" y="314" on="1"/>
        <pt x="399" y="314" on="1"/>
        <pt x="399" y="263" on="1"/>
        <pt x="138" y="263" on="1"/>
        <pt x="138" y="0" on="1"/>
        <pt x="78" y="0" on="1"/>
      </contour>
      <contour>
        <pt x="517" y="577" on="1"/>
        <pt x="860" y="577" on="1"/>
        <pt x="860" y="525" on="1"/>
        <pt x="577" y="525" on="1"/>
        <pt x="577" y="314" on="1"/>
        <pt x="838" y="314" on="1"/>
        <pt x="838" y="263" on="1"/>
        <pt x="577" y="263" on="1"/>
        <pt x="577" y="0" on="1"/>
        <pt x="517" y="0" on="1"/>
      </contour>
    </TTGlyph>
    <TTGlyph name="F_F_T.sc" xMin="78" yMin="0" xMax="1300" yMax="577">
      <contour>
        <pt x="1061" y="524" on="1"/>
        <pt x="881" y="524" on="1"/>
        <pt x="881" y="577" on="1"/>
        <pt x="1300" y="577" on="1"/>
        <pt x="1300" y="524" on="1"/>
        <pt x="1121" y="524" on="1"/>
        <pt x="1121" y="0" on="1"/>
        <pt x="1061" y="0" on="1"/>
      </contour>
      <contour>
        <pt x="78" y="577" on="1"/>
        <pt x="421" y="577" on="1"/>
        <pt x="421" y="525" on="1"/>
        <pt x="138" y="525" on="1"/>
        <pt x="138" y="314" on="1"/>
        <pt x="399" y="314" on="1"/>
        <pt x="399" y="263" on="1"/>
        <pt x="138" y="263" on="1"/>
        <pt x="138" y="0" on="1"/>
        <pt x="78" y="0" on="1"/>
      </contour>
      <contour>
        <pt x="517" y="577" on="1"/>
        <pt x="860" y="577" on="1"/>
        <pt x="860" y="525" on="1"/>
        <pt x="577" y="525" on="1"/>
        <pt x="577" y="314" on="1"/>
        <pt x="838" y="314" on="1"/>
        <pt x="838" y="263" on="1"/>
        <pt x="577" y="263" on="1"/>
        <pt x="577" y="0" on="1"/>
        <pt x="517" y="0" on="1"/>
      </contour>
    </TTGlyph>
    <TTGlyph name="F_H.sc" xMin="78" yMin="0" xMax="956" yMax="577">
      <contour>
        <pt x="78" y="577" on="1"/>
        <pt x="421" y="577" on="1"/>
        <pt x="421" y="525" on="1"/>
        <pt x="138" y="525" on="1"/>
        <pt x="138" y="314" on="1"/>
        <pt x="399" y="314" on="1"/>
        <pt x="399" y="263" on="1"/>
        <pt x="138" y="263" on="1"/>
        <pt x="138" y="0" on="1"/>
        <pt x="78" y="0" on="1"/>
      </contour>
      <contour>
        <pt x="517" y="577" on="1"/>
        <pt x="577" y="577" on="1"/>
        <pt x="577" y="321" on="1"/>
        <pt x="896" y="321" on="1"/>
        <pt x="896" y="577" on="1"/>
        <pt x="956" y="577" on="1"/>
        <pt x="956" y="0" on="1"/>
        <pt x="896" y="0" on="1"/>
        <pt x="896" y="269" on="1"/>
        <pt x="577" y="269" on="1"/>
        <pt x="577" y="0" on="1"/>
        <pt x="517" y="0" on="1"/>
      </contour>
    </TTGlyph>
    <TTGlyph name="F_I.sc" xMin="78" yMin="0" xMax="577" yMax="577">
      <contour>
        <pt x="78" y="577" on="1"/>
        <pt x="421" y="577" on="1"/>
        <pt x="421" y="525" on="1"/>
        <pt x="138" y="525" on="1"/>
        <pt x="138" y="314" on="1"/>
        <pt x="399" y="314" on="1"/>
        <pt x="399" y="263" on="1"/>
        <pt x="138" y="263" on="1"/>
        <pt x="138" y="0" on="1"/>
        <pt x="78" y="0" on="1"/>
      </contour>
      <contour>
        <pt x="517" y="577" on="1"/>
        <pt x="577" y="577" on="1"/>
        <pt x="577" y="0" on="1"/>
        <pt x="517" y="0" on="1"/>
      </contour>
    </TTGlyph>
    <TTGlyph name="F_J.sc" xMin="78" yMin="-145" xMax="589" yMax="577">
      <contour>
        <pt x="78" y="577" on="1"/>
        <pt x="421" y="577" on="1"/>
        <pt x="421" y="525" on="1"/>
        <pt x="138" y="525" on="1"/>
        <pt x="138" y="314" on="1"/>
        <pt x="399" y="314" on="1"/>
        <pt x="399" y="263" on="1"/>
        <pt x="138" y="263" on="1"/>
        <pt x="138" y="0" on="1"/>
        <pt x="78" y="0" on="1"/>
      </contour>
      <contour>
        <pt x="459" y="-124" on="1"/>
        <pt x="480" y="-84" on="0"/>
        <pt x="507" y="-19" on="0"/>
        <pt x="523" y="42" on="0"/>
        <pt x="529" y="105" on="0"/>
        <pt x="529" y="144" on="1"/>
        <pt x="529" y="577" on="1"/>
        <pt x="589" y="577" on="1"/>
        <pt x="589" y="140" on="1"/>
        <pt x="589" y="102" on="0"/>
        <pt x="579" y="34" on="0"/>
        <pt x="558" y="-34" on="0"/>
        <pt x="523" y="-105" on="0"/>
        <pt x="499" y="-145" on="1"/>
      </contour>
    </TTGlyph>
    <TTGlyph name="F_K.sc" xMin="78" yMin="0" xMax="955" yMax="577">
      <contour>
        <pt x="78" y="577" on="1"/>
        <pt x="421" y="577" on="1"/>
        <pt x="421" y="525" on="1"/>
        <pt x="138" y="525" on="1"/>
        <pt x="138" y="314" on="1"/>
        <pt x="399" y="314" on="1"/>
        <pt x="399" y="263" on="1"/>
        <pt x="138" y="263" on="1"/>
        <pt x="138" y="0" on="1"/>
        <pt x="78" y="0" on="1"/>
      </contour>
      <contour>
        <pt x="517" y="577" on="1"/>
        <pt x="577" y="577" on="1"/>
        <pt x="577" y="320" on="1"/>
        <pt x="671" y="320" on="1"/>
        <pt x="869" y="577" on="1"/>
        <pt x="939" y="577" on="1"/>
        <pt x="740" y="317" on="1"/>
        <pt x="712" y="297" on="1"/>
        <pt x="712" y="293" on="1"/>
        <pt x="742" y="274" on="1"/>
        <pt x="955" y="0" on="1"/>
        <pt x="886" y="0" on="1"/>
        <pt x="675" y="268" on="1"/>
        <pt x="577" y="268" on="1"/>
        <pt x="577" y="0" on="1"/>
        <pt x="517" y="0" on="1"/>
      </contour>
    </TTGlyph>
    <TTGlyph name="F_L.sc" xMin="78" yMin="0" xMax="823" yMax="577">
      <contour>
        <pt x="517" y="577" on="1"/>
        <pt x="577" y="577" on="1"/>
        <pt x="577" y="52" on="1"/>
        <pt x="823" y="52" on="1"/>
        <pt x="823" y="0" on="1"/>
        <pt x="517" y="0" on="1"/>
      </contour>
      <contour>
        <pt x="78" y="577" on="1"/>
        <pt x="421" y="577" on="1"/>
        <pt x="421" y="525" on="1"/>
        <pt x="138" y="525" on="1"/>
        <pt x="138" y="314" on="1"/>
        <pt x="399" y="314" on="1"/>
        <pt x="399" y="263" on="1"/>
        <pt x="138" y="263" on="1"/>
        <pt x="138" y="0" on="1"/>
        <pt x="78" y="0" on="1"/>
      </contour>
    </TTGlyph>
    <TTGlyph name="F_T.sc" xMin="78" yMin="0" xMax="861" yMax="577">
      <contour>
        <pt x="622" y="524" on="1"/>
        <pt x="442" y="524" on="1"/>
        <pt x="442" y="577" on="1"/>
        <pt x="861" y="577" on="1"/>
        <pt x="861" y="524" on="1"/>
        <pt x="682" y="524" on="1"/>
        <pt x="682" y="0" on="1"/>
        <pt x="622" y="0" on="1"/>
      </contour>
      <contour>
        <pt x="78" y="577" on="1"/>
        <pt x="421" y="577" on="1"/>
        <pt x="421" y="525" on="1"/>
        <pt x="138" y="525" on="1"/>
        <pt x="138" y="314" on="1"/>
        <pt x="399" y="314" on="1"/>
        <pt x="399" y="263" on="1"/>
        <pt x="138" y="263" on="1"/>
        <pt x="138" y="0" on="1"/>
        <pt x="78" y="0" on="1"/>
      </contour>
    </TTGlyph>
    <TTGlyph name="G" xMin="48" yMin="-10" xMax="524" yMax="749">
      <contour>
        <pt x="363" y="-10" on="1"/>
        <pt x="200" y="-9" on="0"/>
        <pt x="48" y="175" on="0"/>
        <pt x="48" y="369" on="1"/>
        <pt x="48" y="468" on="0"/>
        <pt x="86" y="612" on="0"/>
        <pt x="164" y="705" on="0"/>
        <pt x="286" y="749" on="0"/>
        <pt x="370" y="749" on="1"/>
        <pt x="400" y="749" on="0"/>
        <pt x="483" y="739" on="0"/>
        <pt x="522" y="730" on="1"/>
        <pt x="522" y="675" on="1"/>
        <pt x="478" y="685" on="0"/>
        <pt x="407" y="693" on="0"/>
        <pt x="375" y="693" on="1"/>
        <pt x="305" y="693" on="0"/>
        <pt x="205" y="657" on="0"/>
        <pt x="142" y="579" on="0"/>
        <pt x="112" y="456" on="0"/>
        <pt x="112" y="369" on="1"/>
        <pt x="112" y="201" on="0"/>
        <pt x="233" y="46" on="0"/>
        <pt x="364" y="46" on="1"/>
        <pt x="382" y="46" on="0"/>
        <pt x="436" y="50" on="0"/>
        <pt x="465" y="54" on="1"/>
        <pt x="465" y="376" on="1"/>
        <pt x="524" y="376" on="1"/>
        <pt x="524" y="9" on="1"/>
        <pt x="477" y="0" on="0"/>
        <pt x="399" y="-10" on="0"/>
      </contour>
    </TTGlyph>
    <TTGlyph name="G.sc" xMin="48" yMin="-8" xMax="464" yMax="584">
      <contour>
        <pt x="320" y="-8" on="1"/>
        <pt x="179" y="-6" on="0"/>
        <pt x="48" y="136" on="0"/>
        <pt x="48" y="288" on="1"/>
        <pt x="48" y="441" on="0"/>
        <pt x="182" y="584" on="0"/>
        <pt x="328" y="584" on="1"/>
        <pt x="355" y="584" on="0"/>
        <pt x="428" y="577" on="0"/>
        <pt x="463" y="569" on="1"/>
        <pt x="463" y="517" on="1"/>
        <pt x="423" y="525" on="0"/>
        <pt x="362" y="532" on="0"/>
        <pt x="333" y="532" on="1"/>
        <pt x="273" y="532" on="0"/>
        <pt x="189" y="504" on="0"/>
        <pt x="135" y="445" on="0"/>
        <pt x="110" y="353" on="0"/>
        <pt x="110" y="288" on="1"/>
        <pt x="110" y="161" on="0"/>
        <pt x="211" y="45" on="0"/>
        <pt x="322" y="45" on="1"/>
        <pt x="336" y="45" on="0"/>
        <pt x="387" y="49" on="0"/>
        <pt x="408" y="53" on="1"/>
        <pt x="408" y="293" on="1"/>
        <pt x="464" y="293" on="1"/>
        <pt x="464" y="9" on="1"/>
        <pt x="423" y="1" on="0"/>
        <pt x="352" y="-8" on="0"/>
      </contour>
    </TTGlyph>
    <TTGlyph name="Gacute" xMin="48" yMin="-10" xMax="524" yMax="927">
      <contour>
        <pt x="309" y="795" on="1"/>
        <pt x="385" y="927" on="1"/>
        <pt x="450" y="927" on="1"/>
        <pt x="359" y="790" on="1"/>
      </contour>
      <contour>
        <pt x="363" y="-10" on="1"/>
        <pt x="200" y="-9" on="0"/>
        <pt x="48" y="175" on="0"/>
        <pt x="48" y="369" on="1"/>
        <pt x="48" y="468" on="0"/>
        <pt x="86" y="612" on="0"/>
        <pt x="164" y="705" on="0"/>
        <pt x="286" y="749" on="0"/>
        <pt x="370" y="749" on="1"/>
        <pt x="400" y="749" on="0"/>
        <pt x="483" y="739" on="0"/>
        <pt x="522" y="730" on="1"/>
        <pt x="522" y="675" on="1"/>
        <pt x="478" y="685" on="0"/>
        <pt x="407" y="693" on="0"/>
        <pt x="375" y="693" on="1"/>
        <pt x="305" y="693" on="0"/>
        <pt x="205" y="657" on="0"/>
        <pt x="142" y="579" on="0"/>
        <pt x="112" y="456" on="0"/>
        <pt x="112" y="369" on="1"/>
        <pt x="112" y="201" on="0"/>
        <pt x="233" y="46" on="0"/>
        <pt x="364" y="46" on="1"/>
        <pt x="382" y="46" on="0"/>
        <pt x="436" y="50" on="0"/>
        <pt x="465" y="54" on="1"/>
        <pt x="465" y="376" on="1"/>
        <pt x="524" y="376" on="1"/>
        <pt x="524" y="9" on="1"/>
        <pt x="477" y="0" on="0"/>
        <pt x="399" y="-10" on="0"/>
      </contour>
    </TTGlyph>
    <TTGlyph name="Gacute.sc" xMin="48" yMin="-8" xMax="464" yMax="730">
      <contour>
        <pt x="320" y="-8" on="1"/>
        <pt x="179" y="-6" on="0"/>
        <pt x="48" y="136" on="0"/>
        <pt x="48" y="288" on="1"/>
        <pt x="48" y="441" on="0"/>
        <pt x="182" y="584" on="0"/>
        <pt x="328" y="584" on="1"/>
        <pt x="355" y="584" on="0"/>
        <pt x="428" y="577" on="0"/>
        <pt x="463" y="569" on="1"/>
        <pt x="463" y="517" on="1"/>
        <pt x="423" y="525" on="0"/>
        <pt x="362" y="532" on="0"/>
        <pt x="333" y="532" on="1"/>
        <pt x="273" y="532" on="0"/>
        <pt x="189" y="504" on="0"/>
        <pt x="135" y="445" on="0"/>
        <pt x="110" y="353" on="0"/>
        <pt x="110" y="288" on="1"/>
        <pt x="110" y="160" on="0"/>
        <pt x="211" y="45" on="0"/>
        <pt x="322" y="45" on="1"/>
        <pt x="336" y="45" on="0"/>
        <pt x="387" y="49" on="0"/>
        <pt x="408" y="53" on="1"/>
        <pt x="408" y="293" on="1"/>
        <pt x="464" y="293" on="1"/>
        <pt x="464" y="9" on="1"/>
        <pt x="382" y="-8" on="0"/>
      </contour>
      <contour>
        <pt x="272" y="621" on="1"/>
        <pt x="337" y="730" on="1"/>
        <pt x="399" y="730" on="1"/>
        <pt x="319" y="618" on="1"/>
      </contour>
    </TTGlyph>
    <TTGlyph name="Gbreve" xMin="48" yMin="-10" xMax="524" yMax="954">
      <contour>
        <pt x="341" y="813" on="1"/>
        <pt x="267" y="813" on="0"/>
        <pt x="188" y="888" on="0"/>
        <pt x="188" y="954" on="1"/>
        <pt x="238" y="954" on="1"/>
        <pt x="238" y="906" on="0"/>
        <pt x="290" y="856" on="0"/>
        <pt x="341" y="856" on="1"/>
        <pt x="390" y="856" on="0"/>
        <pt x="443" y="906" on="0"/>
        <pt x="443" y="954" on="1"/>
        <pt x="493" y="954" on="1"/>
        <pt x="493" y="888" on="0"/>
        <pt x="413" y="813" on="0"/>
      </contour>
      <contour>
        <pt x="363" y="-10" on="1"/>
        <pt x="200" y="-9" on="0"/>
        <pt x="48" y="175" on="0"/>
        <pt x="48" y="369" on="1"/>
        <pt x="48" y="468" on="0"/>
        <pt x="86" y="612" on="0"/>
        <pt x="164" y="705" on="0"/>
        <pt x="286" y="749" on="0"/>
        <pt x="370" y="749" on="1"/>
        <pt x="400" y="749" on="0"/>
        <pt x="483" y="739" on="0"/>
        <pt x="522" y="730" on="1"/>
        <pt x="522" y="675" on="1"/>
        <pt x="478" y="685" on="0"/>
        <pt x="407" y="693" on="0"/>
        <pt x="375" y="693" on="1"/>
        <pt x="305" y="693" on="0"/>
        <pt x="205" y="657" on="0"/>
        <pt x="142" y="579" on="0"/>
        <pt x="112" y="456" on="0"/>
        <pt x="112" y="369" on="1"/>
        <pt x="112" y="201" on="0"/>
        <pt x="233" y="46" on="0"/>
        <pt x="364" y="46" on="1"/>
        <pt x="382" y="46" on="0"/>
        <pt x="436" y="50" on="0"/>
        <pt x="465" y="54" on="1"/>
        <pt x="465" y="376" on="1"/>
        <pt x="524" y="376" on="1"/>
        <pt x="524" y="9" on="1"/>
        <pt x="477" y="0" on="0"/>
        <pt x="399" y="-10" on="0"/>
      </contour>
    </TTGlyph>
    <TTGlyph name="Gbreve.sc" xMin="48" yMin="-8" xMax="464" yMax="747">
      <contour>
        <pt x="320" y="-8" on="1"/>
        <pt x="179" y="-6" on="0"/>
        <pt x="48" y="136" on="0"/>
        <pt x="48" y="288" on="1"/>
        <pt x="48" y="441" on="0"/>
        <pt x="182" y="584" on="0"/>
        <pt x="328" y="584" on="1"/>
        <pt x="355" y="584" on="0"/>
        <pt x="428" y="577" on="0"/>
        <pt x="463" y="569" on="1"/>
        <pt x="463" y="517" on="1"/>
        <pt x="423" y="525" on="0"/>
        <pt x="362" y="532" on="0"/>
        <pt x="333" y="532" on="1"/>
        <pt x="273" y="532" on="0"/>
        <pt x="189" y="504" on="0"/>
        <pt x="135" y="445" on="0"/>
        <pt x="110" y="353" on="0"/>
        <pt x="110" y="288" on="1"/>
        <pt x="110" y="160" on="0"/>
        <pt x="211" y="45" on="0"/>
        <pt x="322" y="45" on="1"/>
        <pt x="336" y="45" on="0"/>
        <pt x="387" y="49" on="0"/>
        <pt x="408" y="53" on="1"/>
        <pt x="408" y="293" on="1"/>
        <pt x="464" y="293" on="1"/>
        <pt x="464" y="9" on="1"/>
        <pt x="382" y="-8" on="0"/>
      </contour>
      <contour>
        <pt x="301" y="632" on="1"/>
        <pt x="236" y="632" on="0"/>
        <pt x="166" y="693" on="0"/>
        <pt x="166" y="747" on="1"/>
        <pt x="213" y="747" on="1"/>
        <pt x="213" y="670" on="0"/>
        <pt x="301" y="670" on="1"/>
        <pt x="389" y="670" on="0"/>
        <pt x="389" y="747" on="1"/>
        <pt x="437" y="747" on="1"/>
        <pt x="437" y="693" on="0"/>
        <pt x="366" y="632" on="0"/>
      </contour>
    </TTGlyph>
    <TTGlyph name="Gcircumflex" xMin="48" yMin="-10" xMax="524" yMax="942">
      <contour>
        <pt x="363" y="-10" on="1"/>
        <pt x="200" y="-9" on="0"/>
        <pt x="48" y="175" on="0"/>
        <pt x="48" y="369" on="1"/>
        <pt x="48" y="468" on="0"/>
        <pt x="86" y="612" on="0"/>
        <pt x="164" y="705" on="0"/>
        <pt x="286" y="749" on="0"/>
        <pt x="370" y="749" on="1"/>
        <pt x="400" y="749" on="0"/>
        <pt x="483" y="739" on="0"/>
        <pt x="522" y="730" on="1"/>
        <pt x="522" y="675" on="1"/>
        <pt x="478" y="685" on="0"/>
        <pt x="407" y="693" on="0"/>
        <pt x="375" y="693" on="1"/>
        <pt x="305" y="693" on="0"/>
        <pt x="205" y="657" on="0"/>
        <pt x="142" y="579" on="0"/>
        <pt x="112" y="456" on="0"/>
        <pt x="112" y="369" on="1"/>
        <pt x="112" y="201" on="0"/>
        <pt x="233" y="46" on="0"/>
        <pt x="364" y="46" on="1"/>
        <pt x="382" y="46" on="0"/>
        <pt x="436" y="50" on="0"/>
        <pt x="465" y="54" on="1"/>
        <pt x="465" y="376" on="1"/>
        <pt x="524" y="376" on="1"/>
        <pt x="524" y="9" on="1"/>
        <pt x="477" y="0" on="0"/>
        <pt x="399" y="-10" on="0"/>
      </contour>
      <contour>
        <pt x="201" y="870" on="1"/>
        <pt x="339" y="942" on="1"/>
        <pt x="477" y="870" on="1"/>
        <pt x="477" y="814" on="1"/>
        <pt x="339" y="886" on="1"/>
        <pt x="201" y="814" on="1"/>
      </contour>
    </TTGlyph>
    <TTGlyph name="Gcircumflex.sc" xMin="48" yMin="-8" xMax="464" yMax="739">
      <contour>
        <pt x="320" y="-8" on="1"/>
        <pt x="179" y="-6" on="0"/>
        <pt x="48" y="136" on="0"/>
        <pt x="48" y="288" on="1"/>
        <pt x="48" y="441" on="0"/>
        <pt x="182" y="584" on="0"/>
        <pt x="328" y="584" on="1"/>
        <pt x="355" y="584" on="0"/>
        <pt x="428" y="577" on="0"/>
        <pt x="463" y="569" on="1"/>
        <pt x="463" y="517" on="1"/>
        <pt x="423" y="525" on="0"/>
        <pt x="362" y="532" on="0"/>
        <pt x="333" y="532" on="1"/>
        <pt x="273" y="532" on="0"/>
        <pt x="189" y="504" on="0"/>
        <pt x="135" y="445" on="0"/>
        <pt x="110" y="353" on="0"/>
        <pt x="110" y="288" on="1"/>
        <pt x="110" y="160" on="0"/>
        <pt x="211" y="45" on="0"/>
        <pt x="322" y="45" on="1"/>
        <pt x="336" y="45" on="0"/>
        <pt x="387" y="49" on="0"/>
        <pt x="408" y="53" on="1"/>
        <pt x="408" y="293" on="1"/>
        <pt x="464" y="293" on="1"/>
        <pt x="464" y="9" on="1"/>
        <pt x="382" y="-8" on="0"/>
      </contour>
      <contour>
        <pt x="177" y="682" on="1"/>
        <pt x="300" y="739" on="1"/>
        <pt x="421" y="682" on="1"/>
        <pt x="421" y="633" on="1"/>
        <pt x="300" y="689" on="1"/>
        <pt x="177" y="633" on="1"/>
      </contour>
    </TTGlyph>
    <TTGlyph name="Gcommaaccent" xMin="48" yMin="-220" xMax="524" yMax="749">
      <contour>
        <pt x="320" y="-67" on="1"/>
        <pt x="383" y="-67" on="1"/>
        <pt x="323" y="-220" on="1"/>
        <pt x="270" y="-220" on="1"/>
      </contour>
      <contour>
        <pt x="363" y="-10" on="1"/>
        <pt x="200" y="-9" on="0"/>
        <pt x="48" y="175" on="0"/>
        <pt x="48" y="369" on="1"/>
        <pt x="48" y="468" on="0"/>
        <pt x="86" y="612" on="0"/>
        <pt x="164" y="705" on="0"/>
        <pt x="286" y="749" on="0"/>
        <pt x="370" y="749" on="1"/>
        <pt x="400" y="749" on="0"/>
        <pt x="483" y="739" on="0"/>
        <pt x="522" y="730" on="1"/>
        <pt x="522" y="675" on="1"/>
        <pt x="478" y="685" on="0"/>
        <pt x="407" y="693" on="0"/>
        <pt x="375" y="693" on="1"/>
        <pt x="305" y="693" on="0"/>
        <pt x="205" y="657" on="0"/>
        <pt x="142" y="579" on="0"/>
        <pt x="112" y="456" on="0"/>
        <pt x="112" y="369" on="1"/>
        <pt x="112" y="201" on="0"/>
        <pt x="233" y="46" on="0"/>
        <pt x="364" y="46" on="1"/>
        <pt x="382" y="46" on="0"/>
        <pt x="436" y="50" on="0"/>
        <pt x="465" y="54" on="1"/>
        <pt x="465" y="376" on="1"/>
        <pt x="524" y="376" on="1"/>
        <pt x="524" y="9" on="1"/>
        <pt x="477" y="0" on="0"/>
        <pt x="399" y="-10" on="0"/>
      </contour>
    </TTGlyph>
    <TTGlyph name="Gcommaaccent.sc" xMin="48" yMin="-172" xMax="464" yMax="584">
      <contour>
        <pt x="320" y="-8" on="1"/>
        <pt x="179" y="-6" on="0"/>
        <pt x="48" y="136" on="0"/>
        <pt x="48" y="288" on="1"/>
        <pt x="48" y="441" on="0"/>
        <pt x="182" y="584" on="0"/>
        <pt x="328" y="584" on="1"/>
        <pt x="355" y="584" on="0"/>
        <pt x="428" y="577" on="0"/>
        <pt x="463" y="569" on="1"/>
        <pt x="463" y="517" on="1"/>
        <pt x="423" y="525" on="0"/>
        <pt x="362" y="532" on="0"/>
        <pt x="333" y="532" on="1"/>
        <pt x="273" y="532" on="0"/>
        <pt x="189" y="504" on="0"/>
        <pt x="135" y="445" on="0"/>
        <pt x="110" y="353" on="0"/>
        <pt x="110" y="288" on="1"/>
        <pt x="110" y="160" on="0"/>
        <pt x="211" y="45" on="0"/>
        <pt x="322" y="45" on="1"/>
        <pt x="336" y="45" on="0"/>
        <pt x="387" y="49" on="0"/>
        <pt x="408" y="53" on="1"/>
        <pt x="408" y="293" on="1"/>
        <pt x="464" y="293" on="1"/>
        <pt x="464" y="9" on="1"/>
        <pt x="382" y="-8" on="0"/>
      </contour>
      <contour>
        <pt x="279" y="-53" on="1"/>
        <pt x="340" y="-53" on="1"/>
        <pt x="288" y="-172" on="1"/>
        <pt x="238" y="-172" on="1"/>
      </contour>
    </TTGlyph>
    <TTGlyph name="Gdotaccent" xMin="48" yMin="-10" xMax="524" yMax="890">
      <contour>
        <pt x="340" y="805" on="1"/>
        <pt x="297" y="805" on="0"/>
        <pt x="297" y="847" on="1"/>
        <pt x="297" y="890" on="0"/>
        <pt x="340" y="890" on="1"/>
        <pt x="360" y="890" on="0"/>
        <pt x="383" y="869" on="0"/>
        <pt x="383" y="847" on="1"/>
        <pt x="383" y="825" on="0"/>
        <pt x="360" y="805" on="0"/>
      </contour>
      <contour>
        <pt x="363" y="-10" on="1"/>
        <pt x="200" y="-9" on="0"/>
        <pt x="48" y="175" on="0"/>
        <pt x="48" y="369" on="1"/>
        <pt x="48" y="468" on="0"/>
        <pt x="86" y="612" on="0"/>
        <pt x="164" y="705" on="0"/>
        <pt x="286" y="749" on="0"/>
        <pt x="370" y="749" on="1"/>
        <pt x="400" y="749" on="0"/>
        <pt x="483" y="739" on="0"/>
        <pt x="522" y="730" on="1"/>
        <pt x="522" y="675" on="1"/>
        <pt x="478" y="685" on="0"/>
        <pt x="407" y="693" on="0"/>
        <pt x="375" y="693" on="1"/>
        <pt x="305" y="693" on="0"/>
        <pt x="205" y="657" on="0"/>
        <pt x="142" y="579" on="0"/>
        <pt x="112" y="456" on="0"/>
        <pt x="112" y="369" on="1"/>
        <pt x="112" y="201" on="0"/>
        <pt x="233" y="46" on="0"/>
        <pt x="364" y="46" on="1"/>
        <pt x="382" y="46" on="0"/>
        <pt x="436" y="50" on="0"/>
        <pt x="465" y="54" on="1"/>
        <pt x="465" y="376" on="1"/>
        <pt x="524" y="376" on="1"/>
        <pt x="524" y="9" on="1"/>
        <pt x="477" y="0" on="0"/>
        <pt x="399" y="-10" on="0"/>
      </contour>
    </TTGlyph>
    <TTGlyph name="Gdotaccent.sc" xMin="48" yMin="-8" xMax="464" yMax="704">
      <contour>
        <pt x="320" y="-8" on="1"/>
        <pt x="179" y="-6" on="0"/>
        <pt x="48" y="136" on="0"/>
        <pt x="48" y="288" on="1"/>
        <pt x="48" y="441" on="0"/>
        <pt x="182" y="584" on="0"/>
        <pt x="328" y="584" on="1"/>
        <pt x="355" y="584" on="0"/>
        <pt x="428" y="577" on="0"/>
        <pt x="463" y="569" on="1"/>
        <pt x="463" y="517" on="1"/>
        <pt x="423" y="525" on="0"/>
        <pt x="362" y="532" on="0"/>
        <pt x="333" y="532" on="1"/>
        <pt x="273" y="532" on="0"/>
        <pt x="189" y="504" on="0"/>
        <pt x="135" y="445" on="0"/>
        <pt x="110" y="353" on="0"/>
        <pt x="110" y="288" on="1"/>
        <pt x="110" y="160" on="0"/>
        <pt x="211" y="45" on="0"/>
        <pt x="322" y="45" on="1"/>
        <pt x="336" y="45" on="0"/>
        <pt x="387" y="49" on="0"/>
        <pt x="408" y="53" on="1"/>
        <pt x="408" y="293" on="1"/>
        <pt x="464" y="293" on="1"/>
        <pt x="464" y="9" on="1"/>
        <pt x="382" y="-8" on="0"/>
      </contour>
      <contour>
        <pt x="301" y="628" on="1"/>
        <pt x="282" y="628" on="0"/>
        <pt x="261" y="646" on="0"/>
        <pt x="261" y="667" on="1"/>
        <pt x="261" y="704" on="0"/>
        <pt x="301" y="704" on="1"/>
        <pt x="319" y="704" on="0"/>
        <pt x="341" y="687" on="0"/>
        <pt x="341" y="667" on="1"/>
        <pt x="341" y="646" on="0"/>
        <pt x="319" y="628" on="0"/>
      </contour>
    </TTGlyph>
    <TTGlyph name="H" xMin="82" yMin="0" xMax="579" yMax="740">
      <contour>
        <pt x="82" y="740" on="1"/>
        <pt x="144" y="740" on="1"/>
        <pt x="144" y="406" on="1"/>
        <pt x="518" y="406" on="1"/>
        <pt x="518" y="740" on="1"/>
        <pt x="579" y="740" on="1"/>
        <pt x="579" y="0" on="1"/>
        <pt x="518" y="0" on="1"/>
        <pt x="518" y="350" on="1"/>
        <pt x="144" y="350" on="1"/>
        <pt x="144" y="0" on="1"/>
        <pt x="82" y="0" on="1"/>
      </contour>
    </TTGlyph>
    <TTGlyph name="H.sc" xMin="78" yMin="0" xMax="517" yMax="577">
      <contour>
        <pt x="78" y="577" on="1"/>
        <pt x="138" y="577" on="1"/>
        <pt x="138" y="321" on="1"/>
        <pt x="457" y="321" on="1"/>
        <pt x="457" y="577" on="1"/>
        <pt x="517" y="577" on="1"/>
        <pt x="517" y="0" on="1"/>
        <pt x="457" y="0" on="1"/>
        <pt x="457" y="269" on="1"/>
        <pt x="138" y="269" on="1"/>
        <pt x="138" y="0" on="1"/>
        <pt x="78" y="0" on="1"/>
      </contour>
    </TTGlyph>
    <TTGlyph name="Hbar" xMin="3" yMin="0" xMax="689" yMax="740">
      <contour>
        <pt x="3" y="585" on="1"/>
        <pt x="96" y="585" on="1"/>
        <pt x="96" y="740" on="1"/>
        <pt x="158" y="740" on="1"/>
        <pt x="158" y="585" on="1"/>
        <pt x="532" y="585" on="1"/>
        <pt x="532" y="740" on="1"/>
        <pt x="593" y="740" on="1"/>
        <pt x="593" y="585" on="1"/>
        <pt x="689" y="585" on="1"/>
        <pt x="689" y="548" on="1"/>
        <pt x="593" y="548" on="1"/>
        <pt x="593" y="0" on="1"/>
        <pt x="532" y="0" on="1"/>
        <pt x="532" y="350" on="1"/>
        <pt x="158" y="350" on="1"/>
        <pt x="158" y="0" on="1"/>
        <pt x="96" y="0" on="1"/>
        <pt x="96" y="548" on="1"/>
        <pt x="3" y="548" on="1"/>
      </contour>
      <contour>
        <pt x="532" y="406" on="1"/>
        <pt x="532" y="548" on="1"/>
        <pt x="158" y="548" on="1"/>
        <pt x="158" y="406" on="1"/>
      </contour>
    </TTGlyph>
    <TTGlyph name="Hbar.sc" xMin="9" yMin="0" xMax="607" yMax="577">
      <contour>
        <pt x="9" y="460" on="1"/>
        <pt x="88" y="460" on="1"/>
        <pt x="88" y="577" on="1"/>
        <pt x="148" y="577" on="1"/>
        <pt x="148" y="460" on="1"/>
        <pt x="467" y="460" on="1"/>
        <pt x="467" y="577" on="1"/>
        <pt x="527" y="577" on="1"/>
        <pt x="527" y="460" on="1"/>
        <pt x="607" y="460" on="1"/>
        <pt x="607" y="426" on="1"/>
        <pt x="527" y="426" on="1"/>
        <pt x="527" y="0" on="1"/>
        <pt x="467" y="0" on="1"/>
        <pt x="467" y="268" on="1"/>
        <pt x="148" y="268" on="1"/>
        <pt x="148" y="0" on="1"/>
        <pt x="88" y="0" on="1"/>
        <pt x="88" y="426" on="1"/>
        <pt x="9" y="426" on="1"/>
      </contour>
      <contour>
        <pt x="467" y="320" on="1"/>
        <pt x="467" y="426" on="1"/>
        <pt x="148" y="426" on="1"/>
        <pt x="148" y="320" on="1"/>
      </contour>
    </TTGlyph>
    <TTGlyph name="Hcircumflex" xMin="82" yMin="0" xMax="579" yMax="942">
      <contour>
        <pt x="82" y="740" on="1"/>
        <pt x="144" y="740" on="1"/>
        <pt x="144" y="406" on="1"/>
        <pt x="518" y="406" on="1"/>
        <pt x="518" y="740" on="1"/>
        <pt x="579" y="740" on="1"/>
        <pt x="579" y="0" on="1"/>
        <pt x="518" y="0" on="1"/>
        <pt x="518" y="350" on="1"/>
        <pt x="144" y="350" on="1"/>
        <pt x="144" y="0" on="1"/>
        <pt x="82" y="0" on="1"/>
      </contour>
      <contour>
        <pt x="183" y="870" on="1"/>
        <pt x="321" y="942" on="1"/>
        <pt x="459" y="870" on="1"/>
        <pt x="459" y="814" on="1"/>
        <pt x="321" y="886" on="1"/>
        <pt x="183" y="814" on="1"/>
      </contour>
    </TTGlyph>
    <TTGlyph name="Hcircumflex.sc" xMin="78" yMin="0" xMax="517" yMax="739">
      <contour>
        <pt x="78" y="577" on="1"/>
        <pt x="138" y="577" on="1"/>
        <pt x="138" y="321" on="1"/>
        <pt x="457" y="321" on="1"/>
        <pt x="457" y="577" on="1"/>
        <pt x="517" y="577" on="1"/>
        <pt x="517" y="0" on="1"/>
        <pt x="457" y="0" on="1"/>
        <pt x="457" y="269" on="1"/>
        <pt x="138" y="269" on="1"/>
        <pt x="138" y="0" on="1"/>
        <pt x="78" y="0" on="1"/>
      </contour>
      <contour>
        <pt x="168" y="682" on="1"/>
        <pt x="290" y="739" on="1"/>
        <pt x="412" y="682" on="1"/>
        <pt x="412" y="633" on="1"/>
        <pt x="290" y="689" on="1"/>
        <pt x="168" y="633" on="1"/>
      </contour>
    </TTGlyph>
    <TTGlyph name="Hdotbelow" xMin="82" yMin="-172" xMax="579" yMax="740">
      <contour>
        <pt x="82" y="740" on="1"/>
        <pt x="144" y="740" on="1"/>
        <pt x="144" y="406" on="1"/>
        <pt x="518" y="406" on="1"/>
        <pt x="518" y="740" on="1"/>
        <pt x="579" y="740" on="1"/>
        <pt x="579" y="0" on="1"/>
        <pt x="518" y="0" on="1"/>
        <pt x="518" y="350" on="1"/>
        <pt x="144" y="350" on="1"/>
        <pt x="144" y="0" on="1"/>
        <pt x="82" y="0" on="1"/>
      </contour>
      <contour>
        <pt x="338" y="-172" on="1"/>
        <pt x="317" y="-172" on="0"/>
        <pt x="295" y="-152" on="0"/>
        <pt x="295" y="-129" on="1"/>
        <pt x="295" y="-106" on="0"/>
        <pt x="317" y="-86" on="0"/>
        <pt x="338" y="-86" on="1"/>
        <pt x="358" y="-86" on="0"/>
        <pt x="381" y="-106" on="0"/>
        <pt x="381" y="-129" on="1"/>
        <pt x="381" y="-152" on="0"/>
        <pt x="358" y="-172" on="0"/>
      </contour>
    </TTGlyph>
    <TTGlyph name="Hdotbelow.sc" xMin="78" yMin="-138" xMax="517" yMax="577">
      <contour>
        <pt x="78" y="577" on="1"/>
        <pt x="138" y="577" on="1"/>
        <pt x="138" y="321" on="1"/>
        <pt x="457" y="321" on="1"/>
        <pt x="457" y="577" on="1"/>
        <pt x="517" y="577" on="1"/>
        <pt x="517" y="0" on="1"/>
        <pt x="457" y="0" on="1"/>
        <pt x="457" y="269" on="1"/>
        <pt x="138" y="269" on="1"/>
        <pt x="138" y="0" on="1"/>
        <pt x="78" y="0" on="1"/>
      </contour>
      <contour>
        <pt x="303" y="-138" on="1"/>
        <pt x="285" y="-138" on="0"/>
        <pt x="265" y="-122" on="0"/>
        <pt x="265" y="-102" on="1"/>
        <pt x="265" y="-65" on="0"/>
        <pt x="303" y="-65" on="1"/>
        <pt x="342" y="-65" on="0"/>
        <pt x="342" y="-102" on="1"/>
        <pt x="342" y="-122" on="0"/>
        <pt x="322" y="-138" on="0"/>
      </contour>
    </TTGlyph>
    <TTGlyph name="I" xMin="82" yMin="0" xMax="144" yMax="740">
      <contour>
        <pt x="82" y="740" on="1"/>
        <pt x="144" y="740" on="1"/>
        <pt x="144" y="0" on="1"/>
        <pt x="82" y="0" on="1"/>
      </contour>
    </TTGlyph>
    <TTGlyph name="I.sc" xMin="78" yMin="0" xMax="138" yMax="577">
      <contour>
        <pt x="78" y="577" on="1"/>
        <pt x="138" y="577" on="1"/>
        <pt x="138" y="0" on="1"/>
        <pt x="78" y="0" on="1"/>
      </contour>
    </TTGlyph>
    <TTGlyph name="IJ" xMin="82" yMin="-182" xMax="372" yMax="740">
      <contour>
        <pt x="82" y="740" on="1"/>
        <pt x="144" y="740" on="1"/>
        <pt x="144" y="0" on="1"/>
        <pt x="82" y="0" on="1"/>
      </contour>
      <contour>
        <pt x="228" y="-159" on="1"/>
        <pt x="252" y="-107" on="0"/>
        <pt x="284" y="-24" on="0"/>
        <pt x="303" y="53" on="0"/>
        <pt x="310" y="133" on="0"/>
        <pt x="310" y="183" on="1"/>
        <pt x="310" y="740" on="1"/>
        <pt x="372" y="740" on="1"/>
        <pt x="372" y="180" on="1"/>
        <pt x="372" y="132" on="0"/>
        <pt x="361" y="44" on="0"/>
        <pt x="336" y="-43" on="0"/>
        <pt x="297" y="-133" on="0"/>
        <pt x="270" y="-182" on="1"/>
      </contour>
    </TTGlyph>
    <TTGlyph name="Iacute" xMin="82" yMin="0" xMax="227" yMax="927">
      <contour>
        <pt x="82" y="740" on="1"/>
        <pt x="144" y="740" on="1"/>
        <pt x="144" y="0" on="1"/>
        <pt x="82" y="0" on="1"/>
      </contour>
      <contour>
        <pt x="86" y="795" on="1"/>
        <pt x="162" y="927" on="1"/>
        <pt x="227" y="927" on="1"/>
        <pt x="136" y="790" on="1"/>
      </contour>
    </TTGlyph>
    <TTGlyph name="Iacute.sc" xMin="78" yMin="0" xMax="209" yMax="730">
      <contour>
        <pt x="78" y="577" on="1"/>
        <pt x="138" y="577" on="1"/>
        <pt x="138" y="0" on="1"/>
        <pt x="78" y="0" on="1"/>
      </contour>
      <contour>
        <pt x="82" y="621" on="1"/>
        <pt x="147" y="730" on="1"/>
        <pt x="209" y="730" on="1"/>
        <pt x="129" y="618" on="1"/>
      </contour>
    </TTGlyph>
    <TTGlyph name="Ibreve" xMin="-37" yMin="0" xMax="268" yMax="954">
      <contour>
        <pt x="82" y="740" on="1"/>
        <pt x="144" y="740" on="1"/>
        <pt x="144" y="0" on="1"/>
        <pt x="82" y="0" on="1"/>
      </contour>
      <contour>
        <pt x="116" y="813" on="1"/>
        <pt x="42" y="813" on="0"/>
        <pt x="-37" y="888" on="0"/>
        <pt x="-37" y="954" on="1"/>
        <pt x="13" y="954" on="1"/>
        <pt x="13" y="906" on="0"/>
        <pt x="65" y="856" on="0"/>
        <pt x="116" y="856" on="1"/>
        <pt x="165" y="856" on="0"/>
        <pt x="218" y="906" on="0"/>
        <pt x="218" y="954" on="1"/>
        <pt x="268" y="954" on="1"/>
        <pt x="268" y="888" on="0"/>
        <pt x="188" y="813" on="0"/>
      </contour>
    </TTGlyph>
    <TTGlyph name="Ibreve.sc" xMin="-25" yMin="0" xMax="245" yMax="747">
      <contour>
        <pt x="78" y="577" on="1"/>
        <pt x="138" y="577" on="1"/>
        <pt x="138" y="0" on="1"/>
        <pt x="78" y="0" on="1"/>
      </contour>
      <contour>
        <pt x="110" y="632" on="1"/>
        <pt x="44" y="632" on="0"/>
        <pt x="-25" y="693" on="0"/>
        <pt x="-25" y="747" on="1"/>
        <pt x="22" y="747" on="1"/>
        <pt x="22" y="670" on="0"/>
        <pt x="110" y="670" on="1"/>
        <pt x="198" y="670" on="0"/>
        <pt x="198" y="747" on="1"/>
        <pt x="245" y="747" on="1"/>
        <pt x="245" y="693" on="0"/>
        <pt x="175" y="632" on="0"/>
      </contour>
    </TTGlyph>
    <TTGlyph name="Icircumflex" xMin="-23" yMin="0" xMax="253" yMax="942">
      <contour>
        <pt x="82" y="740" on="1"/>
        <pt x="144" y="740" on="1"/>
        <pt x="144" y="0" on="1"/>
        <pt x="82" y="0" on="1"/>
      </contour>
      <contour>
        <pt x="-23" y="870" on="1"/>
        <pt x="115" y="942" on="1"/>
        <pt x="253" y="870" on="1"/>
        <pt x="253" y="814" on="1"/>
        <pt x="115" y="886" on="1"/>
        <pt x="-23" y="814" on="1"/>
      </contour>
    </TTGlyph>
    <TTGlyph name="Icircumflex.sc" xMin="-13" yMin="0" xMax="231" yMax="739">
      <contour>
        <pt x="78" y="577" on="1"/>
        <pt x="138" y="577" on="1"/>
        <pt x="138" y="0" on="1"/>
        <pt x="78" y="0" on="1"/>
      </contour>
      <contour>
        <pt x="-13" y="682" on="1"/>
        <pt x="110" y="739" on="1"/>
        <pt x="231" y="682" on="1"/>
        <pt x="231" y="633" on="1"/>
        <pt x="110" y="689" on="1"/>
        <pt x="-13" y="633" on="1"/>
      </contour>
    </TTGlyph>
    <TTGlyph name="Idblgrave" xMin="-66" yMin="0" xMax="211" yMax="925">
      <contour>
        <pt x="82" y="740" on="1"/>
        <pt x="144" y="740" on="1"/>
        <pt x="144" y="0" on="1"/>
        <pt x="82" y="0" on="1"/>
      </contour>
      <contour>
        <pt x="25" y="788" on="1"/>
        <pt x="-66" y="925" on="1"/>
        <pt x="-6" y="925" on="1"/>
        <pt x="70" y="801" on="1"/>
      </contour>
      <contour>
        <pt x="166" y="788" on="1"/>
        <pt x="74" y="925" on="1"/>
        <pt x="135" y="925" on="1"/>
        <pt x="211" y="801" on="1"/>
      </contour>
    </TTGlyph>
    <TTGlyph name="Idblgrave.sc" xMin="-51" yMin="0" xMax="196" yMax="728">
      <contour>
        <pt x="78" y="577" on="1"/>
        <pt x="138" y="577" on="1"/>
        <pt x="138" y="0" on="1"/>
        <pt x="78" y="0" on="1"/>
      </contour>
      <contour>
        <pt x="30" y="615" on="1"/>
        <pt x="-51" y="728" on="1"/>
        <pt x="7" y="728" on="1"/>
        <pt x="72" y="626" on="1"/>
      </contour>
      <contour>
        <pt x="154" y="615" on="1"/>
        <pt x="73" y="728" on="1"/>
        <pt x="131" y="728" on="1"/>
        <pt x="196" y="626" on="1"/>
      </contour>
    </TTGlyph>
    <TTGlyph name="Idieresis" xMin="-30" yMin="0" xMax="261" yMax="900">
      <contour>
        <pt x="82" y="740" on="1"/>
        <pt x="144" y="740" on="1"/>
        <pt x="144" y="0" on="1"/>
        <pt x="82" y="0" on="1"/>
      </contour>
      <contour>
        <pt x="12" y="815" on="1"/>
        <pt x="-8" y="815" on="0"/>
        <pt x="-30" y="836" on="0"/>
        <pt x="-30" y="858" on="1"/>
        <pt x="-30" y="880" on="0"/>
        <pt x="-8" y="900" on="0"/>
        <pt x="12" y="900" on="1"/>
        <pt x="32" y="900" on="0"/>
        <pt x="56" y="880" on="0"/>
        <pt x="56" y="858" on="1"/>
        <pt x="56" y="835" on="0"/>
        <pt x="32" y="815" on="0"/>
      </contour>
      <contour>
        <pt x="218" y="815" on="1"/>
        <pt x="198" y="815" on="0"/>
        <pt x="175" y="836" on="0"/>
        <pt x="175" y="858" on="1"/>
        <pt x="175" y="880" on="0"/>
        <pt x="198" y="900" on="0"/>
        <pt x="218" y="900" on="1"/>
        <pt x="237" y="900" on="0"/>
        <pt x="261" y="880" on="0"/>
        <pt x="261" y="858" on="1"/>
        <pt x="261" y="835" on="0"/>
        <pt x="237" y="815" on="0"/>
      </contour>
    </TTGlyph>
    <TTGlyph name="Idieresis.sc" xMin="-22" yMin="0" xMax="242" yMax="712">
      <contour>
        <pt x="78" y="577" on="1"/>
        <pt x="138" y="577" on="1"/>
        <pt x="138" y="0" on="1"/>
        <pt x="78" y="0" on="1"/>
      </contour>
      <contour>
        <pt x="18" y="635" on="1"/>
        <pt x="-22" y="635" on="0"/>
        <pt x="-22" y="673" on="1"/>
        <pt x="-22" y="712" on="0"/>
        <pt x="18" y="712" on="1"/>
        <pt x="58" y="712" on="0"/>
        <pt x="58" y="673" on="1"/>
        <pt x="58" y="635" on="0"/>
      </contour>
      <contour>
        <pt x="201" y="635" on="1"/>
        <pt x="161" y="635" on="0"/>
        <pt x="161" y="673" on="1"/>
        <pt x="161" y="712" on="0"/>
        <pt x="201" y="712" on="1"/>
        <pt x="220" y="712" on="0"/>
        <pt x="242" y="693" on="0"/>
        <pt x="242" y="673" on="1"/>
        <pt x="242" y="653" on="0"/>
        <pt x="220" y="635" on="0"/>
      </contour>
    </TTGlyph>
    <TTGlyph name="Idotaccent" xMin="72" yMin="0" xMax="158" yMax="890">
      <contour>
        <pt x="82" y="740" on="1"/>
        <pt x="144" y="740" on="1"/>
        <pt x="144" y="0" on="1"/>
        <pt x="82" y="0" on="1"/>
      </contour>
      <contour>
        <pt x="115" y="805" on="1"/>
        <pt x="72" y="805" on="0"/>
        <pt x="72" y="847" on="1"/>
        <pt x="72" y="890" on="0"/>
        <pt x="115" y="890" on="1"/>
        <pt x="135" y="890" on="0"/>
        <pt x="158" y="869" on="0"/>
        <pt x="158" y="847" on="1"/>
        <pt x="158" y="825" on="0"/>
        <pt x="135" y="805" on="0"/>
      </contour>
    </TTGlyph>
    <TTGlyph name="Idotaccent.sc" xMin="70" yMin="0" xMax="150" yMax="704">
      <contour>
        <pt x="78" y="577" on="1"/>
        <pt x="138" y="577" on="1"/>
        <pt x="138" y="0" on="1"/>
        <pt x="78" y="0" on="1"/>
      </contour>
      <contour>
        <pt x="109" y="628" on="1"/>
        <pt x="90" y="628" on="0"/>
        <pt x="70" y="646" on="0"/>
        <pt x="70" y="667" on="1"/>
        <pt x="70" y="704" on="0"/>
        <pt x="109" y="704" on="1"/>
        <pt x="128" y="704" on="0"/>
        <pt x="150" y="687" on="0"/>
        <pt x="150" y="667" on="1"/>
        <pt x="150" y="646" on="0"/>
        <pt x="128" y="628" on="0"/>
      </contour>
    </TTGlyph>
    <TTGlyph name="Idotbelow" xMin="72" yMin="-172" xMax="158" yMax="740">
      <contour>
        <pt x="82" y="740" on="1"/>
        <pt x="144" y="740" on="1"/>
        <pt x="144" y="0" on="1"/>
        <pt x="82" y="0" on="1"/>
      </contour>
      <contour>
        <pt x="115" y="-172" on="1"/>
        <pt x="94" y="-172" on="0"/>
        <pt x="72" y="-152" on="0"/>
        <pt x="72" y="-129" on="1"/>
        <pt x="72" y="-106" on="0"/>
        <pt x="94" y="-86" on="0"/>
        <pt x="115" y="-86" on="1"/>
        <pt x="135" y="-86" on="0"/>
        <pt x="158" y="-106" on="0"/>
        <pt x="158" y="-129" on="1"/>
        <pt x="158" y="-152" on="0"/>
        <pt x="135" y="-172" on="0"/>
      </contour>
    </TTGlyph>
    <TTGlyph name="Idotbelow.sc" xMin="71" yMin="-138" xMax="149" yMax="577">
      <contour>
        <pt x="78" y="577" on="1"/>
        <pt x="138" y="577" on="1"/>
        <pt x="138" y="0" on="1"/>
        <pt x="78" y="0" on="1"/>
      </contour>
      <contour>
        <pt x="109" y="-138" on="1"/>
        <pt x="90" y="-138" on="0"/>
        <pt x="71" y="-122" on="0"/>
        <pt x="71" y="-102" on="1"/>
        <pt x="71" y="-65" on="0"/>
        <pt x="109" y="-65" on="1"/>
        <pt x="127" y="-65" on="0"/>
        <pt x="149" y="-82" on="0"/>
        <pt x="149" y="-102" on="1"/>
        <pt x="149" y="-122" on="0"/>
        <pt x="127" y="-138" on="0"/>
      </contour>
    </TTGlyph>
    <TTGlyph name="Igrave" xMin="-2" yMin="0" xMax="144" yMax="927">
      <contour>
        <pt x="82" y="740" on="1"/>
        <pt x="144" y="740" on="1"/>
        <pt x="144" y="0" on="1"/>
        <pt x="82" y="0" on="1"/>
      </contour>
      <contour>
        <pt x="89" y="790" on="1"/>
        <pt x="-2" y="927" on="1"/>
        <pt x="63" y="927" on="1"/>
        <pt x="139" y="803" on="1"/>
      </contour>
    </TTGlyph>
    <TTGlyph name="Igrave.sc" xMin="5" yMin="0" xMax="138" yMax="730">
      <contour>
        <pt x="78" y="577" on="1"/>
        <pt x="138" y="577" on="1"/>
        <pt x="138" y="0" on="1"/>
        <pt x="78" y="0" on="1"/>
      </contour>
      <contour>
        <pt x="85" y="618" on="1"/>
        <pt x="5" y="730" on="1"/>
        <pt x="68" y="730" on="1"/>
        <pt x="133" y="627" on="1"/>
      </contour>
    </TTGlyph>
    <TTGlyph name="Iinvertedbreve" xMin="-38" yMin="0" xMax="268" yMax="961">
      <contour>
        <pt x="82" y="740" on="1"/>
        <pt x="144" y="740" on="1"/>
        <pt x="144" y="0" on="1"/>
        <pt x="82" y="0" on="1"/>
      </contour>
      <contour>
        <pt x="218" y="821" on="1"/>
        <pt x="218" y="868" on="0"/>
        <pt x="165" y="919" on="0"/>
        <pt x="115" y="919" on="1"/>
        <pt x="65" y="919" on="0"/>
        <pt x="12" y="868" on="0"/>
        <pt x="12" y="821" on="1"/>
        <pt x="-38" y="821" on="1"/>
        <pt x="-38" y="887" on="0"/>
        <pt x="42" y="961" on="0"/>
        <pt x="115" y="961" on="1"/>
        <pt x="188" y="961" on="0"/>
        <pt x="268" y="887" on="0"/>
        <pt x="268" y="821" on="1"/>
      </contour>
    </TTGlyph>
    <TTGlyph name="Iinvertedbreve.sc" xMin="-25" yMin="0" xMax="245" yMax="752">
      <contour>
        <pt x="78" y="577" on="1"/>
        <pt x="138" y="577" on="1"/>
        <pt x="138" y="0" on="1"/>
        <pt x="78" y="0" on="1"/>
      </contour>
      <contour>
        <pt x="198" y="639" on="1"/>
        <pt x="198" y="715" on="0"/>
        <pt x="110" y="715" on="1"/>
        <pt x="22" y="715" on="0"/>
        <pt x="22" y="639" on="1"/>
        <pt x="-25" y="639" on="1"/>
        <pt x="-25" y="692" on="0"/>
        <pt x="44" y="752" on="0"/>
        <pt x="110" y="752" on="1"/>
        <pt x="175" y="752" on="0"/>
        <pt x="245" y="692" on="0"/>
        <pt x="245" y="639" on="1"/>
      </contour>
    </TTGlyph>
    <TTGlyph name="Imacron" xMin="-18" yMin="0" xMax="236" yMax="891">
      <contour>
        <pt x="82" y="740" on="1"/>
        <pt x="144" y="740" on="1"/>
        <pt x="144" y="0" on="1"/>
        <pt x="82" y="0" on="1"/>
      </contour>
      <contour>
        <pt x="-18" y="891" on="1"/>
        <pt x="236" y="891" on="1"/>
        <pt x="236" y="841" on="1"/>
        <pt x="-18" y="841" on="1"/>
      </contour>
    </TTGlyph>
    <TTGlyph name="Imacron.sc" xMin="-9" yMin="0" xMax="219" yMax="701">
      <contour>
        <pt x="78" y="577" on="1"/>
        <pt x="138" y="577" on="1"/>
        <pt x="138" y="0" on="1"/>
        <pt x="78" y="0" on="1"/>
      </contour>
      <contour>
        <pt x="-9" y="701" on="1"/>
        <pt x="219" y="701" on="1"/>
        <pt x="219" y="656" on="1"/>
        <pt x="-9" y="656" on="1"/>
      </contour>
    </TTGlyph>
    <TTGlyph name="Iogonek" xMin="-5" yMin="-220" xMax="144" yMax="740">
      <contour>
        <pt x="82" y="740" on="1"/>
        <pt x="144" y="740" on="1"/>
        <pt x="144" y="-18" on="1"/>
        <pt x="92" y="-42" on="0"/>
        <pt x="44" y="-100" on="0"/>
        <pt x="44" y="-132" on="1"/>
        <pt x="44" y="-175" on="0"/>
        <pt x="91" y="-175" on="1"/>
        <pt x="117" y="-175" on="0"/>
        <pt x="144" y="-164" on="1"/>
        <pt x="144" y="-208" on="1"/>
        <pt x="117" y="-220" on="0"/>
        <pt x="85" y="-220" on="1"/>
        <pt x="41" y="-220" on="0"/>
        <pt x="-5" y="-178" on="0"/>
        <pt x="-5" y="-136" on="1"/>
        <pt x="-5" y="-97" on="0"/>
        <pt x="42" y="-32" on="0"/>
        <pt x="93" y="0" on="1"/>
        <pt x="82" y="0" on="1"/>
      </contour>
    </TTGlyph>
    <TTGlyph name="Iogonek.sc" xMin="4" yMin="-172" xMax="138" yMax="577">
      <contour>
        <pt x="78" y="577" on="1"/>
        <pt x="138" y="577" on="1"/>
        <pt x="138" y="-13" on="1"/>
        <pt x="95" y="-29" on="0"/>
        <pt x="50" y="-75" on="0"/>
        <pt x="50" y="-100" on="1"/>
        <pt x="50" y="-132" on="0"/>
        <pt x="90" y="-132" on="1"/>
        <pt x="102" y="-132" on="0"/>
        <pt x="126" y="-127" on="0"/>
        <pt x="137" y="-123" on="1"/>
        <pt x="137" y="-162" on="1"/>
        <pt x="125" y="-167" on="0"/>
        <pt x="99" y="-172" on="0"/>
        <pt x="85" y="-172" on="1"/>
        <pt x="46" y="-172" on="0"/>
        <pt x="4" y="-137" on="0"/>
        <pt x="4" y="-105" on="1"/>
        <pt x="4" y="-75" on="0"/>
        <pt x="43" y="-26" on="0"/>
        <pt x="87" y="0" on="1"/>
        <pt x="78" y="0" on="1"/>
      </contour>
    </TTGlyph>
    <TTGlyph name="Itilde" xMin="-47" yMin="0" xMax="285" yMax="915">
      <contour>
        <pt x="82" y="740" on="1"/>
        <pt x="144" y="740" on="1"/>
        <pt x="144" y="0" on="1"/>
        <pt x="82" y="0" on="1"/>
      </contour>
      <contour>
        <pt x="-47" y="852" on="1"/>
        <pt x="-27" y="879" on="0"/>
        <pt x="28" y="915" on="0"/>
        <pt x="55" y="915" on="1"/>
        <pt x="76" y="915" on="0"/>
        <pt x="110" y="902" on="0"/>
        <pt x="142" y="885" on="0"/>
        <pt x="175" y="872" on="0"/>
        <pt x="193" y="872" on="1"/>
        <pt x="211" y="872" on="0"/>
        <pt x="245" y="893" on="0"/>
        <pt x="259" y="912" on="1"/>
        <pt x="285" y="890" on="1"/>
        <pt x="268" y="860" on="0"/>
        <pt x="213" y="824" on="0"/>
        <pt x="184" y="824" on="1"/>
        <pt x="164" y="824" on="0"/>
        <pt x="130" y="837" on="0"/>
        <pt x="98" y="853" on="0"/>
        <pt x="66" y="866" on="0"/>
        <pt x="48" y="866" on="1"/>
        <pt x="29" y="866" on="0"/>
        <pt x="-7" y="845" on="0"/>
        <pt x="-23" y="828" on="1"/>
      </contour>
    </TTGlyph>
    <TTGlyph name="Itilde.sc" xMin="-34" yMin="0" xMax="261" yMax="719">
      <contour>
        <pt x="78" y="577" on="1"/>
        <pt x="138" y="577" on="1"/>
        <pt x="138" y="0" on="1"/>
        <pt x="78" y="0" on="1"/>
      </contour>
      <contour>
        <pt x="-34" y="665" on="1"/>
        <pt x="-15" y="689" on="0"/>
        <pt x="33" y="719" on="0"/>
        <pt x="58" y="719" on="1"/>
        <pt x="76" y="719" on="0"/>
        <pt x="106" y="709" on="0"/>
        <pt x="135" y="697" on="0"/>
        <pt x="163" y="687" on="0"/>
        <pt x="179" y="687" on="1"/>
        <pt x="211" y="687" on="0"/>
        <pt x="239" y="718" on="1"/>
        <pt x="261" y="700" on="1"/>
        <pt x="244" y="673" on="0"/>
        <pt x="196" y="642" on="0"/>
        <pt x="170" y="642" on="1"/>
        <pt x="153" y="642" on="0"/>
        <pt x="122" y="653" on="0"/>
        <pt x="94" y="665" on="0"/>
        <pt x="65" y="676" on="0"/>
        <pt x="49" y="676" on="1"/>
        <pt x="33" y="676" on="0"/>
        <pt x="1" y="659" on="0"/>
        <pt x="-14" y="645" on="1"/>
      </contour>
    </TTGlyph>
    <TTGlyph name="J" xMin="2" yMin="-182" xMax="146" yMax="740">
      <contour>
        <pt x="2" y="-159" on="1"/>
        <pt x="26" y="-107" on="0"/>
        <pt x="58" y="-24" on="0"/>
        <pt x="77" y="53" on="0"/>
        <pt x="84" y="133" on="0"/>
        <pt x="84" y="183" on="1"/>
        <pt x="84" y="740" on="1"/>
        <pt x="146" y="740" on="1"/>
        <pt x="146" y="180" on="1"/>
        <pt x="146" y="132" on="0"/>
        <pt x="135" y="44" on="0"/>
        <pt x="110" y="-43" on="0"/>
        <pt x="71" y="-133" on="0"/>
        <pt x="44" y="-182" on="1"/>
      </contour>
    </TTGlyph>
    <TTGlyph name="J.sc" xMin="10" yMin="-145" xMax="140" yMax="577">
      <contour>
        <pt x="10" y="-124" on="1"/>
        <pt x="31" y="-84" on="0"/>
        <pt x="58" y="-19" on="0"/>
        <pt x="74" y="42" on="0"/>
        <pt x="80" y="105" on="0"/>
        <pt x="80" y="144" on="1"/>
        <pt x="80" y="577" on="1"/>
        <pt x="140" y="577" on="1"/>
        <pt x="140" y="140" on="1"/>
        <pt x="140" y="102" on="0"/>
        <pt x="130" y="34" on="0"/>
        <pt x="109" y="-34" on="0"/>
        <pt x="74" y="-105" on="0"/>
        <pt x="50" y="-145" on="1"/>
      </contour>
    </TTGlyph>
    <TTGlyph name="Jcircumflex" xMin="-25" yMin="-182" xMax="251" yMax="942">
      <contour>
        <pt x="2" y="-159" on="1"/>
        <pt x="26" y="-107" on="0"/>
        <pt x="58" y="-24" on="0"/>
        <pt x="77" y="53" on="0"/>
        <pt x="84" y="133" on="0"/>
        <pt x="84" y="183" on="1"/>
        <pt x="84" y="740" on="1"/>
        <pt x="146" y="740" on="1"/>
        <pt x="146" y="180" on="1"/>
        <pt x="146" y="132" on="0"/>
        <pt x="135" y="44" on="0"/>
        <pt x="110" y="-43" on="0"/>
        <pt x="71" y="-133" on="0"/>
        <pt x="44" y="-182" on="1"/>
      </contour>
      <contour>
        <pt x="-25" y="870" on="1"/>
        <pt x="113" y="942" on="1"/>
        <pt x="251" y="870" on="1"/>
        <pt x="251" y="814" on="1"/>
        <pt x="113" y="886" on="1"/>
        <pt x="-25" y="814" on="1"/>
      </contour>
    </TTGlyph>
    <TTGlyph name="Jcircumflex.sc" xMin="-14" yMin="-145" xMax="230" yMax="739">
      <contour>
        <pt x="10" y="-124" on="1"/>
        <pt x="31" y="-84" on="0"/>
        <pt x="57" y="-19" on="0"/>
        <pt x="73" y="42" on="0"/>
        <pt x="79" y="105" on="0"/>
        <pt x="79" y="144" on="1"/>
        <pt x="79" y="577" on="1"/>
        <pt x="139" y="577" on="1"/>
        <pt x="139" y="140" on="1"/>
        <pt x="139" y="102" on="0"/>
        <pt x="129" y="34" on="0"/>
        <pt x="108" y="-34" on="0"/>
        <pt x="74" y="-105" on="0"/>
        <pt x="50" y="-145" on="1"/>
      </contour>
      <contour>
        <pt x="-14" y="682" on="1"/>
        <pt x="109" y="739" on="1"/>
        <pt x="230" y="682" on="1"/>
        <pt x="230" y="633" on="1"/>
        <pt x="109" y="689" on="1"/>
        <pt x="-14" y="633" on="1"/>
      </contour>
    </TTGlyph>
    <TTGlyph name="K" xMin="82" yMin="0" xMax="580" yMax="740">
      <contour>
        <pt x="82" y="740" on="1"/>
        <pt x="144" y="740" on="1"/>
        <pt x="144" y="404" on="1"/>
        <pt x="251" y="404" on="1"/>
        <pt x="488" y="740" on="1"/>
        <pt x="561" y="740" on="1"/>
        <pt x="325" y="406" on="1"/>
        <pt x="296" y="381" on="1"/>
        <pt x="296" y="376" on="1"/>
        <pt x="327" y="352" on="1"/>
        <pt x="580" y="0" on="1"/>
        <pt x="508" y="0" on="1"/>
        <pt x="257" y="349" on="1"/>
        <pt x="144" y="349" on="1"/>
        <pt x="144" y="0" on="1"/>
        <pt x="82" y="0" on="1"/>
      </contour>
    </TTGlyph>
    <TTGlyph name="K.sc" xMin="78" yMin="0" xMax="516" yMax="577">
      <contour>
        <pt x="78" y="577" on="1"/>
        <pt x="138" y="577" on="1"/>
        <pt x="138" y="320" on="1"/>
        <pt x="232" y="320" on="1"/>
        <pt x="430" y="577" on="1"/>
        <pt x="500" y="577" on="1"/>
        <pt x="301" y="317" on="1"/>
        <pt x="273" y="297" on="1"/>
        <pt x="273" y="293" on="1"/>
        <pt x="303" y="274" on="1"/>
        <pt x="516" y="0" on="1"/>
        <pt x="447" y="0" on="1"/>
        <pt x="236" y="268" on="1"/>
        <pt x="138" y="268" on="1"/>
        <pt x="138" y="0" on="1"/>
        <pt x="78" y="0" on="1"/>
      </contour>
    </TTGlyph>
    <TTGlyph name="Kcommaaccent" xMin="82" yMin="-220" xMax="580" yMax="740">
      <contour>
        <pt x="275" y="-67" on="1"/>
        <pt x="338" y="-67" on="1"/>
        <pt x="278" y="-220" on="1"/>
        <pt x="225" y="-220" on="1"/>
      </contour>
      <contour>
        <pt x="82" y="740" on="1"/>
        <pt x="144" y="740" on="1"/>
        <pt x="144" y="404" on="1"/>
        <pt x="251" y="404" on="1"/>
        <pt x="488" y="740" on="1"/>
        <pt x="561" y="740" on="1"/>
        <pt x="325" y="406" on="1"/>
        <pt x="296" y="381" on="1"/>
        <pt x="296" y="376" on="1"/>
        <pt x="327" y="352" on="1"/>
        <pt x="580" y="0" on="1"/>
        <pt x="508" y="0" on="1"/>
        <pt x="257" y="349" on="1"/>
        <pt x="144" y="349" on="1"/>
        <pt x="144" y="0" on="1"/>
        <pt x="82" y="0" on="1"/>
      </contour>
    </TTGlyph>
    <TTGlyph name="Kcommaaccent.sc" xMin="78" yMin="-172" xMax="516" yMax="577">
      <contour>
        <pt x="78" y="577" on="1"/>
        <pt x="138" y="577" on="1"/>
        <pt x="138" y="320" on="1"/>
        <pt x="232" y="320" on="1"/>
        <pt x="430" y="577" on="1"/>
        <pt x="500" y="577" on="1"/>
        <pt x="301" y="317" on="1"/>
        <pt x="273" y="297" on="1"/>
        <pt x="273" y="293" on="1"/>
        <pt x="303" y="274" on="1"/>
        <pt x="516" y="0" on="1"/>
        <pt x="447" y="0" on="1"/>
        <pt x="236" y="268" on="1"/>
        <pt x="138" y="268" on="1"/>
        <pt x="138" y="0" on="1"/>
        <pt x="78" y="0" on="1"/>
      </contour>
      <contour>
        <pt x="247" y="-53" on="1"/>
        <pt x="308" y="-53" on="1"/>
        <pt x="255" y="-172" on="1"/>
        <pt x="205" y="-172" on="1"/>
      </contour>
    </TTGlyph>
    <TTGlyph name="L" xMin="82" yMin="0" xMax="427" yMax="740">
      <contour>
        <pt x="82" y="740" on="1"/>
        <pt x="144" y="740" on="1"/>
        <pt x="144" y="55" on="1"/>
        <pt x="427" y="55" on="1"/>
        <pt x="427" y="0" on="1"/>
        <pt x="82" y="0" on="1"/>
      </contour>
    </TTGlyph>
    <TTGlyph name="L.sc" xMin="78" yMin="0" xMax="384" yMax="577">
      <contour>
        <pt x="78" y="577" on="1"/>
        <pt x="138" y="577" on="1"/>
        <pt x="138" y="52" on="1"/>
        <pt x="384" y="52" on="1"/>
        <pt x="384" y="0" on="1"/>
        <pt x="78" y="0" on="1"/>
      </contour>
    </TTGlyph>
    <TTGlyph name="Lacute" xMin="82" yMin="0" xMax="427" yMax="927">
      <contour>
        <pt x="95" y="795" on="1"/>
        <pt x="171" y="927" on="1"/>
        <pt x="236" y="927" on="1"/>
        <pt x="145" y="790" on="1"/>
      </contour>
      <contour>
        <pt x="82" y="740" on="1"/>
        <pt x="144" y="740" on="1"/>
        <pt x="144" y="55" on="1"/>
        <pt x="427" y="55" on="1"/>
        <pt x="427" y="0" on="1"/>
        <pt x="82" y="0" on="1"/>
      </contour>
    </TTGlyph>
    <TTGlyph name="Lacute.sc" xMin="78" yMin="0" xMax="385" yMax="730">
      <contour>
        <pt x="78" y="577" on="1"/>
        <pt x="138" y="577" on="1"/>
        <pt x="138" y="52" on="1"/>
        <pt x="385" y="52" on="1"/>
        <pt x="385" y="0" on="1"/>
        <pt x="78" y="0" on="1"/>
      </contour>
      <contour>
        <pt x="89" y="621" on="1"/>
        <pt x="154" y="730" on="1"/>
        <pt x="217" y="730" on="1"/>
        <pt x="136" y="618" on="1"/>
      </contour>
    </TTGlyph>
    <TTGlyph name="Lcaron" xMin="82" yMin="0" xMax="427" yMax="751">
      <contour>
        <pt x="339" y="751" on="1"/>
        <pt x="393" y="751" on="1"/>
        <pt x="368" y="523" on="1"/>
        <pt x="339" y="523" on="1"/>
      </contour>
      <contour>
        <pt x="82" y="740" on="1"/>
        <pt x="144" y="740" on="1"/>
        <pt x="144" y="55" on="1"/>
        <pt x="427" y="55" on="1"/>
        <pt x="427" y="0" on="1"/>
        <pt x="82" y="0" on="1"/>
      </contour>
    </TTGlyph>
    <TTGlyph name="Lcaron.sc" xMin="78" yMin="0" xMax="384" yMax="590">
      <contour>
        <pt x="78" y="577" on="1"/>
        <pt x="138" y="577" on="1"/>
        <pt x="138" y="52" on="1"/>
        <pt x="384" y="52" on="1"/>
        <pt x="384" y="0" on="1"/>
        <pt x="78" y="0" on="1"/>
      </contour>
      <contour>
        <pt x="306" y="590" on="1"/>
        <pt x="358" y="590" on="1"/>
        <pt x="335" y="413" on="1"/>
        <pt x="306" y="413" on="1"/>
      </contour>
    </TTGlyph>
    <TTGlyph name="Lcommaaccent" xMin="82" yMin="-220" xMax="427" yMax="740">
      <contour>
        <pt x="234" y="-67" on="1"/>
        <pt x="297" y="-67" on="1"/>
        <pt x="237" y="-220" on="1"/>
        <pt x="184" y="-220" on="1"/>
      </contour>
      <contour>
        <pt x="82" y="740" on="1"/>
        <pt x="144" y="740" on="1"/>
        <pt x="144" y="55" on="1"/>
        <pt x="427" y="55" on="1"/>
        <pt x="427" y="0" on="1"/>
        <pt x="82" y="0" on="1"/>
      </contour>
    </TTGlyph>
    <TTGlyph name="Lcommaaccent.sc" xMin="78" yMin="-172" xMax="384" yMax="577">
      <contour>
        <pt x="78" y="577" on="1"/>
        <pt x="138" y="577" on="1"/>
        <pt x="138" y="52" on="1"/>
        <pt x="384" y="52" on="1"/>
        <pt x="384" y="0" on="1"/>
        <pt x="78" y="0" on="1"/>
      </contour>
      <contour>
        <pt x="209" y="-53" on="1"/>
        <pt x="270" y="-53" on="1"/>
        <pt x="217" y="-172" on="1"/>
        <pt x="167" y="-172" on="1"/>
      </contour>
    </TTGlyph>
    <TTGlyph name="Ldot" xMin="82" yMin="0" xMax="427" yMax="740">
      <contour>
        <pt x="82" y="740" on="1"/>
        <pt x="144" y="740" on="1"/>
        <pt x="144" y="55" on="1"/>
        <pt x="427" y="55" on="1"/>
        <pt x="427" y="0" on="1"/>
        <pt x="82" y="0" on="1"/>
      </contour>
      <contour>
        <pt x="342" y="328" on="1"/>
        <pt x="299" y="328" on="0"/>
        <pt x="299" y="371" on="1"/>
        <pt x="299" y="414" on="0"/>
        <pt x="342" y="414" on="1"/>
        <pt x="362" y="414" on="0"/>
        <pt x="385" y="393" on="0"/>
        <pt x="385" y="371" on="1"/>
        <pt x="385" y="349" on="0"/>
        <pt x="362" y="328" on="0"/>
      </contour>
    </TTGlyph>
    <TTGlyph name="Ldot.sc" xMin="78" yMin="0" xMax="384" yMax="577">
      <contour>
        <pt x="78" y="577" on="1"/>
        <pt x="138" y="577" on="1"/>
        <pt x="138" y="52" on="1"/>
        <pt x="384" y="52" on="1"/>
        <pt x="384" y="0" on="1"/>
        <pt x="78" y="0" on="1"/>
      </contour>
      <contour>
        <pt x="312" y="252" on="1"/>
        <pt x="273" y="252" on="0"/>
        <pt x="273" y="291" on="1"/>
        <pt x="273" y="329" on="0"/>
        <pt x="312" y="329" on="1"/>
        <pt x="331" y="329" on="0"/>
        <pt x="353" y="311" on="0"/>
        <pt x="353" y="291" on="1"/>
        <pt x="353" y="271" on="0"/>
        <pt x="331" y="252" on="0"/>
      </contour>
    </TTGlyph>
    <TTGlyph name="Lslash" xMin="13" yMin="0" xMax="450" yMax="740">
      <contour>
        <pt x="13" y="283" on="1"/>
        <pt x="105" y="355" on="1"/>
        <pt x="105" y="740" on="1"/>
        <pt x="167" y="740" on="1"/>
        <pt x="167" y="404" on="1"/>
        <pt x="287" y="499" on="1"/>
        <pt x="287" y="438" on="1"/>
        <pt x="167" y="343" on="1"/>
        <pt x="167" y="55" on="1"/>
        <pt x="450" y="55" on="1"/>
        <pt x="450" y="0" on="1"/>
        <pt x="105" y="0" on="1"/>
        <pt x="105" y="294" on="1"/>
        <pt x="13" y="222" on="1"/>
      </contour>
    </TTGlyph>
    <TTGlyph name="Lslash.sc" xMin="20" yMin="0" xMax="404" yMax="577">
      <contour>
        <pt x="20" y="228" on="1"/>
        <pt x="98" y="285" on="1"/>
        <pt x="98" y="577" on="1"/>
        <pt x="158" y="577" on="1"/>
        <pt x="158" y="320" on="1"/>
        <pt x="264" y="394" on="1"/>
        <pt x="264" y="340" on="1"/>
        <pt x="158" y="266" on="1"/>
        <pt x="158" y="52" on="1"/>
        <pt x="404" y="52" on="1"/>
        <pt x="404" y="0" on="1"/>
        <pt x="98" y="0" on="1"/>
        <pt x="98" y="230" on="1"/>
        <pt x="20" y="174" on="1"/>
      </contour>
    </TTGlyph>
    <TTGlyph name="M" xMin="82" yMin="0" xMax="743" yMax="740">
      <contour>
        <pt x="82" y="740" on="1"/>
        <pt x="165" y="740" on="1"/>
        <pt x="367" y="220" on="1"/>
        <pt x="409" y="103" on="1"/>
        <pt x="415" y="103" on="1"/>
        <pt x="457" y="220" on="1"/>
        <pt x="660" y="740" on="1"/>
        <pt x="743" y="740" on="1"/>
        <pt x="743" y="0" on="1"/>
        <pt x="683" y="0" on="1"/>
        <pt x="683" y="637" on="1"/>
        <pt x="678" y="638" on="1"/>
        <pt x="627" y="500" on="1"/>
        <pt x="443" y="31" on="1"/>
        <pt x="380" y="31" on="1"/>
        <pt x="197" y="500" on="1"/>
        <pt x="145" y="638" on="1"/>
        <pt x="140" y="637" on="1"/>
        <pt x="140" y="0" on="1"/>
        <pt x="82" y="0" on="1"/>
      </contour>
    </TTGlyph>
    <TTGlyph name="M.sc" xMin="78" yMin="0" xMax="658" yMax="577">
      <contour>
        <pt x="78" y="577" on="1"/>
        <pt x="158" y="577" on="1"/>
        <pt x="329" y="187" on="1"/>
        <pt x="365" y="94" on="1"/>
        <pt x="371" y="94" on="1"/>
        <pt x="407" y="187" on="1"/>
        <pt x="579" y="577" on="1"/>
        <pt x="658" y="577" on="1"/>
        <pt x="658" y="0" on="1"/>
        <pt x="602" y="0" on="1"/>
        <pt x="602" y="489" on="1"/>
        <pt x="597" y="490" on="1"/>
        <pt x="549" y="373" on="1"/>
        <pt x="398" y="25" on="1"/>
        <pt x="338" y="25" on="1"/>
        <pt x="187" y="373" on="1"/>
        <pt x="139" y="490" on="1"/>
        <pt x="135" y="489" on="1"/>
        <pt x="135" y="0" on="1"/>
        <pt x="78" y="0" on="1"/>
      </contour>
    </TTGlyph>
    <TTGlyph name="N" xMin="82" yMin="0" xMax="607" yMax="740">
      <contour>
        <pt x="82" y="740" on="1"/>
        <pt x="141" y="740" on="1"/>
        <pt x="494" y="190" on="1"/>
        <pt x="544" y="104" on="1"/>
        <pt x="549" y="104" on="1"/>
        <pt x="549" y="740" on="1"/>
        <pt x="607" y="740" on="1"/>
        <pt x="607" y="0" on="1"/>
        <pt x="547" y="0" on="1"/>
        <pt x="195" y="548" on="1"/>
        <pt x="145" y="635" on="1"/>
        <pt x="139" y="635" on="1"/>
        <pt x="139" y="0" on="1"/>
        <pt x="82" y="0" on="1"/>
      </contour>
    </TTGlyph>
    <TTGlyph name="N.sc" xMin="78" yMin="0" xMax="537" yMax="577">
      <contour>
        <pt x="78" y="577" on="1"/>
        <pt x="133" y="577" on="1"/>
        <pt x="432" y="163" on="1"/>
        <pt x="477" y="96" on="1"/>
        <pt x="481" y="97" on="1"/>
        <pt x="481" y="577" on="1"/>
        <pt x="537" y="577" on="1"/>
        <pt x="537" y="0" on="1"/>
        <pt x="482" y="0" on="1"/>
        <pt x="183" y="413" on="1"/>
        <pt x="138" y="481" on="1"/>
        <pt x="133" y="481" on="1"/>
        <pt x="133" y="0" on="1"/>
        <pt x="78" y="0" on="1"/>
      </contour>
    </TTGlyph>
    <TTGlyph name="Nacute" xMin="82" yMin="0" xMax="607" yMax="927">
      <contour>
        <pt x="317" y="795" on="1"/>
        <pt x="393" y="927" on="1"/>
        <pt x="458" y="927" on="1"/>
        <pt x="367" y="790" on="1"/>
      </contour>
      <contour>
        <pt x="82" y="740" on="1"/>
        <pt x="141" y="740" on="1"/>
        <pt x="494" y="190" on="1"/>
        <pt x="544" y="104" on="1"/>
        <pt x="549" y="104" on="1"/>
        <pt x="549" y="740" on="1"/>
        <pt x="607" y="740" on="1"/>
        <pt x="607" y="0" on="1"/>
        <pt x="547" y="0" on="1"/>
        <pt x="195" y="548" on="1"/>
        <pt x="145" y="635" on="1"/>
        <pt x="139" y="635" on="1"/>
        <pt x="139" y="0" on="1"/>
        <pt x="82" y="0" on="1"/>
      </contour>
    </TTGlyph>
    <TTGlyph name="Nacute.sc" xMin="78" yMin="0" xMax="537" yMax="730">
      <contour>
        <pt x="78" y="577" on="1"/>
        <pt x="133" y="577" on="1"/>
        <pt x="432" y="163" on="1"/>
        <pt x="477" y="96" on="1"/>
        <pt x="481" y="97" on="1"/>
        <pt x="481" y="577" on="1"/>
        <pt x="537" y="577" on="1"/>
        <pt x="537" y="0" on="1"/>
        <pt x="482" y="0" on="1"/>
        <pt x="183" y="413" on="1"/>
        <pt x="138" y="481" on="1"/>
        <pt x="133" y="481" on="1"/>
        <pt x="133" y="0" on="1"/>
        <pt x="78" y="0" on="1"/>
      </contour>
      <contour>
        <pt x="280" y="621" on="1"/>
        <pt x="345" y="730" on="1"/>
        <pt x="407" y="730" on="1"/>
        <pt x="327" y="618" on="1"/>
      </contour>
    </TTGlyph>
    <TTGlyph name="Ncaron" xMin="82" yMin="0" xMax="607" yMax="929">
      <contour>
        <pt x="213" y="929" on="1"/>
        <pt x="351" y="857" on="1"/>
        <pt x="489" y="929" on="1"/>
        <pt x="489" y="874" on="1"/>
        <pt x="350" y="801" on="1"/>
        <pt x="213" y="874" on="1"/>
      </contour>
      <contour>
        <pt x="82" y="740" on="1"/>
        <pt x="141" y="740" on="1"/>
        <pt x="494" y="190" on="1"/>
        <pt x="544" y="104" on="1"/>
        <pt x="549" y="104" on="1"/>
        <pt x="549" y="740" on="1"/>
        <pt x="607" y="740" on="1"/>
        <pt x="607" y="0" on="1"/>
        <pt x="547" y="0" on="1"/>
        <pt x="195" y="548" on="1"/>
        <pt x="145" y="635" on="1"/>
        <pt x="139" y="635" on="1"/>
        <pt x="139" y="0" on="1"/>
        <pt x="82" y="0" on="1"/>
      </contour>
    </TTGlyph>
    <TTGlyph name="Ncaron.sc" xMin="78" yMin="0" xMax="537" yMax="731">
      <contour>
        <pt x="78" y="577" on="1"/>
        <pt x="133" y="577" on="1"/>
        <pt x="432" y="163" on="1"/>
        <pt x="477" y="96" on="1"/>
        <pt x="481" y="97" on="1"/>
        <pt x="481" y="577" on="1"/>
        <pt x="537" y="577" on="1"/>
        <pt x="537" y="0" on="1"/>
        <pt x="482" y="0" on="1"/>
        <pt x="183" y="413" on="1"/>
        <pt x="138" y="481" on="1"/>
        <pt x="133" y="481" on="1"/>
        <pt x="133" y="0" on="1"/>
        <pt x="78" y="0" on="1"/>
      </contour>
      <contour>
        <pt x="190" y="682" on="1"/>
        <pt x="190" y="731" on="1"/>
        <pt x="312" y="674" on="1"/>
        <pt x="435" y="731" on="1"/>
        <pt x="435" y="682" on="1"/>
        <pt x="313" y="625" on="1"/>
      </contour>
    </TTGlyph>
    <TTGlyph name="Ncommaaccent" xMin="82" yMin="-220" xMax="607" yMax="740">
      <contour>
        <pt x="340" y="-67" on="1"/>
        <pt x="403" y="-67" on="1"/>
        <pt x="343" y="-220" on="1"/>
        <pt x="290" y="-220" on="1"/>
      </contour>
      <contour>
        <pt x="82" y="740" on="1"/>
        <pt x="141" y="740" on="1"/>
        <pt x="494" y="190" on="1"/>
        <pt x="544" y="104" on="1"/>
        <pt x="549" y="104" on="1"/>
        <pt x="549" y="740" on="1"/>
        <pt x="607" y="740" on="1"/>
        <pt x="607" y="0" on="1"/>
        <pt x="547" y="0" on="1"/>
        <pt x="195" y="548" on="1"/>
        <pt x="145" y="635" on="1"/>
        <pt x="139" y="635" on="1"/>
        <pt x="139" y="0" on="1"/>
        <pt x="82" y="0" on="1"/>
      </contour>
    </TTGlyph>
    <TTGlyph name="Ncommaaccent.sc" xMin="78" yMin="-172" xMax="537" yMax="577">
      <contour>
        <pt x="78" y="577" on="1"/>
        <pt x="133" y="577" on="1"/>
        <pt x="432" y="163" on="1"/>
        <pt x="477" y="96" on="1"/>
        <pt x="481" y="97" on="1"/>
        <pt x="481" y="577" on="1"/>
        <pt x="537" y="577" on="1"/>
        <pt x="537" y="0" on="1"/>
        <pt x="482" y="0" on="1"/>
        <pt x="183" y="413" on="1"/>
        <pt x="138" y="481" on="1"/>
        <pt x="133" y="481" on="1"/>
        <pt x="133" y="0" on="1"/>
        <pt x="78" y="0" on="1"/>
      </contour>
      <contour>
        <pt x="298" y="-53" on="1"/>
        <pt x="359" y="-53" on="1"/>
        <pt x="307" y="-172" on="1"/>
        <pt x="256" y="-172" on="1"/>
      </contour>
    </TTGlyph>
    <TTGlyph name="Ndotaccent" xMin="82" yMin="0" xMax="607" yMax="890">
      <contour>
        <pt x="347" y="805" on="1"/>
        <pt x="304" y="805" on="0"/>
        <pt x="304" y="847" on="1"/>
        <pt x="304" y="890" on="0"/>
        <pt x="347" y="890" on="1"/>
        <pt x="367" y="890" on="0"/>
        <pt x="390" y="869" on="0"/>
        <pt x="390" y="847" on="1"/>
        <pt x="390" y="825" on="0"/>
        <pt x="367" y="805" on="0"/>
      </contour>
      <contour>
        <pt x="82" y="740" on="1"/>
        <pt x="141" y="740" on="1"/>
        <pt x="494" y="190" on="1"/>
        <pt x="544" y="104" on="1"/>
        <pt x="549" y="104" on="1"/>
        <pt x="549" y="740" on="1"/>
        <pt x="607" y="740" on="1"/>
        <pt x="607" y="0" on="1"/>
        <pt x="547" y="0" on="1"/>
        <pt x="195" y="548" on="1"/>
        <pt x="145" y="635" on="1"/>
        <pt x="139" y="635" on="1"/>
        <pt x="139" y="0" on="1"/>
        <pt x="82" y="0" on="1"/>
      </contour>
    </TTGlyph>
    <TTGlyph name="Ndotaccent.sc" xMin="78" yMin="0" xMax="537" yMax="704">
      <contour>
        <pt x="78" y="577" on="1"/>
        <pt x="133" y="577" on="1"/>
        <pt x="432" y="163" on="1"/>
        <pt x="477" y="96" on="1"/>
        <pt x="481" y="97" on="1"/>
        <pt x="481" y="577" on="1"/>
        <pt x="537" y="577" on="1"/>
        <pt x="537" y="0" on="1"/>
        <pt x="482" y="0" on="1"/>
        <pt x="183" y="413" on="1"/>
        <pt x="138" y="481" on="1"/>
        <pt x="133" y="481" on="1"/>
        <pt x="133" y="0" on="1"/>
        <pt x="78" y="0" on="1"/>
      </contour>
      <contour>
        <pt x="309" y="628" on="1"/>
        <pt x="290" y="628" on="0"/>
        <pt x="269" y="646" on="0"/>
        <pt x="269" y="667" on="1"/>
        <pt x="269" y="704" on="0"/>
        <pt x="309" y="704" on="1"/>
        <pt x="328" y="704" on="0"/>
        <pt x="350" y="687" on="0"/>
        <pt x="350" y="667" on="1"/>
        <pt x="350" y="646" on="0"/>
        <pt x="328" y="628" on="0"/>
      </contour>
    </TTGlyph>
    <TTGlyph name="Ntilde" xMin="82" yMin="0" xMax="607" yMax="915">
      <contour>
        <pt x="186" y="852" on="1"/>
        <pt x="206" y="879" on="0"/>
        <pt x="261" y="915" on="0"/>
        <pt x="288" y="915" on="1"/>
        <pt x="309" y="915" on="0"/>
        <pt x="343" y="902" on="0"/>
        <pt x="375" y="885" on="0"/>
        <pt x="408" y="872" on="0"/>
        <pt x="426" y="872" on="1"/>
        <pt x="444" y="872" on="0"/>
        <pt x="478" y="893" on="0"/>
        <pt x="492" y="912" on="1"/>
        <pt x="518" y="890" on="1"/>
        <pt x="501" y="860" on="0"/>
        <pt x="446" y="824" on="0"/>
        <pt x="417" y="824" on="1"/>
        <pt x="397" y="824" on="0"/>
        <pt x="363" y="837" on="0"/>
        <pt x="331" y="853" on="0"/>
        <pt x="299" y="866" on="0"/>
        <pt x="281" y="866" on="1"/>
        <pt x="262" y="866" on="0"/>
        <pt x="226" y="845" on="0"/>
        <pt x="210" y="828" on="1"/>
      </contour>
      <contour>
        <pt x="82" y="740" on="1"/>
        <pt x="141" y="740" on="1"/>
        <pt x="494" y="190" on="1"/>
        <pt x="544" y="104" on="1"/>
        <pt x="549" y="104" on="1"/>
        <pt x="549" y="740" on="1"/>
        <pt x="607" y="740" on="1"/>
        <pt x="607" y="0" on="1"/>
        <pt x="547" y="0" on="1"/>
        <pt x="195" y="548" on="1"/>
        <pt x="145" y="635" on="1"/>
        <pt x="139" y="635" on="1"/>
        <pt x="139" y="0" on="1"/>
        <pt x="82" y="0" on="1"/>
      </contour>
    </TTGlyph>
    <TTGlyph name="Ntilde.sc" xMin="78" yMin="0" xMax="537" yMax="719">
      <contour>
        <pt x="167" y="665" on="1"/>
        <pt x="184" y="689" on="0"/>
        <pt x="233" y="719" on="0"/>
        <pt x="258" y="719" on="1"/>
        <pt x="276" y="719" on="0"/>
        <pt x="306" y="709" on="0"/>
        <pt x="335" y="697" on="0"/>
        <pt x="363" y="687" on="0"/>
        <pt x="380" y="687" on="1"/>
        <pt x="411" y="687" on="0"/>
        <pt x="439" y="718" on="1"/>
        <pt x="461" y="700" on="1"/>
        <pt x="445" y="673" on="0"/>
        <pt x="396" y="642" on="0"/>
        <pt x="370" y="642" on="1"/>
        <pt x="353" y="642" on="0"/>
        <pt x="322" y="653" on="0"/>
        <pt x="294" y="665" on="0"/>
        <pt x="265" y="676" on="0"/>
        <pt x="250" y="676" on="1"/>
        <pt x="233" y="676" on="0"/>
        <pt x="201" y="659" on="0"/>
        <pt x="187" y="645" on="1"/>
      </contour>
      <contour>
        <pt x="78" y="577" on="1"/>
        <pt x="133" y="577" on="1"/>
        <pt x="432" y="163" on="1"/>
        <pt x="477" y="96" on="1"/>
        <pt x="481" y="97" on="1"/>
        <pt x="481" y="577" on="1"/>
        <pt x="537" y="577" on="1"/>
        <pt x="537" y="0" on="1"/>
        <pt x="482" y="0" on="1"/>
        <pt x="183" y="413" on="1"/>
        <pt x="138" y="481" on="1"/>
        <pt x="133" y="481" on="1"/>
        <pt x="133" y="0" on="1"/>
        <pt x="78" y="0" on="1"/>
      </contour>
    </TTGlyph>
    <TTGlyph name="O" xMin="48" yMin="-10" xMax="598" yMax="750">
      <contour>
        <pt x="323" y="-10" on="1"/>
        <pt x="186" y="-10" on="0"/>
        <pt x="48" y="179" on="0"/>
        <pt x="48" y="369" on="1"/>
        <pt x="48" y="561" on="0"/>
        <pt x="186" y="750" on="0"/>
        <pt x="323" y="750" on="1"/>
        <pt x="460" y="750" on="0"/>
        <pt x="598" y="560" on="0"/>
        <pt x="598" y="369" on="1"/>
        <pt x="598" y="180" on="0"/>
        <pt x="459" y="-10" on="0"/>
      </contour>
      <contour>
        <pt x="323" y="45" on="1"/>
        <pt x="432" y="45" on="0"/>
        <pt x="535" y="202" on="0"/>
        <pt x="535" y="369" on="1"/>
        <pt x="535" y="536" on="0"/>
        <pt x="431" y="695" on="0"/>
        <pt x="323" y="695" on="1"/>
        <pt x="214" y="695" on="0"/>
        <pt x="111" y="538" on="0"/>
        <pt x="111" y="369" on="1"/>
        <pt x="111" y="201" on="0"/>
        <pt x="214" y="45" on="0"/>
      </contour>
    </TTGlyph>
    <TTGlyph name="O.sc" xMin="48" yMin="-8" xMax="531" yMax="585">
      <contour>
        <pt x="290" y="-8" on="1"/>
        <pt x="48" y="-8" on="0"/>
        <pt x="48" y="288" on="1"/>
        <pt x="48" y="585" on="0"/>
        <pt x="290" y="585" on="1"/>
        <pt x="409" y="585" on="0"/>
        <pt x="531" y="437" on="0"/>
        <pt x="531" y="288" on="1"/>
        <pt x="531" y="140" on="0"/>
        <pt x="409" y="-8" on="0"/>
      </contour>
      <contour>
        <pt x="290" y="45" on="1"/>
        <pt x="383" y="45" on="0"/>
        <pt x="471" y="162" on="0"/>
        <pt x="471" y="288" on="1"/>
        <pt x="471" y="414" on="0"/>
        <pt x="382" y="533" on="0"/>
        <pt x="290" y="533" on="1"/>
        <pt x="197" y="533" on="0"/>
        <pt x="108" y="415" on="0"/>
        <pt x="108" y="288" on="1"/>
        <pt x="108" y="161" on="0"/>
        <pt x="196" y="45" on="0"/>
      </contour>
    </TTGlyph>
    <TTGlyph name="OE" xMin="49" yMin="-5" xMax="790" yMax="745">
      <contour>
        <pt x="327" y="-5" on="1"/>
        <pt x="190" y="-5" on="0"/>
        <pt x="49" y="182" on="0"/>
        <pt x="49" y="369" on="1"/>
        <pt x="49" y="558" on="0"/>
        <pt x="190" y="745" on="0"/>
        <pt x="327" y="745" on="1"/>
        <pt x="349" y="745" on="0"/>
        <pt x="399" y="742" on="0"/>
        <pt x="417" y="740" on="1"/>
        <pt x="781" y="740" on="1"/>
        <pt x="781" y="685" on="1"/>
        <pt x="476" y="685" on="1"/>
        <pt x="476" y="403" on="1"/>
        <pt x="754" y="403" on="1"/>
        <pt x="754" y="349" on="1"/>
        <pt x="476" y="349" on="1"/>
        <pt x="476" y="55" on="1"/>
        <pt x="790" y="55" on="1"/>
        <pt x="790" y="0" on="1"/>
        <pt x="417" y="0" on="1"/>
        <pt x="399" y="-2" on="0"/>
        <pt x="348" y="-5" on="0"/>
      </contour>
      <contour>
        <pt x="330" y="51" on="1"/>
        <pt x="350" y="51" on="0"/>
        <pt x="397" y="53" on="0"/>
        <pt x="414" y="56" on="1"/>
        <pt x="414" y="683" on="1"/>
        <pt x="396" y="687" on="0"/>
        <pt x="349" y="689" on="0"/>
        <pt x="329" y="689" on="1"/>
        <pt x="217" y="689" on="0"/>
        <pt x="111" y="535" on="0"/>
        <pt x="111" y="369" on="1"/>
        <pt x="111" y="204" on="0"/>
        <pt x="216" y="51" on="0"/>
      </contour>
    </TTGlyph>
    <TTGlyph name="OE.sc" xMin="48" yMin="-4" xMax="703" yMax="581">
      <contour>
        <pt x="293" y="-4" on="1"/>
        <pt x="172" y="-4" on="0"/>
        <pt x="48" y="142" on="0"/>
        <pt x="48" y="288" on="1"/>
        <pt x="48" y="435" on="0"/>
        <pt x="172" y="581" on="0"/>
        <pt x="293" y="581" on="1"/>
        <pt x="312" y="581" on="0"/>
        <pt x="355" y="579" on="0"/>
        <pt x="372" y="577" on="1"/>
        <pt x="696" y="577" on="1"/>
        <pt x="696" y="526" on="1"/>
        <pt x="430" y="526" on="1"/>
        <pt x="430" y="318" on="1"/>
        <pt x="673" y="318" on="1"/>
        <pt x="673" y="268" on="1"/>
        <pt x="430" y="268" on="1"/>
        <pt x="430" y="52" on="1"/>
        <pt x="703" y="52" on="1"/>
        <pt x="703" y="0" on="1"/>
        <pt x="372" y="0" on="1"/>
        <pt x="356" y="-2" on="0"/>
        <pt x="312" y="-4" on="0"/>
      </contour>
      <contour>
        <pt x="296" y="48" on="1"/>
        <pt x="313" y="48" on="0"/>
        <pt x="355" y="50" on="0"/>
        <pt x="370" y="53" on="1"/>
        <pt x="370" y="524" on="1"/>
        <pt x="354" y="527" on="0"/>
        <pt x="314" y="529" on="0"/>
        <pt x="296" y="529" on="1"/>
        <pt x="199" y="529" on="0"/>
        <pt x="108" y="413" on="0"/>
        <pt x="108" y="288" on="1"/>
        <pt x="108" y="163" on="0"/>
        <pt x="198" y="48" on="0"/>
      </contour>
    </TTGlyph>
</ttFont>
